<svg width="200" height="150" viewBox="0 0 200 150" fill="none" xmlns="http://www.w3.org/2000/svg">
<path d="M200 130.96H0V131.06H200V130.96Z" fill="#EBEBEB"/>
<path d="M177.556 134.768H164.308V134.868H177.556V134.768Z" fill="#EBEBEB"/>
<path d="M72.532 136.124H52.588V136.224H72.532V136.124Z" fill="#EBEBEB"/>
<path d="M163.908 138.484H152.096V138.584H163.908V138.484Z" fill="#EBEBEB"/>
<path d="M29.624 137.812H20.984V137.912H29.624V137.812Z" fill="#EBEBEB"/>
<path d="M48.532 137.812H33.184V137.912H48.532V137.812Z" fill="#EBEBEB"/>
<path d="M132.488 133.684H95.016V133.784H132.488V133.684Z" fill="#EBEBEB"/>
<path d="M94.8001 113.12H17.5641C16.959 113.119 16.3791 112.878 15.9516 112.45C15.5241 112.021 15.2841 111.441 15.2841 110.836V2.264C15.2893 1.66241 15.5317 1.08719 15.9586 0.663287C16.3855 0.239383 16.9624 0.00103056 17.5641 0H94.8001C95.4058 0 95.9868 0.240635 96.4151 0.668968C96.8434 1.0973 97.0841 1.67825 97.0841 2.284V110.836C97.0841 111.442 96.8434 112.023 96.4151 112.451C95.9868 112.879 95.4058 113.12 94.8001 113.12V113.12ZM17.5641 0.0800003C16.9855 0.0810599 16.431 0.311626 16.0223 0.721091C15.6136 1.13056 15.3841 1.68546 15.3841 2.264V110.836C15.3841 111.415 15.6136 111.969 16.0223 112.379C16.431 112.788 16.9855 113.019 17.5641 113.02H94.8001C95.379 113.019 95.9339 112.789 96.3432 112.379C96.7526 111.97 96.983 111.415 96.9841 110.836V2.264C96.983 1.68509 96.7526 1.1302 96.3432 0.720847C95.9339 0.311496 95.379 0.0810577 94.8001 0.0800003H17.5641Z" fill="#EBEBEB"/>
<path d="M181.324 113.12H104.084C103.479 113.119 102.898 112.878 102.47 112.45C102.042 112.022 101.801 111.441 101.8 110.836V2.264C101.806 1.66205 102.05 1.08683 102.477 0.663037C102.905 0.239243 103.482 0.00101932 104.084 0H181.324C181.925 0.0020818 182.501 0.2409 182.927 0.664691C183.353 1.08848 183.595 1.6631 183.6 2.264V110.836C183.6 111.44 183.361 112.02 182.934 112.448C182.507 112.876 181.928 113.118 181.324 113.12V113.12ZM104.084 0.0800003C103.505 0.0810577 102.95 0.311496 102.541 0.720847C102.132 1.1302 101.901 1.68509 101.9 2.264V110.836C101.901 111.415 102.132 111.97 102.541 112.379C102.95 112.789 103.505 113.019 104.084 113.02H181.324C181.903 113.019 182.458 112.789 182.867 112.379C183.277 111.97 183.507 111.415 183.508 110.836V2.264C183.507 1.68509 183.277 1.1302 182.867 0.720847C182.458 0.311496 181.903 0.0810577 181.324 0.0800003H104.084Z" fill="#EBEBEB"/>
<path d="M43.484 63.86L151.968 63.86V10.876L43.484 10.876V63.86Z" fill="#E6E6E6"/>
<path d="M41.452 63.86L151.02 63.86V10.876L41.452 10.876V63.86Z" fill="#F0F0F0"/>
<path d="M43.484 67.636L151.968 67.636V63.86L43.484 63.86V67.636Z" fill="#E6E6E6"/>
<path d="M38.0641 67.636L147.632 67.636V63.86L38.0641 63.86V67.636Z" fill="#F0F0F0"/>
<path d="M148.176 61.02V13.724L44.2959 13.724V61.02L148.176 61.02Z" fill="#FAFAFA"/>
<path d="M72.868 61.02L68.316 13.724H60.436L64.988 61.02H72.868Z" fill="white"/>
<path d="M133.528 61.02L128.972 13.724H121.092L125.648 61.02H133.528Z" fill="white"/>
<path d="M146.86 44.988C146.918 44.987 146.973 44.9633 147.013 44.9222C147.053 44.881 147.076 44.8257 147.076 44.768V15.568C147.08 15.5369 147.078 15.5053 147.069 15.4752C147.06 15.4451 147.044 15.4173 147.024 15.3937C147.003 15.3701 146.978 15.3511 146.949 15.3381C146.92 15.3251 146.889 15.3184 146.858 15.3184C146.827 15.3184 146.796 15.3251 146.767 15.3381C146.738 15.3511 146.713 15.3701 146.692 15.3937C146.672 15.4173 146.656 15.4451 146.647 15.4752C146.638 15.5053 146.636 15.5369 146.64 15.568V44.768C146.64 44.7969 146.646 44.8255 146.657 44.8522C146.668 44.8789 146.684 44.9032 146.704 44.9236C146.725 44.944 146.749 44.9602 146.776 44.9713C146.802 44.9823 146.831 44.988 146.86 44.988V44.988Z" fill="#F0F0F0"/>
<path d="M63.296 61.02L58.74 13.724H55.668L60.224 61.02H63.296Z" fill="white"/>
<path d="M44.656 61.02V13.724H44.296V61.02H44.656Z" fill="#E6E6E6"/>
<path opacity="0.5" d="M40.7799 18.88H149.264L149.524 14.828H41.0399L40.7799 18.88Z" fill="#E0E0E0"/>
<path opacity="0.5" d="M40.7799 25.54H149.264L149.524 21.488H41.0399L40.7799 25.54Z" fill="#E0E0E0"/>
<path opacity="0.5" d="M40.7799 32.2H149.264L149.524 28.148H41.0399L40.7799 32.2Z" fill="#E0E0E0"/>
<path opacity="0.5" d="M40.7799 38.86H149.264L149.524 34.808H41.0399L40.7799 38.86Z" fill="#E0E0E0"/>
<path opacity="0.5" d="M40.7799 45.52H149.264L149.524 41.468H41.0399L40.7799 45.52Z" fill="#E0E0E0"/>
<path opacity="0.5" d="M40.7799 52.1799H149.264L149.524 48.1279H41.0399L40.7799 52.1799Z" fill="#E0E0E0"/>
<path d="M105.856 130.96H112.68V85.344H105.856V130.96Z" fill="#E6E6E6"/>
<path d="M107.648 130.96H105.856V124.748H109.532L107.648 130.96Z" fill="#F0F0F0"/>
<path d="M168.788 130.96H175.612V85.344H168.788V130.96Z" fill="#E6E6E6"/>
<path d="M105.852 127.148L170.348 127.148V85.344H105.852V127.148Z" fill="#F0F0F0"/>
<path d="M107.244 98.656L168.956 98.656V87.192H107.244V98.656Z" fill="#E6E6E6"/>
<path d="M118 90.756H157C158.752 90.756 160.424 89.344 161.628 86.844H113.372C114.576 89.344 116.248 90.756 118 90.756Z" fill="#F0F0F0"/>
<path d="M168.556 130.96H170.352V124.748H166.676L168.556 130.96Z" fill="#F0F0F0"/>
<path d="M107.244 111.976L168.956 111.976V100.512H107.244V111.976Z" fill="#E6E6E6"/>
<path d="M118 104.076H157C158.752 104.076 160.424 102.66 161.628 100.164H113.372C114.576 102.66 116.248 104.076 118 104.076Z" fill="#F0F0F0"/>
<path d="M107.244 125.296L168.956 125.296V113.832H107.244V125.296Z" fill="#E6E6E6"/>
<path d="M118 117.392H157C158.752 117.392 160.424 115.976 161.628 113.48H113.372C114.576 115.976 116.248 117.392 118 117.392Z" fill="#F0F0F0"/>
<path d="M60.924 71.2679H53.012C52.0091 71.2679 51.196 72.081 51.196 73.0839V76.1239C51.196 77.1269 52.0091 77.9399 53.012 77.9399H60.924C61.927 77.9399 62.74 77.1269 62.74 76.1239V73.0839C62.74 72.081 61.927 71.2679 60.924 71.2679Z" fill="#F5F5F5"/>
<path d="M75.368 71.2679H67.456C66.4531 71.2679 65.64 72.081 65.64 73.0839V76.1239C65.64 77.1269 66.4531 77.9399 67.456 77.9399H75.368C76.371 77.9399 77.184 77.1269 77.184 76.1239V73.0839C77.184 72.081 76.371 71.2679 75.368 71.2679Z" fill="#F5F5F5"/>
<path d="M32.9921 69.932C32.9921 69.932 33.2681 77.932 43.8201 77.932C54.3721 77.932 54.6441 69.932 54.6441 69.932H32.9921Z" fill="#F0F0F0"/>
<path d="M78.3719 128.352H89.9879V80.4601H78.3719V128.352Z" fill="#F0F0F0"/>
<path d="M30.48 130.96H87.76V128.352H30.48V130.96Z" fill="#F0F0F0"/>
<path d="M78.372 80.4561H28.248V128.348H78.372V80.4561Z" fill="#F5F5F5"/>
<path d="M73.808 98.884H32.816V109.924H73.808V98.884Z" fill="#F0F0F0"/>
<path d="M73.808 112.388H32.816V123.428H73.808V112.388Z" fill="#F0F0F0"/>
<path d="M48.5 100.364H58.12C58.3648 100.363 58.5992 100.265 58.7723 100.092C58.9453 99.9191 59.043 99.6847 59.044 99.44V99.44C59.0441 99.1945 58.9468 98.9591 58.7737 98.7852C58.6005 98.6113 58.3655 98.513 58.12 98.512H48.5C48.2546 98.513 48.0196 98.6113 47.8464 98.7852C47.6733 98.9591 47.576 99.1945 47.576 99.44C47.5771 99.6847 47.6748 99.9191 47.8478 100.092C48.0209 100.265 48.2553 100.363 48.5 100.364V100.364Z" fill="#F5F5F5"/>
<path d="M73.808 85.384H32.816V96.424H73.808V85.384Z" fill="#F0F0F0"/>
<path d="M48.5 86.864H58.12C58.3655 86.8629 58.6005 86.7647 58.7737 86.5907C58.9468 86.4168 59.0441 86.1814 59.044 85.936C59.043 85.6912 58.9453 85.4568 58.7723 85.2838C58.5992 85.1107 58.3648 85.013 58.12 85.012H48.5C48.2553 85.013 48.0209 85.1107 47.8478 85.2838C47.6748 85.4568 47.5771 85.6912 47.576 85.936V85.936C47.576 86.1814 47.6733 86.4168 47.8464 86.5907C48.0196 86.7647 48.2546 86.8629 48.5 86.864V86.864Z" fill="#F5F5F5"/>
<path d="M48.4999 113.864H58.1199C58.6303 113.864 59.0439 113.45 59.0439 112.94V112.936C59.0439 112.426 58.6303 112.012 58.1199 112.012H48.4999C47.9896 112.012 47.5759 112.426 47.5759 112.936V112.94C47.5759 113.45 47.9896 113.864 48.4999 113.864Z" fill="#F5F5F5"/>
<path d="M26.7001 80.4559H78.3721V77.9359H26.7001V80.4559Z" fill="#F0F0F0"/>
<path d="M91.6121 77.9399H78.3721V80.4599H91.6121V77.9399Z" fill="#E6E6E6"/>
<path d="M155.904 51.276L153.036 46.932C153.136 72.076 153.56 73.524 153.548 77.852H155.848C156.168 56.8 157.056 56.676 155.904 51.276Z" fill="#E0E0E0"/>
<path d="M154.8 85.3399C161.396 85.3399 166.96 82.6639 168.312 79.0439C168.658 78.0535 169.131 77.1122 169.72 76.2439L169.824 76.0959H139.768L139.872 76.2439C140.463 77.1112 140.938 78.0527 141.284 79.0439C142.636 82.6639 148.2 85.3399 154.8 85.3399Z" fill="#FAFAFA"/>
<path d="M139.708 76.9919H169.884C170.292 76.9909 170.687 76.8549 171.009 76.6053C171.331 76.3556 171.562 76.0063 171.664 75.6119V75.6119C171.734 75.3404 171.74 75.0566 171.683 74.7822C171.626 74.5078 171.507 74.25 171.336 74.0286C171.164 73.8071 170.944 73.6277 170.692 73.5042C170.441 73.3807 170.164 73.3163 169.884 73.3159H139.708C139.428 73.3155 139.151 73.3794 138.899 73.5027C138.647 73.626 138.426 73.8053 138.254 74.027C138.083 74.2487 137.964 74.5068 137.907 74.7816C137.851 75.0563 137.858 75.3404 137.928 75.6119V75.6119C138.029 76.007 138.259 76.3571 138.582 76.6069C138.904 76.8568 139.3 76.9923 139.708 76.9919V76.9919Z" fill="#F0F0F0"/>
<path d="M155.036 47.776C154.464 40.976 147.468 40.304 134.38 37.1C140.8 55.6 157.2 73.388 155.036 47.776Z" fill="#E0E0E0"/>
<path d="M153.14 44.204C152.172 38.804 153.184 33.08 168.34 33.64C164.544 48.508 157.644 69.276 153.14 44.204Z" fill="#E0E0E0"/>
<path d="M153.828 57.388C154.288 51.168 159.08 43.788 174.768 49.096C167.792 61.168 152.716 72.4 153.828 57.388Z" fill="#E0E0E0"/>
<path d="M100 149.024C142.833 149.024 177.556 146.997 177.556 144.496C177.556 141.995 142.833 139.968 100 139.968C57.167 139.968 22.444 141.995 22.444 144.496C22.444 146.997 57.167 149.024 100 149.024Z" fill="#F5F5F5"/>
<path d="M53.8998 88.4958H102.984V85.8479H53.8998V88.4958Z" fill="#764AF1"/>
<path opacity="0.5" d="M53.8998 88.4958H102.984V85.8479H53.8998V88.4958Z" fill="white"/>
<path d="M53.9 85.8479H31.424V88.4959H53.9V85.8479Z" fill="#764AF1"/>
<path opacity="0.5" d="M53.9 85.8479H31.424V88.4959H53.9V85.8479Z" fill="white"/>
<path opacity="0.2" d="M53.9 85.8479H31.424V88.4959H53.9V85.8479Z" fill="black"/>
<path d="M32.9439 91.3198H101.472L102.06 88.4958H32.3519L32.9439 91.3198Z" fill="#764AF1"/>
<path opacity="0.6" d="M32.9439 91.3198H101.472L102.06 88.4958H32.3519L32.9439 91.3198Z" fill="black"/>
<path d="M94.3558 91.3199V143.012H92.8078L90.8558 91.3199H94.3558Z" fill="#764AF1"/>
<path opacity="0.5" d="M94.3558 91.3199V143.012H92.8078L90.8558 91.3199H94.3558Z" fill="white"/>
<path d="M76.0599 91.3199V143.012H74.5119L72.5599 91.3199H76.0599Z" fill="#764AF1"/>
<path opacity="0.5" d="M76.0599 91.3199V143.012H74.5119L72.5599 91.3199H76.0599Z" fill="white"/>
<path d="M36.3959 91.3199V143.012H37.9439L39.8959 91.3199H36.3959Z" fill="#764AF1"/>
<path opacity="0.5" d="M36.3959 91.3199V143.012H37.9439L39.8959 91.3199H36.3959Z" fill="white"/>
<path d="M54.6918 91.3199V143.012H56.2398L58.1918 91.3199H54.6918Z" fill="#764AF1"/>
<path opacity="0.5" d="M54.6918 91.3199V143.012H56.2398L58.1918 91.3199H54.6918Z" fill="white"/>
<path d="M158.924 52.6161C159.8 54.3241 160.604 56.0281 161.376 57.7721C162.148 59.5161 162.864 61.2801 163.524 63.0961C163.68 63.5601 163.848 64.0081 163.992 64.4841L164.104 64.8361L164.164 65.0121C164.164 65.0721 164.224 65.2201 164.248 65.3201C164.335 65.7138 164.365 66.1179 164.336 66.5201C164.278 67.1654 164.117 67.7973 163.86 68.3921C163.649 68.9003 163.396 69.39 163.104 69.8561C162.019 71.5466 160.686 73.0636 159.148 74.3561L157.672 73.0041C158.663 71.5424 159.534 70.0027 160.276 68.4001C160.433 68.0397 160.567 67.6696 160.676 67.2921C160.761 67.0096 160.798 66.7148 160.784 66.4201C160.785 66.3574 160.769 66.2955 160.74 66.2401C160.74 66.2401 160.74 66.2601 160.72 66.2121L160.66 66.0561L160.536 65.7441C160.376 65.3441 160.188 64.9121 160.012 64.4921C159.292 62.8161 158.512 61.1401 157.716 59.4641L155.316 54.4441L158.924 52.6161Z" fill="#FF8B7B"/>
<path d="M158.112 72.52L156.3 73.296L158.104 75.796C158.104 75.796 159.416 75.06 159.58 73.776L158.112 72.52Z" fill="#FF8B7B"/>
<path d="M153.848 74.544L155.844 76.416L158.104 75.796L156.3 73.296L153.848 74.544Z" fill="#FF8B7B"/>
<path d="M146.428 40.0761C146.384 40.2881 146.24 40.4361 146.1 40.4081C145.96 40.3801 145.888 40.1841 145.928 39.9761C145.968 39.7681 146.12 39.6161 146.256 39.6441C146.392 39.6721 146.472 39.8641 146.428 40.0761Z" fill="#263238"/>
<path d="M146.26 40.4401C145.877 41.0338 145.414 41.5721 144.884 42.0401C145.006 42.1735 145.156 42.2785 145.323 42.3477C145.491 42.4168 145.671 42.4483 145.852 42.4401L146.26 40.4401Z" fill="#ED847E"/>
<path d="M147.44 39.064C147.422 39.0635 147.404 39.0593 147.388 39.0517C147.371 39.0442 147.356 39.0334 147.344 39.02C147.24 38.9014 147.109 38.8089 146.962 38.7498C146.816 38.6908 146.657 38.6669 146.5 38.68C146.484 38.6829 146.467 38.6826 146.451 38.679C146.435 38.6754 146.419 38.6687 146.406 38.6593C146.392 38.6498 146.381 38.6377 146.372 38.6238C146.363 38.6099 146.357 38.5943 146.354 38.578C146.351 38.5617 146.351 38.545 146.355 38.5289C146.359 38.5127 146.365 38.4975 146.375 38.4839C146.384 38.4703 146.396 38.4588 146.41 38.4499C146.424 38.441 146.44 38.4349 146.456 38.432C146.654 38.4081 146.855 38.4319 147.043 38.5014C147.23 38.571 147.398 38.6844 147.532 38.832C147.548 38.8503 147.558 38.8726 147.562 38.8965C147.566 38.9204 147.563 38.9449 147.553 38.9671C147.543 38.9892 147.528 39.0082 147.508 39.0219C147.488 39.0355 147.464 39.0432 147.44 39.044V39.064Z" fill="#263238"/>
<path d="M152.432 43.04C152.032 44.992 151.668 48.564 153.032 49.868C153.032 49.868 152.5 51.844 148.876 51.844C144.876 51.844 146.972 49.868 146.972 49.868C149.144 49.348 149.088 47.732 148.712 46.216L152.432 43.04Z" fill="#FF8B7B"/>
<path d="M153.968 50.488C154.26 49.864 154.588 49.148 153.856 48.956C153.056 48.744 148.676 48.652 147.188 49.164C145.7 49.676 146.176 50.9 146.176 50.9L153.968 50.488Z" fill="#764AF1"/>
<path d="M145.94 141.6C145.6 141.6 145.268 141.552 145.14 141.396C145.112 141.355 145.097 141.307 145.097 141.258C145.097 141.209 145.112 141.161 145.14 141.12C145.162 141.083 145.191 141.051 145.225 141.026C145.26 141.001 145.299 140.982 145.34 140.972C145.784 140.852 146.716 141.372 146.752 141.408C146.764 141.414 146.773 141.423 146.779 141.435C146.784 141.446 146.786 141.459 146.784 141.472C146.782 141.484 146.776 141.496 146.768 141.505C146.759 141.515 146.748 141.521 146.736 141.524C146.473 141.571 146.207 141.596 145.94 141.6V141.6ZM145.52 141.08C145.479 141.074 145.437 141.074 145.396 141.08C145.37 141.085 145.346 141.095 145.325 141.111C145.303 141.126 145.285 141.145 145.272 141.168C145.228 141.248 145.244 141.284 145.272 141.308C145.396 141.48 146.072 141.484 146.564 141.412C146.239 141.241 145.885 141.134 145.52 141.096V141.08Z" fill="#764AF1"/>
<path d="M146.748 141.54H146.72C146.4 141.396 145.76 140.816 145.808 140.516C145.808 140.444 145.872 140.356 146.044 140.34C146.107 140.334 146.17 140.34 146.231 140.358C146.291 140.377 146.348 140.407 146.396 140.448C146.635 140.739 146.775 141.1 146.796 141.476C146.797 141.487 146.796 141.497 146.792 141.507C146.787 141.517 146.781 141.526 146.772 141.532L146.748 141.54ZM146.096 140.46H146.056C145.944 140.46 145.936 140.516 145.936 140.532C145.904 140.712 146.336 141.168 146.668 141.364C146.636 141.06 146.513 140.773 146.316 140.54C146.254 140.489 146.176 140.461 146.096 140.46Z" fill="#764AF1"/>
<path d="M149.68 141.476H147.012L146.748 135.304H149.412L149.68 141.476Z" fill="#FF8B7B"/>
<path d="M168.896 138.536L166.244 138.824L164.244 132.828L166.896 132.54L168.896 138.536Z" fill="#FF8B7B"/>
<path d="M165.032 139.428C164.7 139.516 164.368 139.552 164.232 139.428C164.195 139.396 164.168 139.352 164.157 139.304C164.145 139.256 164.149 139.206 164.168 139.16C164.18 139.119 164.2 139.08 164.228 139.047C164.255 139.014 164.29 138.987 164.328 138.968C164.728 138.74 165.76 139.024 165.804 139.036C165.817 139.04 165.828 139.047 165.836 139.057C165.845 139.067 165.85 139.079 165.852 139.092C165.853 139.105 165.85 139.118 165.843 139.129C165.837 139.141 165.828 139.15 165.816 139.156C165.564 139.271 165.301 139.362 165.032 139.428V139.428ZM164.496 139.028C164.456 139.039 164.417 139.054 164.38 139.072C164.357 139.084 164.337 139.1 164.32 139.12C164.304 139.14 164.291 139.163 164.284 139.188C164.26 139.276 164.284 139.308 164.304 139.328C164.468 139.464 165.124 139.3 165.584 139.112C165.23 139.015 164.86 138.988 164.496 139.032V139.028Z" fill="#764AF1"/>
<path d="M165.796 139.16C165.796 139.16 165.776 139.16 165.768 139.16C165.42 139.1 164.66 138.7 164.636 138.396C164.636 138.324 164.656 138.224 164.82 138.164C164.878 138.139 164.939 138.127 165.002 138.127C165.065 138.127 165.126 138.139 165.184 138.164C165.584 138.352 165.828 139.028 165.84 139.056C165.846 139.066 165.849 139.077 165.849 139.088C165.849 139.099 165.846 139.11 165.84 139.12L165.796 139.16ZM164.9 138.272H164.86C164.756 138.312 164.76 138.356 164.76 138.372C164.76 138.552 165.308 138.884 165.676 138.996C165.573 138.709 165.383 138.462 165.132 138.288C165.059 138.254 164.977 138.248 164.9 138.272V138.272Z" fill="#764AF1"/>
<path d="M166.092 138.576L168.968 137.74C169.019 137.725 169.073 137.727 169.122 137.748C169.171 137.768 169.211 137.805 169.236 137.852L170.4 140C170.426 140.052 170.441 140.11 170.443 140.168C170.444 140.227 170.433 140.285 170.41 140.339C170.387 140.393 170.352 140.441 170.308 140.48C170.264 140.519 170.212 140.547 170.156 140.564C169.148 140.84 168.644 140.924 167.38 141.288C166.6 141.516 165.02 142.064 163.944 142.376C162.868 142.688 162.42 141.664 162.832 141.44C164.68 140.436 165.252 139.624 165.716 138.876C165.798 138.732 165.933 138.624 166.092 138.576V138.576Z" fill="#263238"/>
<path d="M147.028 141.168H149.94C149.993 141.168 150.045 141.186 150.087 141.219C150.128 141.253 150.157 141.3 150.168 141.352L150.696 143.72C150.707 143.778 150.705 143.839 150.69 143.896C150.676 143.954 150.648 144.008 150.61 144.053C150.571 144.099 150.523 144.135 150.469 144.16C150.415 144.185 150.356 144.197 150.296 144.196C149.244 144.176 147.728 144.116 146.408 144.116C144.864 144.116 144.008 144.2 142.212 144.2C141.116 144.2 140.816 143.092 141.272 143C143.36 142.544 144.568 142.496 146.372 141.4C146.564 141.262 146.792 141.181 147.028 141.168V141.168Z" fill="#263238"/>
<path d="M145.108 54.7C144.756 55.636 144.376 56.456 143.968 57.312C143.56 58.168 143.124 58.988 142.656 59.812C141.708 61.5019 140.58 63.0844 139.292 64.532C139.12 64.716 138.944 64.9 138.76 65.08C138.672 65.168 138.58 65.26 138.484 65.348L138.172 65.632C137.873 65.9003 137.516 66.0948 137.128 66.2C136.845 66.2744 136.55 66.2921 136.26 66.252C136.116 66.2334 135.974 66.1999 135.836 66.152C135.715 66.109 135.597 66.0568 135.484 65.996C135.179 65.8276 134.913 65.5957 134.704 65.316C134.571 65.1453 134.456 64.9618 134.36 64.768C134.109 64.24 133.921 63.6842 133.8 63.112C133.692 62.608 133.62 62.128 133.556 61.652C133.337 59.7937 133.284 57.9197 133.396 56.052L135.396 55.908C135.796 57.632 136.196 59.392 136.644 61.024C136.756 61.424 136.888 61.824 137.02 62.192C137.117 62.4954 137.252 62.7857 137.42 63.056C137.444 63.088 137.468 63.104 137.452 63.056C137.38 62.955 137.284 62.8738 137.172 62.82C137.109 62.7851 137.044 62.7557 136.976 62.732C136.892 62.7018 136.805 62.6803 136.716 62.668C136.539 62.6442 136.358 62.6537 136.184 62.696C136.012 62.7377 135.852 62.8154 135.712 62.924L135.884 62.732C135.952 62.664 136.016 62.592 136.08 62.516C136.208 62.372 136.332 62.216 136.456 62.064C137.47 60.7373 138.366 59.3239 139.132 57.84C139.532 57.088 139.932 56.312 140.296 55.536C140.66 54.76 141.028 53.936 141.348 53.208L145.108 54.7Z" fill="#FF8B7B"/>
<path d="M157.808 50.4681C160.308 51.0441 162.832 58.3481 162.832 58.3481L157.688 62.0401C157.688 62.0401 156.252 58.6361 154.836 55.6601C153.356 52.5401 155.252 49.8841 157.808 50.4681Z" fill="#263238"/>
<path d="M142.868 50.608C142.868 50.608 140.032 53.808 142.712 73.652H156.972C157.072 71.464 155.696 60.784 157.808 50.452C156.231 50.1496 154.635 49.9492 153.032 49.852C151.014 49.7339 148.99 49.7339 146.972 49.852C145.586 49.9967 144.214 50.2495 142.868 50.608V50.608Z" fill="#263238"/>
<path d="M146.4 53.308C147.296 55.708 143.2 62.06 143.2 62.06L137.112 58.4C138.662 56.6335 139.993 54.686 141.076 52.6C143.048 48.496 145.68 51.376 146.4 53.308Z" fill="#263238"/>
<path d="M134.08 57.236L131.524 56.16L132.856 54.076C132.856 54.076 134.668 54.268 135.336 55.46C135.431 55.6339 135.459 55.8369 135.413 56.0298C135.367 56.2227 135.251 56.3917 135.088 56.504L134.08 57.236Z" fill="#FF8B7B"/>
<path d="M129.448 54.6L131.68 53.124L132.856 54.076L131.524 56.16L129.448 54.6Z" fill="#FF8B7B"/>
<path opacity="0.2" d="M146.748 135.304L146.884 138.488H149.552L149.416 135.304H146.748Z" fill="black"/>
<path opacity="0.2" d="M166.896 132.544L164.244 132.832L165.356 136.156L167.928 135.632L166.896 132.544Z" fill="black"/>
<path d="M153.548 41.0561C152.864 43.6121 152.592 45.1441 151.016 46.2081C148.644 47.8081 145.688 45.9721 145.596 43.2641C145.512 40.8241 146.648 37.0521 149.392 36.5401C149.996 36.4216 150.621 36.46 151.206 36.6517C151.791 36.8434 152.317 37.1819 152.734 37.635C153.151 38.088 153.445 38.6404 153.587 39.2394C153.73 39.8383 153.716 40.4638 153.548 41.0561V41.0561Z" fill="#FF8B7B"/>
<path d="M155.22 39.5521C155.572 39.6361 156.288 39.5841 156.932 38.1281C157.824 36.1281 153.908 36.6881 153.908 36.6881C153.908 36.6881 157.508 35.0561 154.436 33.4881C152.436 32.4681 151.684 33.4121 151.412 34.1881C151.492 33.3881 151.296 32.3241 149.46 32.8881C146.66 33.7441 148.68 35.96 148.68 35.96C148.385 35.7498 148.026 35.6494 147.665 35.6765C147.304 35.7035 146.964 35.8562 146.704 36.1081C145.808 36.9081 146.512 38.0401 147.376 39.0481C146.86 39.7761 146.636 40.648 148.02 40.972C148.267 41.0173 148.491 41.1469 148.654 41.3386C148.817 41.5304 148.908 41.7726 148.912 42.0241C148.912 43.3881 148.964 44.5 149.912 45.372C150.86 46.244 154.164 45.0001 153.996 43.0521C154.8 42.9664 155.566 42.6605 156.208 42.1681C157.912 40.8361 155.912 39.8361 155.22 39.5521Z" fill="#263238"/>
<path d="M149.904 41.1C149.631 41.6985 149.168 42.1905 148.588 42.5C147.82 42.9 147.388 42.316 147.564 41.548C147.72 40.856 148.308 39.816 149.096 39.732C149.884 39.648 150.22 40.376 149.904 41.1Z" fill="#FF8B7B"/>
<path d="M147.772 73.652C147.772 73.652 150.796 94.032 152.456 101.652C154.276 110.012 163.844 135.608 163.844 135.608L168.644 134.724C168.644 134.724 161.492 110.688 160.452 102.412C159.328 93.428 156.968 73.64 156.968 73.64L147.772 73.652Z" fill="#764AF1"/>
<path opacity="0.2" d="M149.684 80.912C153.2 81.6 152.8 94.648 152.4 101.36C151.388 96.616 149.912 87.488 148.904 81.008C149.146 80.8894 149.421 80.8556 149.684 80.912V80.912Z" fill="black"/>
<path d="M142.712 73.6521C142.712 73.6521 142.344 93.5881 142.636 101.72C142.936 110.176 145.888 137.872 145.888 137.872H150.4C150.4 137.872 150.564 110.672 150.764 102.364C150.984 93.3121 152.08 73.6521 152.08 73.6521H142.712Z" fill="#764AF1"/>
<path d="M162.752 134C162.732 134 163.588 135.752 163.588 135.752L168.992 134.76L168.592 133.132L162.752 134Z" fill="#263238"/>
<path d="M145.02 136.072C145 136.072 145.276 137.948 145.276 137.948H150.772L150.92 136.272L145.02 136.072Z" fill="#263238"/>
<path d="M99.76 141.36H102.624L102.604 134.736H99.744L99.76 141.36Z" fill="#7F3E3B"/>
<path d="M84.5599 141.36H87.4199L88.3679 134.736H85.5039L84.5599 141.36Z" fill="#7F3E3B"/>
<path d="M87.5999 141.032H84.3999C84.3444 141.031 84.2903 141.05 84.2481 141.086C84.206 141.122 84.1788 141.173 84.1719 141.228L83.7959 143.768C83.7886 143.832 83.7949 143.897 83.8145 143.959C83.8341 144.021 83.8664 144.078 83.9095 144.126C83.9525 144.174 84.0052 144.213 84.0642 144.239C84.1233 144.266 84.1872 144.28 84.2519 144.28C85.3759 144.26 85.9159 144.192 87.3279 144.192C88.1999 144.192 89.9959 144.284 91.1959 144.284C92.3959 144.284 92.4679 143.084 91.9679 142.988C89.7279 142.508 88.8479 141.84 88.0919 141.208C87.9555 141.09 87.7801 141.027 87.5999 141.032V141.032Z" fill="#263238"/>
<path d="M102.588 141.032H99.464C99.4077 141.031 99.353 141.051 99.3098 141.086C99.2665 141.122 99.2375 141.173 99.228 141.228L98.8 143.768C98.7898 143.828 98.7923 143.89 98.8073 143.949C98.8223 144.009 98.8495 144.064 98.8871 144.112C98.9247 144.16 98.972 144.2 99.0259 144.229C99.0797 144.258 99.139 144.275 99.2 144.28C100.324 144.26 101.952 144.192 103.368 144.192C105.024 144.192 106.46 144.284 108.4 144.284C109.576 144.284 109.848 143.084 109.352 142.988C107.092 142.5 105.26 142.448 103.272 141.252C103.067 141.12 102.831 141.044 102.588 141.032V141.032Z" fill="#263238"/>
<path d="M100.4 50.856L104.308 49.604C104.308 49.604 107.908 59.476 108.948 60.52C110.356 61.94 112.372 65.72 113.484 67.816C113.356 68.284 112.684 69.372 112.284 69.576C109.528 67.6 105.864 63.832 105.084 62.172C103.308 58.4 100.4 50.856 100.4 50.856Z" fill="#7F3E3B"/>
<path d="M99.496 48.7039C98.184 51.1039 102.808 59.1599 102.808 59.1599L108.644 56.4559C108.644 56.4559 107.308 52.6919 105.752 49.4679C104.272 46.3999 100.952 46.0479 99.496 48.7039Z" fill="#764AF1"/>
<path d="M113.236 67.416L116.18 69.204L114 72.196C113.091 71.2745 112.327 70.2197 111.736 69.068L113.236 67.416Z" fill="#7F3E3B"/>
<path d="M118.336 71.724L116.436 73.092L114.004 72.196L116.18 69.204L118.336 71.724Z" fill="#7F3E3B"/>
<path opacity="0.2" d="M102.604 134.736L102.612 138.152H99.752L99.74 134.736H102.604Z" fill="black"/>
<path opacity="0.2" d="M85.504 134.736H88.368L87.88 138.152H85.016L85.504 134.736Z" fill="black"/>
<path d="M103.236 47.0799C103.236 47.0799 106.836 56.9159 104.012 73.0079H88.708C88.544 70.6559 89.74 58.0039 87.2 46.9359C88.8867 46.6087 90.593 46.3923 92.308 46.2879C94.4755 46.1618 96.6484 46.1618 98.8159 46.2879C100.307 46.4389 101.785 46.7036 103.236 47.0799V47.0799Z" fill="#764AF1"/>
<path d="M95.172 47.136C95.172 47.136 97.756 50.504 97.212 73.008H100.052C100.052 73.008 101.128 53.744 97.956 46.94C97.0241 46.927 96.0928 46.9926 95.172 47.136V47.136Z" fill="white"/>
<path opacity="0.2" d="M90.5919 49.668C90.8919 51.488 90.4239 55.848 88.8119 60.868C88.7336 56.5533 88.2744 52.2539 87.4399 48.02V48C88.4439 47.912 90.3079 47.96 90.5919 49.668Z" fill="black"/>
<path d="M93.008 40.204C93.472 42.296 93.74 44.892 92.308 46.288C92.308 46.288 93.2 48.412 97.108 48.412C100.664 48.412 98.832 46.288 98.832 46.288C96.484 45.732 96.532 42.844 96.9 41.216L93.008 40.204Z" fill="#7F3E3B"/>
<path d="M92.3079 46.108C93.5812 47.2487 95.1292 48.0385 96.7999 48.4C96.1159 48.864 95.2359 50.528 95.2359 50.528C95.2359 50.528 91.9319 49.268 91.2839 46.26C91.5999 46.192 92.3079 46.108 92.3079 46.108Z" fill="#764AF1"/>
<path opacity="0.3" d="M92.3079 46.108C93.5812 47.2487 95.1292 48.0385 96.7999 48.4C96.1159 48.864 95.2359 50.528 95.2359 50.528C95.2359 50.528 91.9319 49.268 91.2839 46.26C91.5999 46.192 92.3079 46.108 92.3079 46.108Z" fill="black"/>
<path d="M98.516 46.028C98.516 46.028 99.424 47.9359 97.76 48.3799C98.5868 48.7962 99.2798 49.4366 99.76 50.228C99.76 50.228 100.936 47.88 99.524 46.188C99.22 46.112 98.516 46.028 98.516 46.028Z" fill="#764AF1"/>
<path opacity="0.3" d="M98.516 46.028C98.516 46.028 99.424 47.9359 97.76 48.3799C98.5868 48.7962 99.2798 49.4366 99.76 50.228C99.76 50.228 100.936 47.88 99.524 46.188C99.22 46.112 98.516 46.028 98.516 46.028Z" fill="black"/>
<path opacity="0.2" d="M96.888 41.22C96.5987 42.3521 96.6334 43.5426 96.988 44.656C96.6557 44.814 96.284 44.8697 95.92 44.816C95.064 44.644 94.548 44.252 93.836 42.816C93.776 42.448 93.088 40.572 93.012 40.22L96.888 41.22Z" fill="black"/>
<path d="M100.02 38.06C100.057 38.4084 100.024 38.7608 99.9224 39.0962C99.8207 39.4315 99.6525 39.743 99.428 40.012C98.824 40.724 97.976 40.304 97.692 39.452C97.432 38.688 97.436 37.392 98.264 36.992C98.4483 36.9074 98.6507 36.8692 98.8532 36.881C99.0558 36.8928 99.2524 36.954 99.4257 37.0595C99.5991 37.1649 99.7439 37.3113 99.8475 37.4857C99.9511 37.6601 100.01 37.8573 100.02 38.06V38.06Z" fill="#7F3E3B"/>
<path opacity="0.2" d="M100.02 38.06C100.057 38.4084 100.024 38.7608 99.9224 39.0962C99.8207 39.4315 99.6525 39.743 99.428 40.012C98.824 40.724 97.976 40.304 97.692 39.452C97.432 38.688 97.436 37.392 98.264 36.992C98.4483 36.9074 98.6507 36.8692 98.8532 36.881C99.0558 36.8928 99.2524 36.954 99.4257 37.0595C99.5991 37.1649 99.7439 37.3113 99.8475 37.4857C99.9511 37.6601 100.01 37.8573 100.02 38.06V38.06Z" fill="black"/>
<path d="M91.084 37.956C92.252 40.572 92.424 42.04 94.148 43.156C96.744 44.848 99.836 42.836 99.832 39.916C99.832 37.292 98.472 33.292 95.528 32.716C92.308 32.112 89.6 34.616 91.084 37.956Z" fill="#7F3E3B"/>
<path d="M90.6399 40.3999C91.0744 40.9254 91.6684 41.2948 92.3319 41.4519C93.1319 41.6199 93.2719 40.8399 92.8079 40.0719C92.3879 39.3799 91.6479 38.0359 90.7559 38.6439C90.1639 39.0639 90.0679 39.7439 90.6399 40.3999Z" fill="#7F3E3B"/>
<path d="M100.088 39.932C100.176 41.7 101.944 43.932 98.7719 44.44C97.1162 44.7009 95.4227 44.3374 94.0199 43.42C92.6319 42.56 92.2199 40.136 91.1439 38.512C91.0959 38.452 91.1199 38.38 91.1759 38.308C91.2406 38.2343 91.3221 38.1773 91.4136 38.1419C91.505 38.1065 91.6037 38.0938 91.7012 38.1048C91.7986 38.1158 91.892 38.1502 91.9732 38.2051C92.0545 38.26 92.1213 38.3337 92.1679 38.42C92.5279 39.048 93.1999 39.964 94.1039 40.02C95.4879 40.128 99.9999 38.124 100.088 39.932Z" fill="#263238"/>
<path d="M93.9519 73.0079C93.9519 73.0079 94.3519 76.6079 94.8199 81.4839C95.3799 87.0079 96.0719 94.1839 96.5119 99.6519C96.5097 99.6759 96.5097 99.7 96.5119 99.7239C96.5959 100.764 96.6679 101.724 96.7319 102.628C97.3519 111.544 98.7959 137.492 98.7959 137.492H103.644C103.644 137.492 105.524 111.012 105.436 101.936C105.356 93.1999 104 73.0079 104 73.0079H93.9519Z" fill="#263238"/>
<path d="M98.3998 135.788C98.3758 135.788 98.4718 137.592 98.4718 137.592H104.072L104.224 135.564L98.3998 135.788Z" fill="#764AF1"/>
<path opacity="0.2" d="M94.8199 81.484C95.3799 87.008 96.0719 94.184 96.5119 99.652C96.5098 99.676 96.5098 99.7001 96.5119 99.724C97.5879 94.544 98.5719 89.824 97.5159 82.124L94.8199 81.484Z" fill="black"/>
<path d="M98.5799 73.008C98.5799 73.008 96.9119 93.684 95.7399 101.876C94.4559 110.848 89.1639 137.476 89.1639 137.476H83.9199C83.9199 137.476 86.7639 111.556 87.2159 102.676C87.7079 93.036 88.7039 72.996 88.7039 72.996L98.5799 73.008Z" fill="#263238"/>
<path d="M83.772 135.732C83.752 135.732 83.668 137.592 83.668 137.592H89.428L89.828 135.676L83.772 135.732Z" fill="#764AF1"/>
<path d="M95.6 37.524C95.656 37.748 95.816 37.924 95.964 37.876C96.112 37.828 96.184 37.632 96.132 37.408C96.08 37.184 95.916 37.008 95.768 37.056C95.62 37.104 95.548 37.296 95.6 37.524Z" fill="#263238"/>
<path d="M98.1279 36.9719C98.1839 37.1999 98.3439 37.3719 98.4919 37.3239C98.6399 37.2759 98.7119 37.0839 98.6599 36.8559C98.6079 36.6279 98.4439 36.4559 98.2959 36.5039C98.1479 36.5519 98.0759 36.7439 98.1279 36.9719Z" fill="#263238"/>
<path d="M97.3521 37.26C97.7833 37.8935 98.2971 38.4666 98.88 38.964C98.7531 39.1079 98.5957 39.2216 98.4192 39.2971C98.2428 39.3725 98.0518 39.4076 97.86 39.4L97.3521 37.26Z" fill="#630F0F"/>
<path d="M97.36 40.948C97.3687 40.9457 97.3768 40.9417 97.3839 40.9362C97.3911 40.9307 97.397 40.9238 97.4015 40.916C97.406 40.9082 97.4088 40.8996 97.41 40.8906C97.4111 40.8817 97.4104 40.8727 97.408 40.864C97.4024 40.847 97.3908 40.8327 97.3752 40.8238C97.3597 40.8149 97.3414 40.8121 97.324 40.816C97.0456 40.8905 96.7536 40.8985 96.4715 40.8394C96.1894 40.7804 95.9251 40.6559 95.7 40.476C95.694 40.4698 95.6869 40.4649 95.6789 40.4616C95.671 40.4582 95.6626 40.4565 95.654 40.4565C95.6454 40.4565 95.6369 40.4582 95.629 40.4616C95.6211 40.4649 95.6139 40.4698 95.608 40.476C95.6012 40.482 95.5957 40.4894 95.592 40.4977C95.5882 40.5059 95.5863 40.5149 95.5863 40.524C95.5863 40.5331 95.5882 40.542 95.592 40.5503C95.5957 40.5586 95.6012 40.566 95.608 40.572C95.8488 40.77 96.1335 40.9075 96.4383 40.9729C96.7431 41.0383 97.0591 41.0298 97.36 40.948V40.948Z" fill="#7F3E3B"/>
<path d="M94.644 36.864C94.6641 36.8591 94.6829 36.8498 94.6988 36.8366C94.7147 36.8234 94.7275 36.8068 94.736 36.788C94.7983 36.6313 94.898 36.4922 95.0262 36.3828C95.1545 36.2733 95.3075 36.1968 95.472 36.16C95.4914 36.1591 95.5104 36.1541 95.5277 36.1454C95.545 36.1366 95.5603 36.1242 95.5724 36.109C95.5845 36.0939 95.5932 36.0763 95.598 36.0575C95.6028 36.0387 95.6035 36.0191 95.6 36C95.5941 35.9642 95.5745 35.9321 95.5454 35.9105C95.5163 35.8888 95.48 35.8793 95.444 35.884C95.2325 35.9269 95.0353 36.0228 94.8709 36.1627C94.7065 36.3026 94.5802 36.482 94.504 36.684C94.4902 36.717 94.4896 36.754 94.5022 36.7875C94.5148 36.821 94.5398 36.8483 94.572 36.864C94.5957 36.8692 94.6203 36.8692 94.644 36.864V36.864Z" fill="#263238"/>
<path d="M99.0521 35.82C99.071 35.8123 99.0886 35.8015 99.104 35.788C99.1294 35.7625 99.1437 35.728 99.1437 35.692C99.1437 35.656 99.1294 35.6215 99.104 35.596C98.9637 35.4321 98.7864 35.3039 98.5868 35.2219C98.3873 35.1398 98.1711 35.1063 97.956 35.124C97.9205 35.1299 97.8888 35.1496 97.8678 35.1789C97.8468 35.2081 97.8383 35.2445 97.844 35.28C97.8509 35.3153 97.8706 35.3468 97.8995 35.3683C97.9284 35.3898 97.9643 35.3997 98 35.396C98.1707 35.3829 98.342 35.4105 98.4999 35.4765C98.6577 35.5426 98.7976 35.6453 98.9081 35.776C98.9257 35.7959 98.9484 35.8106 98.9738 35.8183C98.9993 35.8261 99.0263 35.8267 99.0521 35.82Z" fill="#263238"/>
<path d="M85.5439 50.6799L89.3399 52.4359C89.3399 52.4359 85.6799 61.7639 86.3039 63.0799C87.1559 64.8759 87.8239 68.8639 89.2119 70.7919C89.1399 71.2599 88.5799 72.3919 88.2079 72.6279C85.1719 70.9919 82.1759 65.0279 82.0119 63.2359C81.6359 59.1519 85.5439 50.6799 85.5439 50.6799Z" fill="#7F3E3B"/>
<path d="M87.2 46.936C84.504 47.336 81.632 56.708 81.632 56.708L88.196 59.6C88.196 59.6 89.796 55.46 90.948 52.144C92.156 48.676 90.096 46.512 87.2 46.936Z" fill="#764AF1"/>
<path d="M88.584 141.532C88.7757 141.547 88.9668 141.495 89.124 141.384C89.1724 141.34 89.2082 141.283 89.2279 141.221C89.2475 141.158 89.2503 141.092 89.236 141.028C89.2345 140.987 89.2218 140.948 89.1992 140.914C89.1766 140.88 89.145 140.853 89.108 140.836C88.78 140.672 87.908 141.236 87.8 141.304C87.7893 141.311 87.781 141.322 87.776 141.334C87.771 141.346 87.7696 141.359 87.772 141.372C87.7757 141.385 87.7827 141.398 87.7926 141.407C87.8024 141.417 87.8146 141.424 87.828 141.428C88.0754 141.49 88.3289 141.525 88.584 141.532V141.532ZM88.964 140.94C88.9943 140.933 89.0257 140.933 89.056 140.94C89.0701 140.948 89.082 140.96 89.0904 140.974C89.0988 140.988 89.1034 141.004 89.104 141.02C89.113 141.064 89.1108 141.109 89.0975 141.152C89.0842 141.194 89.0603 141.233 89.028 141.264C88.7106 141.413 88.3471 141.432 88.016 141.316C88.3031 141.127 88.6257 140.999 88.964 140.94V140.94Z" fill="#764AF1"/>
<path d="M87.844 141.428C87.8543 141.432 87.8656 141.432 87.876 141.428C88.16 141.268 88.676 140.628 88.6 140.324C88.5869 140.273 88.5575 140.228 88.5163 140.196C88.4751 140.163 88.4244 140.145 88.372 140.144C88.3211 140.137 88.2693 140.141 88.2202 140.157C88.1712 140.172 88.126 140.197 88.088 140.232C87.776 140.504 87.772 141.328 87.772 141.364C87.7721 141.377 87.7754 141.389 87.7817 141.401C87.788 141.412 87.7971 141.421 87.808 141.428H87.844ZM88.336 140.268H88.364C88.456 140.268 88.464 140.32 88.468 140.336C88.52 140.524 88.192 141 87.912 141.22C87.9072 140.9 88.0023 140.587 88.184 140.324C88.2257 140.287 88.28 140.267 88.336 140.268V140.268Z" fill="#764AF1"/>
<path d="M103.8 141.532C104.043 141.555 104.286 141.493 104.488 141.356C104.533 141.314 104.566 141.262 104.586 141.204C104.606 141.146 104.61 141.084 104.6 141.024C104.596 140.986 104.584 140.95 104.563 140.919C104.542 140.887 104.513 140.862 104.48 140.844C104.124 140.648 103 141.244 102.88 141.3C102.868 141.308 102.859 141.318 102.853 141.331C102.848 141.344 102.846 141.358 102.848 141.372C102.85 141.386 102.857 141.399 102.867 141.409C102.877 141.419 102.89 141.426 102.904 141.428C103.199 141.49 103.499 141.525 103.8 141.532ZM104.292 140.94C104.336 140.938 104.38 140.946 104.42 140.964C104.433 140.971 104.444 140.981 104.452 140.994C104.459 141.007 104.464 141.021 104.464 141.036C104.472 141.075 104.47 141.116 104.457 141.154C104.444 141.192 104.422 141.225 104.392 141.252C104.224 141.412 103.756 141.436 103.12 141.332C103.485 141.134 103.881 141.001 104.292 140.94V140.94Z" fill="#764AF1"/>
<path d="M102.912 141.428H102.936C103.276 141.272 103.932 140.656 103.864 140.332C103.864 140.256 103.792 140.16 103.604 140.14C103.537 140.133 103.47 140.14 103.406 140.16C103.342 140.179 103.283 140.212 103.232 140.256C102.884 140.556 102.832 141.328 102.832 141.36C102.832 141.372 102.835 141.383 102.84 141.394C102.846 141.404 102.854 141.413 102.864 141.42C102.878 141.428 102.895 141.431 102.912 141.428V141.428ZM103.556 140.268H103.596C103.72 140.268 103.728 140.328 103.732 140.344C103.772 140.54 103.332 141.024 102.988 141.236C103.003 140.914 103.12 140.606 103.324 140.356C103.387 140.298 103.47 140.267 103.556 140.268Z" fill="#764AF1"/>
<path d="M88.8719 70.74L91.5719 71.14L89.5719 73.776C89.5719 73.776 87.2239 73.352 87.1919 71.476L88.8719 70.74Z" fill="#7F3E3B"/>
<path d="M93.46 72.972L91.54 75.264L89.58 73.772L91.572 71.136L93.46 72.972Z" fill="#7F3E3B"/>
<path d="M63.272 49.112C63.272 49.112 60.672 48 58.588 49.332C56.504 50.664 58.216 50.9 55.928 51.944C53.64 52.988 56.196 54.412 55.928 55.756C55.608 57.356 52.924 58.044 54.44 59.912C55.956 61.78 67.372 62.736 68.616 60.412C69.86 58.088 67.016 58.104 67.708 56.128C68.4 54.152 68.756 52.88 66.84 51.644C64.924 50.408 65.44 48.2 63.272 49.112Z" fill="#263238"/>
<path d="M71.2679 66C71.3799 66.648 71.5199 67.384 71.6679 68.072C71.8159 68.76 71.9879 69.472 72.1839 70.16C72.5632 71.5349 73.0294 72.8843 73.5799 74.2C73.7119 74.532 73.8679 74.844 74.0119 75.164L74.0519 75.252V75.28C74.0519 75.28 74.0519 75.28 74.0319 75.28C73.96 75.2278 73.8727 75.2011 73.7839 75.204C73.7159 75.204 73.7359 75.236 73.8039 75.204C73.9029 75.1734 73.9982 75.1318 74.0879 75.08C74.3492 74.9275 74.5957 74.7507 74.8239 74.552C75.8781 73.5973 76.8508 72.5564 77.7319 71.44L78.9319 72.172C78.2624 73.6 77.4026 74.9308 76.3759 76.128C76.0794 76.4619 75.7497 76.7648 75.3919 77.032C75.173 77.1892 74.9384 77.3232 74.6919 77.432C74.3553 77.5828 73.9885 77.654 73.6199 77.64C73.1575 77.6153 72.7168 77.4365 72.3679 77.132C72.2194 77.0044 72.0852 76.8608 71.9679 76.704C71.9159 76.632 71.8719 76.564 71.8319 76.496C71.7919 76.428 71.7639 76.376 71.7399 76.332C71.5559 75.984 71.3399 75.64 71.1919 75.288C70.5044 73.8856 69.9345 72.4286 69.4879 70.932C69.2599 70.192 69.0519 69.444 68.8839 68.688C68.7159 67.932 68.5599 67.192 68.4519 66.368L71.2679 66Z" fill="#FFB573"/>
<path d="M70.176 62.8799C71.332 63.0959 72.42 67.7199 72.42 67.7199L69.424 70.0439C69.424 70.0439 66.128 65.5199 66.924 64.2159C67.72 62.9119 68.492 62.5639 70.176 62.8799Z" fill="#263238"/>
<path opacity="0.2" d="M70.14 63.928L71.308 68.584L69.624 69.888L70.14 63.928Z" fill="black"/>
<path d="M78.868 70.756L81.12 70.376L79.8039 72.852C79.8039 72.852 78.032 72.88 77.476 71.876L77.608 71.64C77.7398 71.4088 77.9211 71.2097 78.1389 71.0569C78.3568 70.904 78.6057 70.8013 78.868 70.756V70.756Z" fill="#FFB573"/>
<path d="M83.0641 71.04L82.2841 73.264L79.8041 72.852L81.1201 70.376L83.0641 71.04Z" fill="#FFB573"/>
<path d="M75.684 141.556L78.348 140.824L76.836 134.612L74.172 135.344L75.684 141.556Z" fill="#FFB573"/>
<path d="M78.348 140.356L75.372 141.22C75.3201 141.234 75.2752 141.267 75.2457 141.312C75.2163 141.357 75.2043 141.411 75.212 141.464L75.556 143.916C75.5669 143.978 75.5908 144.036 75.6259 144.088C75.6611 144.14 75.7068 144.183 75.76 144.216C75.8133 144.249 75.8729 144.27 75.9349 144.279C75.997 144.287 76.06 144.282 76.12 144.264C77.152 143.944 77.636 143.74 78.944 143.36C79.744 143.124 82.088 142.536 83.2 142.212C84.312 141.888 84.052 140.772 83.56 140.808C81.352 140.964 79.708 140.776 78.84 140.408C78.6873 140.333 78.513 140.315 78.348 140.356Z" fill="#263238"/>
<g opacity="0.2">
<path opacity="0.2" d="M76.836 134.616L77.612 137.816L74.952 138.548L74.172 135.344L76.836 134.616Z" fill="black"/>
</g>
<path d="M70.176 62.8799C70.176 62.8799 71.52 63.2799 69.908 79.5879L58.708 80.2919C58.612 75.7279 58.44 72.9199 55.676 63.7119C57.2265 63.2938 58.8053 62.989 60.4 62.7999C62.0836 62.5724 63.7812 62.4655 65.48 62.4799C67.672 62.5279 70.176 62.8799 70.176 62.8799Z" fill="#764AF1"/>
<g opacity="0.4">
<path opacity="0.4" d="M70.176 62.8799C70.176 62.8799 71.52 63.2799 69.908 79.5879L58.708 80.2919C58.612 75.7279 58.44 72.9199 55.676 63.7119C57.2265 63.2938 58.8053 62.989 60.4 62.7999C62.0836 62.5724 63.7812 62.4655 65.48 62.4799C67.672 62.5279 70.176 62.8799 70.176 62.8799Z" fill="#263238"/>
</g>
<path d="M60.54 57.0359C60.964 58.6359 61.472 61.6239 60.396 62.7879C60.396 62.7879 60.948 64.4159 63.996 64.2279C67.336 64.0159 65.488 62.4679 65.488 62.4679C63.64 62.1479 63.6 60.7919 63.836 59.5039L60.54 57.0359Z" fill="#FFB573"/>
<path d="M60.4001 62.7999C62.0823 62.5724 63.7786 62.4654 65.4761 62.4799H65.8121C66.2641 63.2239 66.4441 64.3999 65.5801 66.1919C65.5801 66.1919 61.0121 64.6799 59.7321 62.8759L60.4001 62.7999Z" fill="#FFB573"/>
<path opacity="0.2" d="M61.88 58.0439L63.824 59.4999C63.7657 59.8007 63.7322 60.1057 63.724 60.4119C63.024 60.3559 61.916 59.6919 61.796 58.9679C61.7275 58.6587 61.7569 58.3358 61.88 58.0439V58.0439Z" fill="black"/>
<path d="M58.6 54.316C59.4 56.936 59.668 58.064 61.336 59.116C63.84 60.696 66.888 59.152 66.896 56.344C66.896 53.82 65.608 49.944 62.756 49.512C62.1275 49.4103 61.4835 49.4711 60.8852 49.6886C60.2868 49.9061 59.7541 50.273 59.3376 50.7544C58.9211 51.2359 58.6346 51.8159 58.5055 52.4393C58.3764 53.0627 58.4089 53.7087 58.6 54.316Z" fill="#FFB573"/>
<path d="M63.264 49.3559C63.596 50.6239 60.572 55.0879 58.884 56.3119C57.284 54.5559 57.372 52.2879 58.064 51.1319C58.756 49.9759 60.4 48.7319 63.264 49.3559Z" fill="#263238"/>
<path d="M63.4801 49.396C64.8201 49.776 66.2241 51.364 65.4801 51.3C64.7361 51.236 61.5041 49.804 63.4801 49.396Z" fill="#263238"/>
<path d="M69.9081 79.6C69.9081 79.6 73.0521 99.7 74.1201 108.048C75.2281 116.736 77.9561 136.928 77.9561 136.928L74.3561 137.968C74.3561 137.968 69.0081 118.18 67.4081 109.724C65.6681 100.524 61.7001 80.124 61.7001 80.124L69.9081 79.6Z" fill="#764AF1"/>
<g opacity="0.2">
<path opacity="0.2" d="M69.9081 79.6C69.9081 79.6 73.0521 99.7 74.1201 108.048C75.2281 116.736 77.9561 136.928 77.9561 136.928L74.3561 137.968C74.3561 137.968 69.0081 118.18 67.4081 109.724C65.6681 100.524 61.7001 80.124 61.7001 80.124L69.9081 79.6Z" fill="black"/>
</g>
<path d="M74.096 138.176L78.3 136.952L78.22 135.524L73.464 136.728L74.096 138.176Z" fill="#263238"/>
<path d="M67.54 140.368L70.196 141.108L70.908 135.308H68.148L67.54 140.368Z" fill="#FFB573"/>
<path opacity="0.2" d="M67.8 138.192L70.4841 138.776L70.9081 135.308H68.148L67.8 138.192Z" fill="black"/>
<path d="M70.3161 140.84L67.2761 140.004C67.2231 139.99 67.167 139.993 67.1163 140.014C67.0656 140.035 67.0234 140.072 66.9961 140.12L66.0601 142.34C66.0316 142.395 66.0162 142.455 66.015 142.517C66.0138 142.579 66.0269 142.64 66.0532 142.695C66.0795 142.751 66.1184 142.8 66.1668 142.838C66.2152 142.877 66.2717 142.903 66.3321 142.916C67.4001 143.188 67.7001 143.232 69.0401 143.6C69.8601 143.824 71.8161 144.776 73.9361 144.776C75.0681 144.776 74.9481 143.576 74.4721 143.476C72.3401 143.012 71.2241 141.876 70.7121 141.12C70.6172 140.983 70.4769 140.884 70.3161 140.84V140.84Z" fill="#263238"/>
<path d="M67.3639 79.74C67.3639 79.74 78.1319 102.74 77.1839 109.952C76.0279 118.732 71.0879 137.228 71.0879 137.228L67.3239 136.484C67.3239 136.484 69.3239 117.916 70.0999 109.316C70.9559 99.944 59.3559 92.672 58.6239 80.3L67.3639 79.74Z" fill="#764AF1"/>
<path d="M66.964 137.352L71.36 138.32L71.78 136.82L67.036 135.764L66.964 137.352Z" fill="#263238"/>
<path d="M71.2201 141.564C71.4485 141.649 71.6984 141.657 71.9321 141.588C71.9898 141.566 72.0415 141.53 72.0831 141.484C72.1248 141.438 72.1552 141.384 72.1721 141.324C72.1852 141.292 72.1884 141.256 72.1813 141.222C72.1742 141.188 72.157 141.156 72.1321 141.132C71.8801 140.868 70.6001 141.096 70.4561 141.132C70.4421 141.135 70.4293 141.142 70.4188 141.152C70.4083 141.162 70.4004 141.174 70.3961 141.188C70.3928 141.2 70.3938 141.213 70.3989 141.225C70.4039 141.237 70.4128 141.246 70.4241 141.252C70.6783 141.382 70.945 141.487 71.2201 141.564V141.564ZM71.9201 141.164C71.9598 141.172 71.9969 141.19 72.0281 141.216C72.0351 141.228 72.0388 141.242 72.0388 141.256C72.0388 141.27 72.0351 141.284 72.0281 141.296C72.0166 141.335 71.9967 141.37 71.9697 141.4C71.9427 141.43 71.9093 141.453 71.8721 141.468C71.6521 141.564 71.2041 141.468 70.6521 141.208C71.0697 141.125 71.498 141.112 71.9201 141.168V141.164Z" fill="#764AF1"/>
<path d="M70.436 141.244H70.464C70.84 141.192 71.7 140.816 71.776 140.512C71.776 140.44 71.776 140.34 71.612 140.272C71.4835 140.221 71.3405 140.221 71.212 140.272C70.8675 140.482 70.59 140.786 70.412 141.148C70.4059 141.158 70.4027 141.169 70.4027 141.18C70.4027 141.191 70.4059 141.202 70.412 141.212L70.436 141.244ZM71.508 140.384H71.548C71.656 140.428 71.644 140.472 71.64 140.488C71.596 140.672 70.988 140.988 70.584 141.084C70.7393 140.793 70.9736 140.552 71.26 140.388C71.3418 140.366 71.4287 140.37 71.508 140.4V140.384Z" fill="#764AF1"/>
<path d="M63.008 54.0199C63.06 54.2399 63.216 54.388 63.356 54.352C63.496 54.316 63.572 54.1159 63.52 53.8999C63.468 53.6839 63.316 53.5359 63.172 53.5679C63.028 53.5999 62.956 53.8039 63.008 54.0199Z" fill="#263238"/>
<path d="M65.4559 53.444C65.5079 53.66 65.6639 53.808 65.8079 53.776C65.9519 53.744 66.0199 53.54 65.9719 53.324C65.9239 53.108 65.7639 52.956 65.6199 52.992C65.4759 53.028 65.4079 53.228 65.4559 53.444Z" fill="#263238"/>
<path d="M65.5641 53.0199L66.0481 52.7439C66.0481 52.7439 65.8761 53.1999 65.5641 53.0199Z" fill="#263238"/>
<path d="M64.7999 54C65.1084 54.4484 65.4772 54.8522 65.8959 55.2C65.8049 55.3054 65.6917 55.3894 65.5645 55.4461C65.4373 55.5028 65.2992 55.5307 65.1599 55.528L64.7999 54Z" fill="#ED893E"/>
<path d="M64.172 56.6679C64.2826 56.6595 64.3923 56.6421 64.5 56.6159C64.5167 56.6112 64.531 56.6003 64.5399 56.5855C64.5488 56.5706 64.5517 56.5529 64.548 56.5359C64.5433 56.5192 64.5324 56.505 64.5175 56.496C64.5027 56.4871 64.4849 56.4842 64.468 56.4879C64.2002 56.5576 63.9197 56.5631 63.6493 56.504C63.379 56.4449 63.1264 56.3229 62.912 56.1479C62.8995 56.1364 62.883 56.13 62.866 56.13C62.849 56.13 62.8326 56.1364 62.82 56.1479C62.8073 56.1607 62.8002 56.1779 62.8002 56.1959C62.8002 56.2139 62.8073 56.2312 62.82 56.2439C63.1969 56.5585 63.683 56.7109 64.172 56.6679Z" fill="#263238"/>
<path d="M58.452 56.9239C58.7469 57.3639 59.2044 57.6688 59.724 57.7719C60.416 57.9039 60.7 57.2759 60.46 56.6559C60.244 56.0959 59.624 55.3559 58.956 55.5039C58.8106 55.5391 58.6763 55.61 58.5652 55.7102C58.4542 55.8103 58.3698 55.9366 58.3198 56.0776C58.2698 56.2185 58.2556 56.3697 58.2787 56.5175C58.3018 56.6652 58.3613 56.8049 58.452 56.9239Z" fill="#FFB573"/>
<path d="M61.9079 53.7559C61.9355 53.754 61.9616 53.7432 61.9825 53.7252C62.0035 53.7072 62.018 53.6829 62.0239 53.6559C62.1008 53.4566 62.2179 53.2753 62.3679 53.1232C62.518 52.9711 62.6977 52.8515 62.8959 52.7719C62.9283 52.7586 62.954 52.7331 62.9675 52.7008C62.981 52.6686 62.9812 52.6323 62.9679 52.5999C62.9618 52.5841 62.9525 52.5696 62.9407 52.5574C62.9289 52.5451 62.9147 52.5354 62.8991 52.5287C62.8834 52.522 62.8666 52.5184 62.8496 52.5183C62.8326 52.5182 62.8157 52.5215 62.7999 52.5279C62.5623 52.6212 62.3475 52.7645 62.1702 52.9481C61.9928 53.1317 61.857 53.3512 61.7719 53.5919C61.7672 53.6088 61.7659 53.6264 61.7682 53.6437C61.7705 53.661 61.7763 53.6777 61.7853 53.6927C61.7943 53.7077 61.8063 53.7207 61.8205 53.7309C61.8347 53.7411 61.8509 53.7482 61.8679 53.7519L61.9079 53.7559Z" fill="#263238"/>
<path d="M65.928 52.1399C65.9504 52.1372 65.9718 52.1293 65.9906 52.1168C66.0093 52.1043 66.0249 52.0875 66.036 52.0679C66.0502 52.0364 66.0519 52.0007 66.0408 51.9681C66.0296 51.9354 66.0065 51.9081 65.976 51.8919C65.7909 51.7948 65.585 51.7441 65.376 51.7441C65.167 51.7441 64.9611 51.7948 64.776 51.8919C64.7615 51.9005 64.7489 51.912 64.7389 51.9255C64.7288 51.939 64.7215 51.9544 64.7174 51.9708C64.7134 51.9871 64.7125 52.0041 64.715 52.0208C64.7175 52.0375 64.7233 52.0535 64.732 52.0679C64.7496 52.0981 64.7784 52.1201 64.8121 52.1291C64.8458 52.1381 64.8818 52.1333 64.912 52.1159V52.1159C65.0582 52.0414 65.2199 52.0026 65.384 52.0026C65.5481 52.0026 65.7098 52.0414 65.856 52.1159C65.8781 52.1287 65.9026 52.1369 65.928 52.1399V52.1399Z" fill="#263238"/>
<path d="M57.388 67.4439C57.144 68.9079 56.904 70.4079 56.68 71.8919C56.456 73.3759 56.256 74.8639 56.14 76.3359L56.1 76.8639C56.0889 76.9796 56.0889 77.0962 56.1 77.2119C56.1426 77.5352 56.204 77.8558 56.284 78.1719C56.46 78.8479 56.684 79.5519 56.928 80.2519C57.404 81.6599 57.968 83.0719 58.528 84.4799L57.296 85.1359C56.4328 83.8351 55.6513 82.4818 54.956 81.0839C54.5978 80.3654 54.2813 79.6268 54.008 78.8719C53.8579 78.4601 53.7389 78.0376 53.652 77.6079C53.5994 77.3445 53.5726 77.0765 53.572 76.8079V76.1959C53.612 74.6172 53.7254 73.0586 53.912 71.5199C54.088 69.9759 54.312 68.4559 54.612 66.9159L57.388 67.4439Z" fill="#FFB573"/>
<path d="M55.688 63.712C54.588 64.112 53.484 68.068 53.484 68.068L58.028 70.904C58.028 70.904 59.412 67.58 58.848 66.164C58.264 64.684 56.94 63.244 55.688 63.712Z" fill="#263238"/>
<path d="M79.48 140.528C79.7109 140.482 79.9195 140.359 80.072 140.18C80.1031 140.13 80.1219 140.072 80.1268 140.013C80.1316 139.954 80.1224 139.895 80.1 139.84C80.0871 139.806 80.0662 139.776 80.039 139.752C80.0118 139.729 79.9791 139.712 79.944 139.704C79.568 139.62 78.668 140.468 78.564 140.564C78.5564 140.575 78.5524 140.588 78.5524 140.602C78.5524 140.616 78.5564 140.629 78.564 140.64C78.5692 140.652 78.5782 140.662 78.5898 140.669C78.6014 140.675 78.6148 140.678 78.628 140.676C78.9161 140.655 79.2015 140.605 79.48 140.528V140.528ZM79.792 139.844C79.8328 139.835 79.8752 139.835 79.916 139.844C79.9299 139.847 79.9428 139.854 79.9533 139.864C79.9638 139.874 79.9716 139.886 79.976 139.9C79.9939 139.935 80.0032 139.973 80.0032 140.012C80.0032 140.051 79.9939 140.089 79.976 140.124C79.856 140.316 79.428 140.468 78.812 140.524C79.0975 140.243 79.429 140.013 79.792 139.844V139.844Z" fill="#764AF1"/>
<path d="M78.6281 140.676C78.6281 140.676 78.6481 140.676 78.6521 140.676C78.9281 140.444 79.3881 139.692 79.2521 139.404C79.2201 139.336 79.1441 139.264 78.9641 139.296C78.9 139.307 78.8389 139.331 78.7845 139.367C78.7302 139.403 78.6837 139.449 78.6481 139.504C78.4947 139.862 78.4597 140.26 78.5481 140.64C78.5498 140.651 78.5544 140.662 78.5614 140.671C78.5684 140.68 78.5776 140.687 78.5881 140.692L78.6281 140.676ZM78.9481 139.416H78.9881C79.1041 139.416 79.1241 139.44 79.1321 139.452C79.2161 139.624 78.9201 140.196 78.6561 140.484C78.5914 140.176 78.6264 139.855 78.7561 139.568C78.7993 139.495 78.8676 139.441 78.9481 139.416V139.416Z" fill="#764AF1"/>
<path d="M63.1119 53.6L63.5999 53.328C63.5999 53.328 63.4279 53.792 63.1119 53.6Z" fill="#263238"/>
<path d="M58.5121 79.644L58.2921 80.664C58.2561 80.744 58.3521 80.82 58.4841 80.812L70.0001 80.084C70.1001 80.084 70.1801 80.024 70.1841 79.96L70.2201 78.952C70.2201 78.884 70.1321 78.828 70.0201 78.836L58.6921 79.552C58.6568 79.5511 58.6218 79.5591 58.5904 79.5751C58.5589 79.5912 58.532 79.6149 58.5121 79.644V79.644Z" fill="#263238"/>
<path d="M60.116 80.8H59.812C59.752 80.8 59.704 80.776 59.704 80.736L59.764 79.428C59.764 79.388 59.816 79.356 59.876 79.352L60.18 79.332C60.24 79.332 60.288 79.356 60.288 79.396L60.228 80.704C60.224 80.8 60.176 80.8 60.116 80.8Z" fill="#764AF1"/>
<path d="M69.1481 80.2479H68.8481C68.7841 80.2479 68.7361 80.2199 68.7401 80.1839L68.8001 78.8719C68.8001 78.8359 68.8521 78.7999 68.9121 78.7959H69.2161C69.2761 78.7959 69.3241 78.8199 69.3241 78.8559L69.2641 80.1679C69.2601 80.2079 69.2001 80.2439 69.1481 80.2479Z" fill="#764AF1"/>
<path d="M64.632 80.532L64.328 80.552C64.268 80.552 64.22 80.528 64.22 80.488L64.284 79.18C64.284 79.14 64.336 79.104 64.396 79.1H64.7C64.76 79.1 64.808 79.124 64.804 79.16L64.744 80.472C64.744 80.492 64.692 80.528 64.632 80.532Z" fill="#764AF1"/>
<path d="M58.456 84.2119L60.724 86.1479L57.952 86.6039C57.952 86.6039 56.86 85.2119 57.32 84.1599L58.456 84.2119Z" fill="#FFB573"/>
<path d="M61.184 88.424L58.844 88.68L57.952 86.604L60.724 86.1479L61.184 88.424Z" fill="#FFB573"/>
<path d="M121.756 44.308C132.758 44.308 141.676 35.3895 141.676 24.388C141.676 13.3864 132.758 4.46796 121.756 4.46796C110.755 4.46796 101.836 13.3864 101.836 24.388C101.836 35.3895 110.755 44.308 121.756 44.308Z" fill="#764AF1"/>
<path d="M81.476 16.4719L81.212 16.1719C82.823 14.7355 84.9057 13.9411 87.064 13.9399V14.3399C85.0029 14.341 83.0141 15.0998 81.476 16.4719V16.4719Z" fill="#764AF1"/>
<path d="M79.2001 19.7959L78.8241 19.6559C79.06 19.0281 79.3673 18.4295 79.7401 17.8719L80.0721 18.0959C79.7187 18.6282 79.4262 19.1984 79.2001 19.7959V19.7959Z" fill="#764AF1"/>
<path d="M92.3034 27.9843C95.1964 25.0913 95.1964 20.4008 92.3034 17.5078C89.4104 14.6148 84.7199 14.6148 81.8269 17.5078C78.9339 20.4008 78.9339 25.0913 81.8269 27.9843C84.7199 30.8773 89.4104 30.8773 92.3034 27.9843Z" fill="#764AF1"/>
<path d="M72.168 42.1319C74.6776 42.1319 76.712 40.0975 76.712 37.5879C76.712 35.0784 74.6776 33.0439 72.168 33.0439C69.6584 33.0439 67.624 35.0784 67.624 37.5879C67.624 40.0975 69.6584 42.1319 72.168 42.1319Z" fill="#764AF1"/>
<path d="M152.256 28.092C154.246 28.092 155.86 26.4784 155.86 24.488C155.86 22.4975 154.246 20.884 152.256 20.884C150.266 20.884 148.652 22.4975 148.652 24.488C148.652 26.4784 150.266 28.092 152.256 28.092Z" fill="#764AF1"/>
<path d="M132.356 20.932C132.357 19.026 131.845 17.1549 130.872 15.5157C129.9 13.8765 128.503 12.5298 126.83 11.6175C125.156 10.7052 123.268 10.261 121.363 10.3317C119.458 10.4024 117.608 10.9853 116.007 12.0191C114.405 13.053 113.112 14.4994 112.264 16.2062C111.416 17.913 111.043 19.817 111.186 21.7176C111.328 23.6183 111.981 25.4453 113.074 27.0064C114.168 28.5674 115.662 29.8047 117.4 30.588V32.464H126.112V30.588C127.972 29.7507 129.551 28.394 130.658 26.6811C131.766 24.9682 132.356 22.9719 132.356 20.932V20.932Z" fill="white"/>
<path opacity="0.2" d="M125.36 37.5879H118.152L117.4 32.4639H126.112L125.36 37.5879Z" fill="black"/>
<path opacity="0.4" d="M123.536 38.44H119.976L119.608 37.588H123.904L123.536 38.44Z" fill="black"/>
<path d="M120.624 23.348C120.379 22.6374 119.967 21.9956 119.424 21.476C118.172 20.228 116.624 19.808 115.924 20.52C115.564 20.88 115.48 21.46 115.692 22.148C115.937 22.8574 116.349 23.4979 116.892 24.016C117.728 24.856 118.696 25.32 119.46 25.32C119.637 25.322 119.813 25.2922 119.98 25.232L120.688 32.488C120.694 32.5538 120.725 32.6149 120.773 32.6593C120.822 32.7038 120.886 32.7283 120.952 32.728H120.976C121.011 32.725 121.045 32.715 121.076 32.6986C121.108 32.6822 121.135 32.6598 121.158 32.6326C121.18 32.6054 121.197 32.574 121.207 32.5402C121.217 32.5064 121.22 32.471 121.216 32.436L120.476 24.872C120.623 24.6493 120.714 24.394 120.739 24.1284C120.765 23.8627 120.726 23.5948 120.624 23.348ZM117.268 23.64C116.791 23.1811 116.428 22.6167 116.208 21.992C116.128 21.8156 116.095 21.6211 116.113 21.4281C116.131 21.2351 116.2 21.0502 116.312 20.892C116.389 20.8244 116.478 20.7727 116.575 20.7397C116.672 20.7068 116.774 20.6933 116.876 20.7C117.448 20.7 118.28 21.072 119.06 21.852C119.539 22.3094 119.903 22.8743 120.12 23.5C120.201 23.6762 120.234 23.8708 120.216 24.064C120.198 24.2572 120.129 24.4421 120.016 24.6C119.6 25.032 118.4 24.748 117.268 23.64V23.64Z" fill="#764AF1"/>
<path d="M127.576 20.5199C127.212 20.1559 126.636 20.0719 125.948 20.2839C125.245 20.5406 124.607 20.9478 124.079 21.4771C123.55 22.0064 123.144 22.6449 122.888 23.3479C122.787 23.5946 122.747 23.8622 122.772 24.1277C122.797 24.3932 122.886 24.6486 123.032 24.8719L122.292 32.4359C122.285 32.5064 122.307 32.5767 122.352 32.6314C122.397 32.6862 122.462 32.7209 122.532 32.7279H122.556C122.622 32.7282 122.686 32.7037 122.735 32.6593C122.784 32.6148 122.814 32.5537 122.82 32.4879L123.528 25.2319C123.696 25.2926 123.874 25.3224 124.052 25.3199C124.812 25.3199 125.78 24.8559 126.616 24.0159C127.159 23.4978 127.571 22.8574 127.816 22.1479C128.02 21.4599 127.936 20.8799 127.576 20.5199ZM127.304 21.9919C127.086 22.6174 126.723 23.1822 126.244 23.6399C125.136 24.7479 123.928 25.0319 123.496 24.5999C123.383 24.4421 123.314 24.2571 123.296 24.0639C123.278 23.8708 123.311 23.6762 123.392 23.4999C123.611 22.875 123.974 22.3104 124.452 21.8519V21.8519C124.911 21.3726 125.477 21.0093 126.104 20.7919C126.279 20.7348 126.461 20.7038 126.644 20.6999C126.847 20.691 127.046 20.7597 127.2 20.8919C127.314 21.0507 127.384 21.2371 127.403 21.4318C127.421 21.6266 127.387 21.8227 127.304 21.9999V21.9919Z" fill="#764AF1"/>
</svg>
