<svg width="200" height="171" viewBox="0 0 200 171" fill="none" xmlns="http://www.w3.org/2000/svg">
<path d="M200 142.448H0V142.548H200V142.448Z" fill="#EBEBEB"/>
<path d="M169.424 146.644H148.196V146.744H169.424V146.644Z" fill="#F5F5F5"/>
<path d="M132.488 148.432H109.024V148.532H132.488V148.432Z" fill="#F5F5F5"/>
<path d="M144.044 148.432H136.368V148.532H144.044V148.432Z" fill="#F5F5F5"/>
<path d="M57.464 146.644H40.188V146.744H57.464V146.644Z" fill="#F5F5F5"/>
<path d="M37.9601 145.844H31.7841V145.944H37.9601V145.844Z" fill="#F5F5F5"/>
<path d="M74.268 148.332H52.588V148.432H74.268V148.332Z" fill="#F5F5F5"/>
<path d="M95.36 116.636H18.124C17.5185 116.635 16.9382 116.394 16.5101 115.966C16.082 115.538 15.841 114.957 15.84 114.352V5.77999C15.8463 5.17804 16.0896 4.60282 16.5171 4.17903C16.9446 3.75523 17.522 3.51701 18.124 3.51599H95.36C95.965 3.51705 96.5449 3.75815 96.9724 4.18637C97.3999 4.61459 97.64 5.19493 97.64 5.79999V5.79999V114.352C97.64 114.957 97.3999 115.537 96.9724 115.966C96.5449 116.394 95.965 116.635 95.36 116.636V116.636ZM18.124 3.59599C17.5451 3.59705 16.9902 3.82749 16.5808 4.23684C16.1715 4.64619 15.941 5.20108 15.94 5.77999V114.352C15.941 114.931 16.1715 115.486 16.5808 115.895C16.9902 116.304 17.5451 116.535 18.124 116.536H95.36C95.9385 116.535 96.493 116.304 96.9017 115.895C97.3104 115.485 97.54 114.931 97.54 114.352V5.77999C97.54 5.20145 97.3104 4.64655 96.9017 4.23708C96.493 3.82762 95.9385 3.59705 95.36 3.59599H18.124Z" fill="#EBEBEB"/>
<path d="M181.88 116.636H104.64C104.035 116.635 103.455 116.394 103.028 115.966C102.6 115.537 102.36 114.957 102.36 114.352V5.77999C102.365 5.1784 102.608 4.60318 103.035 4.17928C103.461 3.75538 104.038 3.51702 104.64 3.51599H181.88C182.482 3.51702 183.059 3.75538 183.485 4.17928C183.912 4.60318 184.155 5.1784 184.16 5.77999V114.352C184.16 114.957 183.92 115.537 183.492 115.966C183.065 116.394 182.485 116.635 181.88 116.636V116.636ZM104.64 3.59599C104.061 3.59705 103.507 3.82762 103.098 4.23708C102.69 4.64655 102.46 5.20145 102.46 5.77999V114.352C102.46 114.931 102.69 115.485 103.098 115.895C103.507 116.304 104.061 116.535 104.64 116.536H181.88C182.459 116.535 183.015 116.305 183.425 115.895C183.835 115.486 184.066 114.931 184.068 114.352V5.77999C184.066 5.20072 183.835 4.64583 183.425 4.23659C183.015 3.82736 182.459 3.59704 181.88 3.59599H104.64Z" fill="#EBEBEB"/>
<path d="M31.376 66.4961H28.508L27.712 65.4561H32.168L31.376 66.4961Z" fill="#F0F0F0"/>
<path d="M35.78 53.744C35.7773 54.5652 35.6014 55.3766 35.2636 56.1252C34.9259 56.8737 34.4339 57.5426 33.82 58.088C33.409 58.4437 33.0781 58.8826 32.8492 59.3756C32.6203 59.8686 32.4986 60.4045 32.492 60.948V61.392H27.392V60.948C27.3854 60.4055 27.2639 59.8705 27.0357 59.3783C26.8075 58.886 26.4777 58.4476 26.068 58.092C25.1617 57.2891 24.5277 56.2242 24.2536 55.0449C23.9795 53.8656 24.079 52.6303 24.5382 51.51C24.9975 50.3898 25.7938 49.4401 26.8168 48.7926C27.8399 48.145 29.039 47.8317 30.248 47.896C31.7405 47.9854 33.143 48.6397 34.1705 49.7259C35.1981 50.8122 35.7735 52.2488 35.78 53.744V53.744Z" fill="#F0F0F0"/>
<path d="M27.8869 55.324L27.542 55.3944L28.7679 61.3985L29.1128 61.3281L27.8869 55.324Z" fill="white"/>
<path d="M31.9978 55.3278L30.7771 61.333L31.122 61.4031L32.3427 55.3979L31.9978 55.3278Z" fill="white"/>
<path d="M30.648 57.972L29.944 56.692L29.232 57.972L27.908 56.444L28.172 56.216L29.168 57.36L29.944 55.964L30.716 57.36L31.712 56.216L31.976 56.444L30.648 57.972Z" fill="white"/>
<path d="M32.492 61.364V65.428L27.392 65.456V61.392L32.492 61.364Z" fill="#F0F0F0"/>
<path d="M32.4892 65.2498L27.3933 65.28L27.3954 65.632L32.4913 65.6018L32.4892 65.2498Z" fill="white"/>
<path d="M32.4891 61.1897L27.3932 61.22L27.3953 61.572L32.4912 61.5417L32.4891 61.1897Z" fill="white"/>
<path d="M153.312 159.32H132.56L139.232 165.376H160.636L153.312 159.32Z" fill="#EBEBEB"/>
<path d="M129.792 168.488L114.392 160.26L127.232 155.548L142.148 162.908L129.792 168.488Z" fill="white"/>
<path d="M117.188 157.448H135.704L130.104 164.368H109.58L117.188 157.448Z" fill="#E0E0E0"/>
<path d="M167.936 25.276C172.255 25.276 175.756 21.7749 175.756 17.456C175.756 13.1371 172.255 9.63599 167.936 9.63599C163.617 9.63599 160.116 13.1371 160.116 17.456C160.116 21.7749 163.617 25.276 167.936 25.276Z" fill="#F0F0F0"/>
<path d="M167.956 25.452C165.834 25.452 163.799 24.6092 162.299 23.1089C160.799 21.6086 159.956 19.5738 159.956 17.452C159.956 15.3303 160.799 13.2955 162.299 11.7952C163.799 10.2949 165.834 9.45203 167.956 9.45203V9.80403C165.929 9.80403 163.984 10.6094 162.551 12.0429C161.117 13.4764 160.312 15.4207 160.312 17.448C160.312 19.4753 161.117 21.4196 162.551 22.8531C163.984 24.2867 165.929 25.092 167.956 25.092V25.452Z" fill="white"/>
<path d="M167.956 25.452V25.1C168.96 25.1 169.954 24.9022 170.881 24.5181C171.809 24.134 172.651 23.5709 173.361 22.8611C174.071 22.1513 174.634 21.3086 175.018 20.3812C175.402 19.4538 175.6 18.4598 175.6 17.456C175.6 16.4521 175.402 15.4581 175.018 14.5307C174.634 13.6033 174.071 12.7607 173.361 12.0508C172.651 11.341 171.809 10.778 170.881 10.3938C169.954 10.0097 168.96 9.81196 167.956 9.81196V9.45996C170.078 9.45996 172.112 10.3028 173.613 11.8031C175.113 13.3034 175.956 15.3382 175.956 17.46C175.956 19.5817 175.113 21.6165 173.613 23.1168C172.112 24.6171 170.078 25.46 167.956 25.46V25.452Z" fill="white"/>
<path d="M172.044 17.456H171.692C171.692 14.864 170.376 11.4 167.86 9.78398L168.052 9.48798C170.672 11.172 172.044 14.768 172.044 17.456Z" fill="white"/>
<path d="M168.052 25.184L167.86 24.888C170.376 23.288 171.692 19.808 171.692 17.22H172.044C172.044 19.904 170.672 23.504 168.052 25.184Z" fill="white"/>
<path d="M164.224 17.456H163.872C163.872 14.768 165.24 11.168 167.872 9.48798L168.064 9.78398C165.54 11.396 164.224 14.864 164.224 17.456Z" fill="white"/>
<path d="M167.86 25.1839C165.24 23.5039 163.86 19.9039 163.86 17.2159H164.212C164.212 19.8079 165.528 23.2759 168.04 24.8879L167.86 25.1839Z" fill="white"/>
<path d="M168.132 9.63599H167.78V25.276H168.132V9.63599Z" fill="white"/>
<path d="M174.572 13.112H161.336V13.464H174.572V13.112Z" fill="white"/>
<path d="M175.772 17.412H160.14V17.764H175.772V17.412Z" fill="white"/>
<path d="M174.4 21.708H161.512V22.06H174.4V21.708Z" fill="white"/>
<path d="M146.188 60.348C146.19 55.8029 145.516 51.2828 144.188 46.936L155.952 36.588L148.56 23.756L133.716 28.78C127.476 22.1037 119.392 17.4326 110.492 15.36L107.408 0H92.608L89.536 15.36C80.6321 17.4324 72.5447 22.1034 66.3 28.78L51.44 23.756L44.032 36.588L55.796 46.936C53.1506 55.6844 53.1506 65.0196 55.796 73.768L44.032 84.104L51.44 96.936L66.284 91.916C72.5333 98.5893 80.6184 103.263 89.52 105.348L92.592 120.708H107.392L110.476 105.348C119.374 103.263 127.455 98.5889 133.7 91.916L148.544 96.936L155.952 84.104L144.188 73.768C145.516 69.4185 146.19 64.8957 146.188 60.348V60.348ZM100 85.28C95.2532 85.28 90.6131 83.8724 86.6663 81.2353C82.7195 78.5981 79.6434 74.8498 77.8269 70.4644C76.0104 66.079 75.5351 61.2534 76.4611 56.5978C77.3872 51.9423 79.673 47.6659 83.0294 44.3094C86.3859 40.953 90.6623 38.6672 95.3178 37.7412C99.9734 36.8151 104.799 37.2904 109.184 39.1069C113.57 40.9234 117.318 43.9995 119.955 47.9463C122.592 51.8931 124 56.5332 124 61.28C124 67.6452 121.471 73.7497 116.971 78.2506C112.47 82.7514 106.365 85.28 100 85.28V85.28Z" fill="#E0E0E0"/>
<path d="M170.08 115.784C168.848 115.108 170.36 109.428 168.696 106.944C167.496 105.128 165.268 104.024 164.456 101.992C164.128 101.134 164.051 100.2 164.234 99.2993C164.418 98.3989 164.854 97.5695 165.492 96.908C165.601 96.7786 165.737 96.676 165.892 96.608C166.074 96.5572 166.265 96.5463 166.452 96.576C167.532 96.684 168.652 96.864 169.552 97.476C170.656 98.232 171.268 99.552 171.464 100.876C171.66 102.2 171.384 116.5 170.08 115.784Z" fill="#F0F0F0"/>
<path d="M170.656 107.792C170.656 107.648 170.656 107.508 170.636 107.364C170.605 107.592 170.591 107.822 170.592 108.052L170.656 107.792Z" fill="#F0F0F0"/>
<path d="M174.568 98.34C174.504 98.2511 174.421 98.1784 174.324 98.128C174.213 98.0864 174.094 98.07 173.976 98.08C173.286 98.0426 172.598 98.1802 171.976 98.48C171.617 98.7054 171.309 99.0021 171.069 99.3516C170.83 99.7011 170.665 100.096 170.584 100.512C170.425 101.342 170.382 102.19 170.456 103.032L170.636 107.372C170.774 106.29 171.25 105.279 171.996 104.484C172.944 103.48 174.312 102.836 174.936 101.604C175.192 101.081 175.294 100.497 175.228 99.9183C175.163 99.34 174.934 98.7923 174.568 98.34V98.34Z" fill="#F0F0F0"/>
<path d="M172.528 124.556C172.528 124.484 172.528 124.416 172.528 124.348C172.204 119.928 171.38 111.756 167.424 107.82C166.624 107 165.224 106.412 164.04 106.804C163.614 106.957 163.23 107.21 162.92 107.54C161.624 108.844 161.244 110.6 161.296 112.272C161.376 114.35 162.018 116.368 163.152 118.112C164.752 120.58 167.212 122.584 169.232 124.832C171.252 127.08 169.072 133.452 172.324 132.556C172.608 132.476 172.536 125.5 172.528 124.556Z" fill="#F0F0F0"/>
<path d="M170.512 127.704C170.6 123.659 170.687 119.616 170.772 115.576C170.852 111.832 171.088 107.744 174.136 104.876C174.912 104.148 176.088 103.484 177.192 103.788C177.59 103.908 177.954 104.122 178.252 104.412C179.496 105.544 179.928 107.136 179.96 108.668C179.984 110.577 179.49 112.457 178.532 114.108C177.2 116.44 175.024 118.392 173.276 120.548C171.528 122.704 173.832 128.424 170.8 127.768L170.512 127.704Z" fill="#F0F0F0"/>
<path d="M175.524 143.008C172.706 143.9 169.682 143.9 166.864 143.008L163.476 127.572H178.912L175.524 143.008Z" fill="#F5F5F5"/>
<path d="M178.212 130.224H164.136V130.544H178.212V130.224Z" fill="white"/>
<path d="M100 170.112C142.833 170.112 177.556 168.085 177.556 165.584C177.556 163.083 142.833 161.056 100 161.056C57.167 161.056 22.444 163.083 22.444 165.584C22.444 168.085 57.167 170.112 100 170.112Z" fill="#FAFAFA"/>
<path d="M152.496 107.88H129.504C128.999 107.889 128.497 107.79 128.033 107.59C127.569 107.389 127.153 107.093 126.812 106.719C126.472 106.346 126.214 105.904 126.058 105.423C125.901 104.943 125.849 104.434 125.904 103.932L130.28 53.896C130.39 52.8267 130.888 51.8349 131.679 51.1075C132.471 50.3802 133.501 49.9677 134.576 49.948H157.568C158.073 49.9393 158.575 50.0383 159.039 50.2384C159.503 50.4386 159.919 50.7353 160.26 51.1088C160.6 51.4822 160.857 51.924 161.014 52.4045C161.171 52.8851 161.223 53.3935 161.168 53.896L156.8 103.932C156.69 105.003 156.191 105.996 155.397 106.723C154.604 107.451 153.572 107.862 152.496 107.88Z" fill="#764AF1"/>
<path opacity="0.1" d="M152.496 107.88H129.504C128.999 107.889 128.497 107.79 128.033 107.59C127.569 107.389 127.153 107.093 126.812 106.719C126.472 106.346 126.214 105.904 126.058 105.423C125.901 104.943 125.849 104.434 125.904 103.932L130.28 53.896C130.39 52.8267 130.888 51.8349 131.679 51.1075C132.471 50.3802 133.501 49.9677 134.576 49.948H157.568C158.073 49.9393 158.575 50.0383 159.039 50.2384C159.503 50.4386 159.919 50.7353 160.26 51.1088C160.6 51.4822 160.857 51.924 161.014 52.4045C161.171 52.8851 161.223 53.3935 161.168 53.896L156.8 103.932C156.69 105.003 156.191 105.996 155.397 106.723C154.604 107.451 153.572 107.862 152.496 107.88Z" fill="black"/>
<path opacity="0.8" d="M143.136 104.192C143.084 104.7 142.848 105.171 142.472 105.517C142.096 105.863 141.607 106.059 141.096 106.068C140.855 106.073 140.617 106.026 140.395 105.931C140.174 105.837 139.976 105.696 139.813 105.518C139.651 105.341 139.528 105.131 139.454 104.902C139.379 104.673 139.354 104.431 139.38 104.192C139.432 103.683 139.668 103.21 140.045 102.864C140.422 102.517 140.912 102.321 141.424 102.312C141.665 102.308 141.903 102.355 142.124 102.45C142.345 102.545 142.543 102.686 142.705 102.864C142.867 103.042 142.99 103.253 143.064 103.482C143.138 103.711 143.163 103.953 143.136 104.192V104.192Z" stroke="white" stroke-width="0.5" stroke-miterlimit="10"/>
<path opacity="0.8" d="M149.416 54.4239H141.972C141.882 54.4256 141.793 54.4081 141.711 54.3727C141.628 54.3373 141.554 54.2847 141.494 54.2185C141.433 54.1523 141.388 54.0739 141.36 53.9886C141.332 53.9034 141.322 53.8131 141.332 53.7239V53.5519C141.351 53.3623 141.438 53.1861 141.578 53.057C141.719 52.9279 141.901 52.8549 142.092 52.8519H149.536C149.626 52.8503 149.715 52.8677 149.797 52.9031C149.88 52.9386 149.953 52.9911 150.014 53.0573C150.075 53.1236 150.12 53.2019 150.148 53.2872C150.176 53.3725 150.186 53.4627 150.176 53.5519V53.7239C150.157 53.9135 150.07 54.0897 149.929 54.2188C149.789 54.3479 149.606 54.4209 149.416 54.4239V54.4239Z" stroke="white" stroke-width="0.5" stroke-miterlimit="10"/>
<path opacity="0.4" d="M154.808 99.5439H128.324L132.06 56.8599H158.54L154.808 99.5439Z" fill="white"/>
<path opacity="0.1" d="M147.932 50.1279L135.108 107.88H142.816L155.508 50.1279H147.932Z" fill="white"/>
<path opacity="0.1" d="M141.936 50.1279L129.112 107.88H132.996L145.692 50.1279H141.936Z" fill="white"/>
<path d="M136.744 97.2359H130.196L130.592 92.7119H137.136L136.744 97.2359Z" fill="#764AF1"/>
<path d="M145.048 97.2359H138.5L138.896 92.7119H145.444L145.048 97.2359Z" fill="#764AF1"/>
<path d="M153.356 97.2359H146.808L147.204 92.7119H153.752L153.356 97.2359Z" fill="#764AF1"/>
<path d="M154.368 85.6919H131.204L131.168 86.0919H154.332L154.368 85.6919Z" fill="#764AF1"/>
<path opacity="0.2" d="M154.368 85.6919H131.204L131.168 86.0919H154.332L154.368 85.6919Z" fill="black"/>
<path d="M154.5 84.1639H152.364L152.552 82.0239H154.688L154.5 84.1639Z" fill="#764AF1"/>
<path d="M143.996 84.1639H141.86L142.048 82.0239H144.184L143.996 84.1639Z" fill="#764AF1"/>
<path d="M133.492 84.1639H131.356L131.544 82.0239H133.68L133.492 84.1639Z" fill="#764AF1"/>
<path d="M154 89.876H147.924L148.052 88.408H154.128L154 89.876Z" fill="#764AF1"/>
<path d="M146.8 79.6999H131.756L131.888 78.2119H146.932L146.8 79.6999Z" fill="#764AF1"/>
<path opacity="0.2" d="M146.8 79.6999H131.756L131.888 78.2119H146.932L146.8 79.6999Z" fill="white"/>
<path d="M140.424 59.9519H133.484L133.624 58.3679H140.56L140.424 59.9519Z" fill="#764AF1"/>
<path opacity="0.2" d="M140.424 59.9519H133.484L133.624 58.3679H140.56L140.424 59.9519Z" fill="white"/>
<path d="M132.616 90.9159C132.38 90.9201 132.146 90.8741 131.93 90.7809C131.713 90.6877 131.519 90.5495 131.36 90.3754C131.201 90.2013 131.081 89.9954 131.008 89.7713C130.935 89.5473 130.91 89.3102 130.936 89.0759C130.987 88.5777 131.218 88.1154 131.587 87.7763C131.955 87.4373 132.435 87.245 132.936 87.2359C133.172 87.2316 133.405 87.2776 133.622 87.3708C133.838 87.464 134.033 87.6022 134.192 87.7763C134.35 87.9504 134.471 88.1563 134.544 88.3804C134.617 88.6045 134.641 88.8415 134.616 89.0759V89.0759C134.565 89.574 134.334 90.0363 133.965 90.3754C133.596 90.7144 133.117 90.9067 132.616 90.9159V90.9159Z" fill="#764AF1"/>
<path d="M155.092 77.012H131.98L133.376 61.048H156.492L155.092 77.012Z" fill="#764AF1"/>
<path opacity="0.3" d="M130.16 55.2239H138.584C139.566 55.2101 140.508 54.8357 141.232 54.1718C141.956 53.5079 142.41 52.601 142.508 51.6239L142.652 49.9679H134.688C133.583 49.9874 132.523 50.4107 131.709 51.1579C130.895 51.9052 130.382 52.9246 130.268 54.0239L130.16 55.2239Z" fill="black"/>
<path d="M161.505 62.6235L161.365 64.5504L161.764 64.5793L161.904 62.6523L161.505 62.6235Z" fill="#764AF1"/>
<path d="M162.032 55.3268L161.628 60.9161L162.027 60.945L162.431 55.3556L162.032 55.3268Z" fill="#764AF1"/>
<path d="M137.776 49.984H69.9281L73.6881 6.97205H141.54L137.776 49.984Z" fill="#764AF1"/>
<path d="M136.84 53.348H70.0001C69.5604 53.3564 69.124 53.2709 68.72 53.0972C68.316 52.9235 67.9537 52.6656 67.6573 52.3408C67.3609 52.016 67.1372 51.6317 67.0011 51.2136C66.865 50.7954 66.8196 50.3531 66.8681 49.916L70.6081 7.17201C70.7019 6.24182 71.1336 5.37833 71.8214 4.74509C72.5092 4.11185 73.4053 3.75282 74.3401 3.736H141.2C141.64 3.72887 142.076 3.81535 142.48 3.9897C142.883 4.16405 143.245 4.42229 143.541 4.74726C143.838 5.07223 144.061 5.4565 144.198 5.87456C144.334 6.29261 144.38 6.73488 144.332 7.17201L140.592 49.916C140.497 50.8488 140.062 51.7141 139.37 52.347C138.678 52.9799 137.778 53.3362 136.84 53.348V53.348Z" fill="#764AF1"/>
<path d="M137.776 49.984H69.9281L73.6881 6.97205H141.54L137.776 49.984Z" fill="#764AF1"/>
<path opacity="0.4" d="M137.776 49.984H69.9281L73.6881 6.97205H141.54L137.776 49.984Z" fill="white"/>
<path d="M133.376 19.452H120.92L121.532 12.444H133.992L133.376 19.452Z" fill="#764AF1"/>
<path d="M132.168 33.2761H119.708L120.324 26.2681H132.78L132.168 33.2761Z" fill="#764AF1"/>
<path d="M130.956 47.096H118.5L119.112 40.088H131.572L130.956 47.096Z" fill="#764AF1"/>
<path d="M77.4601 41.728L77.4241 42.128H113.38L113.416 41.728H77.4601Z" fill="#764AF1"/>
<path opacity="0.2" d="M113.416 41.728H77.4601L77.4241 42.128H113.38L113.416 41.728Z" fill="black"/>
<path opacity="0.1" d="M82.1202 3.76001L68.8682 53.328H73.3242L86.4322 3.76001H82.1202Z" fill="white"/>
<path opacity="0.1" d="M89.0002 3.76001L75.7482 53.328H84.5922L97.6962 3.76001H89.0002Z" fill="white"/>
<path d="M113.816 37.1561H77.9042L80.0762 12.3521H115.984L113.816 37.1561Z" fill="#764AF1"/>
<path d="M78.8921 46.936C78.6564 46.9402 78.4225 46.8942 78.206 46.801C77.9895 46.7079 77.7953 46.5696 77.6364 46.3956C77.4774 46.2215 77.3574 46.0156 77.2842 45.7915C77.2111 45.5674 77.1865 45.3303 77.2121 45.096V45.096C77.2629 44.5978 77.4944 44.1355 77.8629 43.7965C78.2314 43.4574 78.7114 43.2652 79.2121 43.256C79.4478 43.2518 79.6816 43.2978 79.8982 43.391C80.1147 43.4841 80.3089 43.6224 80.4678 43.7964C80.6267 43.9705 80.7468 44.1764 80.8199 44.4005C80.8931 44.6246 80.9177 44.8617 80.8921 45.096V45.096C80.8413 45.5942 80.6098 46.0565 80.2413 46.3955C79.8727 46.7346 79.3928 46.9268 78.8921 46.936V46.936Z" fill="#764AF1"/>
<path d="M95.5921 40.2041H77.6401L77.7761 38.6201H95.7321L95.5921 40.2041Z" fill="#764AF1"/>
<path opacity="0.2" d="M95.5921 40.2041H77.6401L77.7761 38.6201H95.7321L95.5921 40.2041Z" fill="white"/>
<path d="M113.028 45.888H106.092L106.228 44.3H113.168L113.028 45.888Z" fill="#764AF1"/>
<path d="M113.548 40.2041H111.964L112.1 38.6201H113.688L113.548 40.2041Z" fill="#764AF1"/>
<path d="M110.86 40.2041H109.276L109.416 38.6201H111L110.86 40.2041Z" fill="#764AF1"/>
<path d="M108.176 40.2041H106.588L106.728 38.6201H108.312L108.176 40.2041Z" fill="#764AF1"/>
<path opacity="0.5" d="M116.12 10.828H89.1881L89.3041 9.46002H116.24L116.12 10.828Z" fill="white"/>
<path d="M87.0601 10.9361H80.1241L80.2601 9.35205H87.2001L87.0601 10.9361Z" fill="#764AF1"/>
<path opacity="0.2" d="M87.0601 10.9361H80.1241L80.2601 9.35205H87.2001L87.0601 10.9361Z" fill="white"/>
<path d="M133.955 2.41801L133.952 2.81799L135.884 2.83418L135.887 2.43419L133.955 2.41801Z" fill="#764AF1"/>
<path d="M126.852 2.38558L126.848 2.78558L132.452 2.84162L132.456 2.44162L126.852 2.38558Z" fill="#764AF1"/>
<path d="M112.424 61.652H114.588L110.604 105.724H108.552L112.424 61.652Z" fill="#263238"/>
<path opacity="0.2" d="M112.424 61.652H114.588L110.604 105.724H108.552L112.424 61.652Z" fill="white"/>
<path d="M112.21 82.8351L111.813 82.8875L114.628 104.214L115.025 104.162L112.21 82.8351Z" fill="#263238"/>
<path d="M109.576 103.352H42.8999L46.5479 61.652H113.224L109.576 103.352Z" fill="#764AF1"/>
<path opacity="0.7" d="M109.576 103.352H42.8999L46.5479 61.652H113.224L109.576 103.352Z" fill="white"/>
<path d="M57.5079 108.352H60.2679L64.7799 166.912H62.7839L57.5079 108.352Z" fill="#263238"/>
<path d="M123.824 107.952H126.584L131.096 166.912H129.1L123.824 107.952Z" fill="#263238"/>
<path d="M125.764 107.952H43.4519V117.236H125.764V107.952Z" fill="#764AF1"/>
<path opacity="0.3" d="M111.308 108.024L110.984 117.228L125.764 117.236V107.952L111.308 108.024Z" fill="black"/>
<path opacity="0.2" d="M110.056 108.02H43.464V117.304H110.056V108.02Z" fill="black"/>
<path d="M45.272 107.952H42.512L42.428 166.912H44.42L45.272 107.952Z" fill="#263238"/>
<path d="M111.588 107.952H108.828L108.748 166.912H110.74L111.588 107.952Z" fill="#263238"/>
<path opacity="0.2" d="M42.512 107.952L42.428 166.912H44.42L45.272 107.952H42.512Z" fill="white"/>
<path opacity="0.1" d="M111.588 107.952H108.828L108.748 166.912H110.74L111.588 107.952Z" fill="white"/>
<path d="M40.2159 105.724C40.2159 104.472 40.6799 103.46 41.2559 103.456H127.84C128.416 103.456 128.88 104.472 128.88 105.724C128.88 106.972 128.416 107.984 127.84 107.988H41.2559C40.6799 107.984 40.2159 106.972 40.2159 105.724Z" fill="#263238"/>
<path opacity="0.1" d="M40.2159 105.724C40.2159 104.472 40.6799 103.46 41.2559 103.456H127.84C128.416 103.456 128.88 104.472 128.88 105.724C128.88 106.972 128.416 107.984 127.84 107.988H41.2559C40.6799 107.984 40.2159 106.972 40.2159 105.724Z" fill="white"/>
<path d="M106.532 105.724C106.532 104.472 107 103.46 107.572 103.456H127.84C128.416 103.456 128.88 104.472 128.88 105.724C128.88 106.972 128.416 107.984 127.84 107.988H107.572C107 107.984 106.532 106.972 106.532 105.724Z" fill="#263238"/>
<path d="M105.328 97.98H85.1479L87.9919 65.448H108.176L105.328 97.98Z" fill="white"/>
<path d="M105.512 98.1801H84.932L87.812 65.248H108.4L105.512 98.1801ZM85.364 97.7801H105.148L107.948 65.648H88.176L85.364 97.7801Z" fill="white"/>
<path d="M91.7479 96.528H86.8319L87.1319 93.068H92.0479L91.7479 96.528ZM87.0479 96.328H91.5639L91.8319 93.268H87.3159L87.0479 96.328Z" fill="#E0E0E0"/>
<path d="M97.7319 96.528H92.7999L93.1039 93.068H98.0199L97.7319 96.528ZM93.0319 96.328H97.5479L97.8159 93.268H93.2999L93.0319 96.328Z" fill="#E0E0E0"/>
<path d="M103.712 96.528H98.7999L99.1039 93.068H104L103.712 96.528ZM99.0159 96.328H103.528L103.796 93.268H99.2839L99.0159 96.328Z" fill="#E0E0E0"/>
<path d="M104.34 88.156H87.656V88.356H104.34V88.156Z" fill="#E0E0E0"/>
<path d="M99.028 83.5H88L88.108 82.228H99.144L99.028 83.5ZM88.228 83.3H98.864L98.94 82.428H88.284L88.228 83.3Z" fill="#E0E0E0"/>
<path d="M104.144 91.624H99.564L99.676 90.364H104.252L104.144 91.624ZM99.784 91.424H103.96L104.032 90.564H99.86L99.784 91.424Z" fill="#E0E0E0"/>
<path d="M104.572 86.7119H102.832L102.984 84.9719H104.724L104.572 86.7119ZM103.052 86.5119H104.4L104.516 85.1719H103.18L103.052 86.5119Z" fill="#E0E0E0"/>
<path d="M97.0079 86.7119H95.2679L95.4199 84.9719H97.1599L97.0079 86.7119ZM95.4839 86.5119H96.8239L96.9399 85.1719H95.5999L95.4839 86.5119Z" fill="#E0E0E0"/>
<path d="M89.4439 86.7119H87.7039L87.8559 84.9719H89.5999L89.4439 86.7119ZM87.9199 86.5119H89.2599L89.3759 85.1719H88.0359L87.9199 86.5119Z" fill="#E0E0E0"/>
<path d="M94.504 68.476H89.304L89.424 67.132H94.624L94.504 68.476ZM89.524 68.276H94.324L94.404 67.332H89.6L89.524 68.276Z" fill="#E0E0E0"/>
<path d="M88.9039 91.976H88.4639C88.3099 91.9778 88.1573 91.9472 88.016 91.8863C87.8746 91.8253 87.7476 91.7354 87.6431 91.6223C87.5387 91.5092 87.4592 91.3754 87.4097 91.2297C87.3602 91.0839 87.3419 90.9293 87.3559 90.776L87.3959 90.34C87.4281 90.0155 87.5783 89.7142 87.8179 89.493C88.0575 89.2718 88.3699 89.1463 88.6959 89.14H89.1319C89.2862 89.1377 89.4392 89.1679 89.5811 89.2285C89.7229 89.2892 89.8504 89.379 89.9553 89.4922C90.0602 89.6054 90.14 89.7394 90.1898 89.8854C90.2395 90.0315 90.2579 90.1864 90.2439 90.34L90.2039 90.776C90.1716 91.1005 90.0215 91.4018 89.7819 91.623C89.5423 91.8442 89.2299 91.9698 88.9039 91.976V91.976ZM88.6959 89.324C88.4198 89.3303 88.1555 89.4368 87.9523 89.6238C87.7491 89.8108 87.621 90.0654 87.5919 90.34L87.5559 90.776C87.5417 90.903 87.5547 91.0316 87.594 91.1531C87.6333 91.2747 87.6981 91.3865 87.784 91.4811C87.8699 91.5757 87.9749 91.651 88.0922 91.7018C88.2094 91.7526 88.3361 91.7779 88.4639 91.776H88.9039C89.1799 91.7698 89.4443 91.6632 89.6475 91.4762C89.8507 91.2892 89.9788 91.0346 90.0079 90.76L90.0439 90.324C90.057 90.1963 90.0431 90.0673 90.0031 89.9454C89.9631 89.8234 89.898 89.7112 89.8119 89.616C89.7254 89.5223 89.6201 89.4479 89.503 89.3976C89.3858 89.3473 89.2594 89.3222 89.1319 89.324H88.6959Z" fill="#E0E0E0"/>
<path d="M105.036 81.1599H88.1879V81.0519L89.1999 69.4519H106.048V69.5599L105.036 81.1599ZM88.4039 80.9599H104.852L105.84 69.6639H89.3919L88.4039 80.9599Z" fill="#E0E0E0"/>
<path d="M89.3621 69.4834L89.2437 69.6445L104.884 81.1421L105.003 80.981L89.3621 69.4834Z" fill="#E0E0E0"/>
<path d="M97.6756 74.8376L88.243 80.9796L88.3522 81.1472L97.7848 75.0052L97.6756 74.8376Z" fill="#E0E0E0"/>
<path d="M91.5959 96.508L87.1639 93.248L87.2839 93.088L91.7159 96.348L91.5959 96.508Z" fill="#E0E0E0"/>
<path d="M91.8901 93.0826L86.8889 96.3391L86.998 96.5067L91.9993 93.2502L91.8901 93.0826Z" fill="#E0E0E0"/>
<path d="M97.58 96.508L93.1479 93.248L93.268 93.088L97.7 96.348L97.58 96.508Z" fill="#E0E0E0"/>
<path d="M97.8722 93.08L92.8716 96.3374L92.9807 96.505L97.9814 93.2476L97.8722 93.08Z" fill="#E0E0E0"/>
<path d="M103.56 96.508L99.132 93.248L99.252 93.088L103.68 96.348L103.56 96.508Z" fill="#E0E0E0"/>
<path d="M103.854 93.082L98.8535 96.3394L98.9627 96.5069L103.963 93.2495L103.854 93.082Z" fill="#E0E0E0"/>
<path d="M82.6159 90.948H45.3159L47.5399 65.528H84.8399L82.6159 90.948Z" fill="white"/>
<path d="M82.8 91.148H45.1L47.36 65.328H85.056L82.8 91.148ZM45.536 90.748H82.432L84.62 65.728H47.724L45.536 90.748Z" fill="white"/>
<path d="M69.904 86.4241H49.656V86.6241H69.904V86.4241Z" fill="#E0E0E0"/>
<path d="M70.336 82.732H49.936V82.624L51.164 68.568H71.588V68.676L70.336 82.732ZM50.132 82.532H70.152L71.352 68.768H51.352L50.132 82.532Z" fill="#E0E0E0"/>
<path d="M50.748 89.44H50.196C50.0853 89.4413 49.9755 89.4195 49.8736 89.3761C49.7716 89.3328 49.6799 89.2687 49.604 89.188C49.5296 89.1049 49.4733 89.0072 49.4389 88.9011C49.4044 88.7951 49.3926 88.6829 49.404 88.572L49.452 88.02C49.4763 87.7893 49.584 87.5754 49.7549 87.4185C49.9258 87.2617 50.1481 87.1726 50.38 87.168H50.928C51.039 87.1672 51.149 87.1896 51.2509 87.2337C51.3529 87.2778 51.4445 87.3426 51.52 87.424C51.5946 87.5063 51.6513 87.6031 51.6864 87.7085C51.7215 87.8139 51.7343 87.9254 51.724 88.036L51.676 88.588C51.6509 88.8184 51.5429 89.0317 51.3722 89.1885C51.2015 89.3452 50.9797 89.4346 50.748 89.44V89.44ZM50.38 87.368C50.1979 87.371 50.0233 87.4406 49.8891 87.5637C49.7549 87.6868 49.6706 87.8549 49.652 88.036L49.604 88.588C49.5936 88.671 49.6012 88.7553 49.6265 88.835C49.6517 88.9148 49.6938 88.9882 49.7501 89.0501C49.8063 89.1121 49.8753 89.1611 49.9523 89.1939C50.0292 89.2266 50.1124 89.2424 50.196 89.24H50.748C50.9298 89.2362 51.104 89.1662 51.238 89.0433C51.372 88.9203 51.4566 88.7528 51.476 88.572L51.524 88.02C51.5331 87.9369 51.5244 87.8528 51.4985 87.7733C51.4725 87.6939 51.4299 87.6209 51.3735 87.5592C51.3171 87.4975 51.2482 87.4485 51.1714 87.4155C51.0946 87.3826 51.0116 87.3664 50.928 87.368H50.38Z" fill="#E0E0E0"/>
<path d="M60 85.252H49.692L49.788 84.156H60.1L60 85.252ZM49.908 85.052H59.816L59.88 84.356H49.972L49.908 85.052Z" fill="#E0E0E0"/>
<path d="M69.7879 88.852H65.6799L65.7759 87.756H69.8839L69.7879 88.852ZM65.8999 88.652H69.5999L69.6639 87.956H65.9599L65.8999 88.652Z" fill="#E0E0E0"/>
<path d="M70.1159 85.252H69.0239L69.1159 84.156H70.2119L70.1159 85.252ZM69.2399 85.052H69.9319L69.9919 84.356H69.2999L69.2399 85.052Z" fill="#E0E0E0"/>
<path d="M68.6039 85.252H67.5079L67.6039 84.156H68.6999L68.6039 85.252ZM67.7279 85.052H68.4199L68.4799 84.356H67.7879L67.7279 85.052Z" fill="#E0E0E0"/>
<path d="M67.0879 85.252H65.9999L66.0959 84.156H67.1999L67.0879 85.252ZM66.2159 85.052H66.9079L66.9679 84.356H66.2759L66.2159 85.052Z" fill="#E0E0E0"/>
<path d="M71.6679 67.508H56.2999L56.3839 66.536H71.7519L71.6679 67.508ZM56.5199 67.308H71.4839L71.5359 66.736H56.5679L56.5199 67.308Z" fill="#E0E0E0"/>
<path d="M55.3039 67.568H51.2L51.296 66.476H55.4L55.3039 67.568ZM51.4159 67.368H55.12L55.184 66.676H51.476L51.4159 67.368Z" fill="#E0E0E0"/>
<path d="M81.316 73.164H74.116L74.48 69.016H81.68L81.316 73.164ZM74.32 72.964H81.12L81.452 69.216H74.652L74.32 72.964Z" fill="#E0E0E0"/>
<path d="M80.6359 80.948H73.4359L73.7999 76.8H80.9999L80.6359 80.948ZM73.6359 80.748H80.4359L80.7639 77H73.9639L73.6359 80.748Z" fill="#E0E0E0"/>
<path d="M79.956 88.732H72.756L73.116 84.584H80.316L79.956 88.732ZM72.956 88.532H79.756L80.084 84.784H73.284L72.956 88.532Z" fill="#E0E0E0"/>
<path d="M81.5274 69.0207L74.1688 72.9713L74.2634 73.1475L81.622 69.1969L81.5274 69.0207Z" fill="#E0E0E0"/>
<path d="M81.176 73.148L74.504 69.204L74.604 69.032L81.276 72.976L81.176 73.148Z" fill="#E0E0E0"/>
<path d="M80.5233 76.8072L73.1736 80.7327L73.2676 80.9087L80.6173 76.9832L80.5233 76.8072Z" fill="#E0E0E0"/>
<path d="M73.9263 76.9448L73.8243 77.1168L80.4911 81.0703L80.5931 80.8983L73.9263 76.9448Z" fill="#E0E0E0"/>
<path d="M72.7319 88.824L73.1079 84.536L76.5319 86.56L80.1599 84.612L80.2559 84.792L76.7319 86.68L79.9319 88.564L79.8279 88.736L76.5439 86.788L72.7319 88.824ZM73.2799 84.868L72.9639 88.468L76.3239 86.668L73.2799 84.868Z" fill="#E0E0E0"/>
<path d="M71.4147 68.5815L49.9685 82.5461L50.0776 82.7137L71.5239 68.7491L71.4147 68.5815Z" fill="#E0E0E0"/>
<path d="M51.306 68.5842L51.1875 68.7454L70.1864 82.7117L70.3049 82.5505L51.306 68.5842Z" fill="#E0E0E0"/>
<path d="M73.0439 153.744L72.6039 163.492C72.6039 163.492 76.2039 164.608 76.5559 163.124C76.7839 162.212 77.4639 159.036 78.0759 156.56C78.3119 155.62 78.0759 154.716 77.5959 154.364C76.7999 153.78 75.4439 153.792 73.0439 153.744Z" fill="#FF8B7B"/>
<path d="M50.6719 153.244L46.9319 160.624C46.9319 160.624 49.0639 163.32 49.9559 162.224C51.1559 160.752 55.0719 155.952 55.0719 155.952C55.0719 155.952 56.4319 156.144 50.6719 153.244Z" fill="#FF8B7B"/>
<path opacity="0.2" d="M48.9039 156.728L53.0399 158.464L54.7039 156.42L49.9519 154.66L48.9039 156.728Z" fill="black"/>
<path opacity="0.2" d="M72.884 157.332L72.78 159.576H77.36L77.92 157.332H72.884Z" fill="black"/>
<path d="M49.1121 96.424L50.8881 98.5L53.0321 96.924C53.0321 96.924 52.3201 93.824 51.9921 94.044L49.1121 95.996V96.424Z" fill="#FF8B7B"/>
<path opacity="0.2" d="M49.1121 96.424L50.8881 98.5L53.0321 96.924C53.0321 96.924 52.3201 93.824 51.9921 94.044L49.1121 95.996V96.424Z" fill="black"/>
<path d="M50.82 69.668L42.984 76.732C42.4892 77.28 42.1775 77.9685 42.0922 78.7019C42.0068 79.4353 42.1522 80.177 42.508 80.824C44.46 84.424 49.112 91.656 49.112 91.656L51.392 90.016C51.392 90.016 48.656 81.924 47.536 80.232C47.5034 80.1841 47.4902 80.1257 47.4991 80.0685C47.508 80.0113 47.5384 79.9596 47.584 79.924L54.216 74.46L50.82 69.668Z" fill="#FF8B7B"/>
<g opacity="0.2">
<path opacity="0.2" d="M50.82 69.6681L42.984 76.7321C42.4892 77.2801 42.1775 77.9687 42.0922 78.702C42.0068 79.4354 42.1522 80.1771 42.508 80.8241C44.46 84.4241 49.112 91.6561 49.112 91.6561L51.392 90.0161C51.392 90.0161 48.656 81.9241 47.536 80.2321C47.5034 80.1843 47.4902 80.1258 47.4991 80.0686C47.508 80.0114 47.5384 79.9597 47.584 79.9241L54.216 74.4601L50.82 69.6681Z" fill="black"/>
</g>
<path d="M49.1121 91.624V95.972L52.3121 93.8C52.3121 93.8 52.5241 90.128 51.3841 89.984L49.1121 91.624Z" fill="#FF8B7B"/>
<path opacity="0.2" d="M49.1121 91.624V95.972L52.3121 93.8C52.3121 93.8 52.5241 90.128 51.3841 89.984L49.1121 91.624Z" fill="black"/>
<path d="M67.224 127.008C67.1741 128.939 66.933 130.86 66.504 132.744C64.224 142.38 55.212 156.204 55.212 156.204L49.952 154.232C49.952 154.232 57.38 134.232 58.236 129.132C58.932 124.972 52.52 109.776 50.66 103.6C49.316 99.136 51.208 94.96 51.208 94.96C51.208 94.96 56.04 95.616 61.768 95.976L64.02 106.344L65.06 111.144C65.8371 113.821 66.4121 116.553 66.78 119.316L66.828 119.676C66.868 119.988 66.908 120.296 66.94 120.596C67.1866 122.724 67.2815 124.867 67.224 127.008V127.008Z" fill="#764AF1"/>
<path opacity="0.4" d="M67.224 127.008C67.1741 128.939 66.933 130.86 66.504 132.744C64.224 142.38 55.212 156.204 55.212 156.204L49.952 154.232C49.952 154.232 57.38 134.232 58.236 129.132C58.932 124.972 52.52 109.776 50.66 103.6C49.316 99.136 51.208 94.96 51.208 94.96C51.208 94.96 56.04 95.616 61.768 95.976L64.02 106.344L65.06 111.144C65.8371 113.821 66.4121 116.553 66.78 119.316L66.828 119.676C66.868 119.988 66.908 120.296 66.94 120.596C67.1866 122.724 67.2815 124.867 67.224 127.008V127.008Z" fill="white"/>
<path opacity="0.4" d="M67.2239 127.008C66.4799 124.448 63.4279 116.852 59.4279 109.316C55.3919 101.716 59.8279 99.8921 59.8279 99.8921C61.5199 100.508 62.9119 103.048 64.0199 106.344C65.3279 110.236 66.2399 115.2 66.7799 119.316L66.8279 119.676C66.8679 119.988 66.9079 120.296 66.9399 120.596C67.1865 122.724 67.2814 124.867 67.2239 127.008V127.008Z" fill="#263238"/>
<path d="M70.892 97.336L57.232 96.3C57.232 96.3 56.296 99.4521 56.296 101.728C56.296 110.048 62.168 109.64 63.98 113.804C67.98 123.036 71.628 128.7 72.072 131.296C72.42 133.336 72.472 158.688 72.472 158.688H77.8C77.8 158.688 82.472 138.848 81.6 130.792C80.728 122.736 70.892 97.336 70.892 97.336Z" fill="#764AF1"/>
<g opacity="0.4">
<path opacity="0.4" d="M70.892 97.336L57.232 96.3C57.232 96.3 56.296 99.4521 56.296 101.728C56.296 110.048 62.168 109.64 63.98 113.804C67.98 123.036 71.628 128.7 72.072 131.296C72.42 133.336 72.472 158.688 72.472 158.688H77.8C77.8 158.688 82.472 138.848 81.6 130.792C80.728 122.736 70.892 97.336 70.892 97.336Z" fill="white"/>
</g>
<path d="M89.312 70.2639L97.248 74.2639C97.2873 74.2874 97.3236 74.3156 97.356 74.3479L97.872 74.9399L97.136 74.9159C97.0876 74.9154 97.0399 74.9045 96.996 74.8839L88.924 71.1119C88.8422 71.0735 88.7782 71.0054 88.7447 70.9215C88.7113 70.8376 88.7111 70.7441 88.744 70.6599L88.824 70.4639C88.8409 70.4172 88.8674 70.3746 88.9018 70.3388C88.9362 70.3029 88.9777 70.2747 89.0237 70.2558C89.0697 70.237 89.1191 70.228 89.1687 70.2294C89.2184 70.2308 89.2672 70.2426 89.312 70.2639Z" fill="#764AF1"/>
<path d="M90.744 73.648L93.296 72.272L92.876 75.948C92.876 75.948 90.78 77.18 89.512 75.892L90.744 73.648Z" fill="#FF8B7B"/>
<path d="M96.164 73.748L95.964 74.92C95.9324 75.103 95.8432 75.2712 95.7093 75.3999C95.5755 75.5287 95.4041 75.6114 95.22 75.636L92.876 75.948L93.296 72.272L95.492 72.756C95.7095 72.8042 95.9004 72.9338 96.0253 73.1183C96.1503 73.3028 96.1999 73.5281 96.164 73.748V73.748Z" fill="#FF8B7B"/>
<path d="M71.344 73.508C71.344 73.508 73.42 83.944 78.184 85.676C82.472 87.232 91.088 76.476 91.088 76.476L90.744 73.648L79.944 80.656L75.6 69.66C74.1144 70.8667 72.6937 72.1511 71.344 73.508V73.508Z" fill="#FF8B7B"/>
<path d="M51.444 162.976C51.1254 162.737 50.8295 162.469 50.56 162.176C50.5476 162.162 50.5408 162.143 50.5408 162.124C50.5408 162.105 50.5476 162.087 50.56 162.072C50.5682 162.055 50.5816 162.042 50.5981 162.033C50.6147 162.024 50.6335 162.021 50.652 162.024C50.848 162.056 52.548 162.324 52.764 162.8C52.7839 162.845 52.7921 162.894 52.7879 162.943C52.7837 162.992 52.7672 163.039 52.74 163.08C52.6982 163.151 52.6401 163.211 52.5705 163.255C52.501 163.298 52.4219 163.325 52.34 163.332C52.0091 163.321 51.6923 163.195 51.444 162.976V162.976ZM50.876 162.24C51.472 162.844 52 163.176 52.304 163.16C52.358 163.156 52.4102 163.139 52.4556 163.11C52.5011 163.08 52.5384 163.04 52.564 162.992C52.5739 162.976 52.5791 162.957 52.5791 162.938C52.5791 162.919 52.5739 162.9 52.564 162.884C52.464 162.612 51.564 162.368 50.876 162.24V162.24Z" fill="#764AF1"/>
<path d="M50.5681 162.184C50.5543 162.17 50.5434 162.154 50.5361 162.136C50.5294 162.122 50.5259 162.107 50.5259 162.092C50.5259 162.077 50.5294 162.062 50.5361 162.048C50.5721 161.992 51.6241 160.848 52.3161 161.34L52.3801 161.38C52.5641 161.54 52.5481 161.684 52.5041 161.78C52.3081 162.18 51.0841 162.292 50.5881 162.18L50.5681 162.184ZM52.2361 161.492C51.7921 161.168 51.1001 161.776 50.8121 162.044C51.3601 162.092 52.2401 161.936 52.3561 161.7C52.3561 161.7 52.4041 161.632 52.2801 161.52L52.2361 161.492Z" fill="#764AF1"/>
<path d="M46.584 160.264L44.792 163.464C44.7192 163.602 44.7035 163.763 44.7484 163.913C44.7933 164.063 44.8951 164.189 45.032 164.264C46.004 164.832 47.312 165.632 47.88 165.888C50.812 167.204 52.552 166.856 54.212 166.82C54.3465 166.808 54.4765 166.765 54.5923 166.695C54.7082 166.626 54.8068 166.531 54.881 166.418C54.9551 166.305 55.0029 166.177 55.0207 166.043C55.0386 165.909 55.026 165.772 54.984 165.644L54.912 165.396C54.8838 165.293 54.8295 165.2 54.7546 165.124C54.6796 165.048 54.5864 164.993 54.484 164.964C52.084 164.328 50.688 161.676 50.688 161.676L47.34 160.024C47.2069 159.962 47.0551 159.952 46.915 159.996C46.7748 160.04 46.6566 160.136 46.584 160.264V160.264Z" fill="#263238"/>
<path d="M77.736 164.128C77.3613 163.989 76.9999 163.816 76.656 163.612C76.6383 163.604 76.624 163.59 76.6159 163.572C76.6078 163.555 76.6064 163.535 76.612 163.516C76.6153 163.499 76.624 163.483 76.6369 163.47C76.6499 163.458 76.6664 163.45 76.684 163.448C76.88 163.42 78.588 163.188 78.932 163.58C78.9642 163.617 78.9862 163.662 78.996 163.711C79.0059 163.759 79.0031 163.809 78.988 163.856C78.9693 163.935 78.9319 164.009 78.8791 164.071C78.8262 164.133 78.7593 164.181 78.684 164.212C78.3677 164.293 78.0332 164.263 77.736 164.128V164.128ZM76.976 163.588C77.724 163.988 78.324 164.16 78.612 164.056C78.6628 164.037 78.7078 164.006 78.7429 163.964C78.7779 163.923 78.8017 163.873 78.812 163.82C78.8196 163.802 78.8217 163.782 78.8182 163.763C78.8146 163.744 78.8055 163.726 78.792 163.712C78.604 163.484 77.672 163.512 76.976 163.588V163.588Z" fill="#764AF1"/>
<path d="M76.58 163.696L76.536 163.664C76.5289 163.65 76.5253 163.634 76.5253 163.618C76.5253 163.602 76.5289 163.586 76.536 163.572C76.556 163.508 77.232 162.108 78.04 162.372L78.112 162.392C78.332 162.492 78.36 162.636 78.344 162.732C78.264 163.16 77.144 163.636 76.628 163.684L76.58 163.696ZM77.976 162.552C77.46 162.372 76.972 163.156 76.776 163.492C77.316 163.38 78.112 162.976 78.156 162.72C78.156 162.72 78.18 162.64 78.028 162.572L77.976 162.552Z" fill="#764AF1"/>
<path d="M72.0439 164.256C71.9959 164.936 72.0199 165.96 72.0439 167.056C72.0439 167.588 72.3719 168.464 72.8439 168.656C73.5879 168.94 74.7959 168.852 76.1639 168.632C77.9519 168.34 80.9199 166.804 82.1239 166.152C82.3515 166.029 82.5244 165.825 82.6082 165.58C82.6919 165.336 82.6804 165.069 82.5759 164.832C82.5199 164.716 82.4679 164.624 82.4239 164.548C82.3908 164.489 82.3418 164.44 82.2825 164.407C82.2232 164.373 82.1559 164.357 82.0879 164.36C80.4519 164.408 80.2159 164.332 78.6879 164.332C78.2643 164.347 77.8434 164.258 77.4629 164.071C77.0825 163.883 76.7544 163.605 76.5079 163.26C76.5079 163.26 74.668 163.828 73.24 163.532C71.812 163.236 72.0439 164.256 72.0439 164.256Z" fill="#263238"/>
<path d="M58.312 63.772C56.7734 64.4206 55.2806 65.173 53.844 66.024C52.4373 66.7889 51.1831 67.8057 50.144 69.024C49.8704 69.3056 49.7182 69.6833 49.72 70.076C49.7656 70.3059 49.8612 70.523 50 70.712C51.2194 72.6087 52.7935 74.2521 54.636 75.552C55.0836 72.8099 56.0328 70.1739 57.436 67.776C58.108 66.62 58.908 65.468 59.036 64.14L58.312 63.772Z" fill="#764AF1"/>
<path d="M78.5599 55.8721C78.5243 56.7473 78.6078 57.6233 78.8079 58.4761C78.2159 58.6761 77.5759 58.1561 77.5759 58.1561L78.5599 55.8721Z" fill="#A02724"/>
<path d="M78.1039 58.16C78.0022 58.1617 77.9009 58.1468 77.8039 58.116C77.0839 57.904 76.7279 56.968 77.0039 56.024C77.2799 55.08 78.0919 54.488 78.8079 54.7C78.9968 54.7573 79.1686 54.8603 79.3081 54.9998C79.4477 55.1394 79.5506 55.3112 79.6079 55.5C79.7422 55.9161 79.7422 56.3639 79.6079 56.78C79.3759 57.584 78.7439 58.16 78.1039 58.16ZM78.5039 54.856C77.9599 54.856 77.4039 55.352 77.1919 56.08C76.9439 56.916 77.2399 57.744 77.8519 57.924C77.931 57.9479 78.0133 57.9601 78.0959 57.96C78.6479 57.96 79.1999 57.448 79.4079 56.736C79.5281 56.3587 79.5281 55.9533 79.4079 55.576C79.3611 55.4173 79.2766 55.2722 79.1617 55.1531C79.0468 55.0341 78.9049 54.9445 78.7479 54.892C78.6714 54.8688 78.5919 54.8567 78.5119 54.856H78.5039Z" fill="black"/>
<path d="M68.5199 55.3401L69.8479 58.0561L71.6639 61.7641C71.3417 62.0224 71.0704 62.3385 70.8639 62.6961C70.3479 63.4681 69.9439 64.0241 71.5199 65.4401C71.6913 65.5828 71.8179 65.7719 71.8846 65.9847C71.9513 66.1975 71.9552 66.4251 71.8959 66.6401C71.7279 67.1641 71.1359 67.6041 69.3039 67.0401C67.5431 66.466 66.0115 65.3449 64.9319 63.8401C64.3959 63.1241 64.6079 62.6961 65.2719 62.1161C67.1999 60.5241 68.0559 57.6721 68.5199 55.3401Z" fill="#FF8B7B"/>
<path d="M77.412 59.5321C76.9658 60.2151 76.3689 60.7867 75.6671 61.2028C74.9653 61.6189 74.1773 61.8684 73.364 61.9321C72.8107 61.9779 72.2536 61.9305 71.716 61.7921C71.0633 61.6227 70.4564 61.3106 69.939 60.8783C69.4216 60.446 69.0066 59.9042 68.724 59.2921C67.58 56.8921 68.356 54.8681 69.368 51.2921C69.5976 50.4569 70.0341 49.6931 70.6371 49.0713C71.24 48.4494 71.9901 47.9897 72.8178 47.7345C73.6455 47.4793 74.5243 47.437 75.3727 47.6113C76.2211 47.7857 77.0119 48.1711 77.6719 48.7321C80.6199 51.2961 79.272 56.6441 77.412 59.5321Z" fill="#FF8B7B"/>
<path opacity="0.2" d="M73.3639 61.9481C72.8106 61.9939 72.2536 61.9466 71.7159 61.8081L71.6639 61.7641L72.2079 61.2161C72.2079 61.2161 72.2359 61.8401 73.3639 61.9481Z" fill="black"/>
<path d="M71.772 46.824C71.6609 46.5452 71.4615 46.3106 71.2043 46.1559C70.9471 46.0013 70.6463 45.9353 70.348 45.968C70.7849 46.2546 71.1164 46.6759 71.292 47.168L71.772 46.824Z" fill="#263238"/>
<path d="M82.7439 52.652C81.8079 53.636 79.3919 53.22 79.3919 53.22L78.3719 52.22C78.1439 52.02 77.6719 51.8 77.3399 52.956L76.8879 53.936C76.8879 53.936 75.7119 55.864 73.9559 56.792C73.7079 56.924 73.0159 57.404 73.0159 57.404C72.4165 57.7928 71.7233 58.0124 71.0094 58.0399C70.2955 58.0674 69.5874 57.9016 68.9599 57.56L68.4919 57.376C68.2563 57.2835 68.052 57.1254 67.9032 56.9206C67.7544 56.7158 67.6672 56.4727 67.6519 56.22C67.5399 54.244 67.4359 49.388 69.0439 47.82C70.5199 46.364 71.3119 46.824 71.8439 46.68C72.44 46.3547 73.0964 46.1549 73.7727 46.093C74.4489 46.0311 75.1307 46.1083 75.7759 46.32C79.7279 47.68 79.5799 50.016 80.3759 49.9C80.8582 49.8226 81.3012 49.5877 81.6359 49.232C81.5679 49.348 80.7159 50.712 81.1199 50.756C81.5239 50.8 82.6039 49.856 82.5119 50.128C82.4199 50.4 81.2559 51.6 81.9599 51.896C82.5959 52.164 83.6439 51.216 83.6439 51.216C83.6439 51.216 83.6839 51.664 82.7439 52.652Z" fill="#263238"/>
<path d="M75.1102 53.3048L75.0006 53.472L79.7881 56.6096L79.8977 56.4424L75.1102 53.3048Z" fill="black"/>
<path d="M73.1759 54.608C73.0876 55.4365 73.3084 56.2684 73.7959 56.944C74.4319 57.808 75.5359 57.224 75.8479 56.22C76.1279 55.316 75.9319 53.884 75.0479 53.388C74.1639 52.892 73.2879 53.58 73.1759 54.608Z" fill="#FF8B7B"/>
<path d="M58.3119 63.7721C58.3119 63.7721 54.5159 68.2521 53.2879 78.6521C52.0599 89.0521 51.0599 96.0241 51.0599 96.0241L71.0599 97.4481C71.0599 97.4481 70.2999 90.7641 71.0599 85.6321C71.8199 80.5001 76.9239 68.2801 75.7959 66.3121C75.2239 65.3121 70.8959 63.3961 66.7839 63.1121C62.7999 62.8241 58.3119 63.7721 58.3119 63.7721Z" fill="#263238"/>
<path d="M70.8 65.928C69.74 66.876 69.144 68.232 68.72 69.584C68.5152 70.1394 68.4148 70.728 68.424 71.32C68.5275 72.0823 68.7906 72.8142 69.196 73.468L71.068 77.024C73.3703 76.9425 75.6389 76.4452 77.764 75.556C78.0437 75.4785 78.282 75.2947 78.4281 75.044C78.6321 74.564 77.3801 70.768 77.2281 69.272C76.8441 66.08 73.6 63.392 70.8 65.928Z" fill="#764AF1"/>
<path d="M62.7999 63.1561L64.4559 61.8681C64.8464 61.564 65.3339 61.412 65.8279 61.4401C66.9799 61.5001 69.2719 61.5001 71.2159 62.2401C72.9799 62.9241 72.6039 64.4201 72.6039 64.4201C72.6039 64.4201 69.2279 63.0521 62.7999 63.1561Z" fill="#764AF1"/>
<path d="M51.3401 94C50.2321 95.228 50.2321 99.016 50.2321 99.016C50.2321 99.016 60.5401 100.024 65.1441 100.024C66.9166 100.021 68.6871 99.9022 70.4441 99.668L70.7481 97.436L71.4001 99.508L72.3161 99.304L70.8641 94.992L51.3401 94Z" fill="#764AF1"/>
<path d="M56.428 156.216C56.452 156.216 55.324 158.216 55.324 158.216L48.924 155.688L49.464 153.74L56.428 156.216Z" fill="#764AF1"/>
<path d="M79.056 156.516C79.084 156.516 78.656 158.68 78.656 158.68H71.836L71.652 156.68L79.056 156.516Z" fill="#764AF1"/>
</svg>
