<svg width="32" height="32" viewBox="0 0 32 32" fill="none" xmlns="http://www.w3.org/2000/svg">
<path d="M16 2.66675C8.63999 2.66675 2.66666 8.64008 2.66666 16.0001C2.66666 23.3601 8.63999 29.3334 16 29.3334C23.3467 29.3334 29.3333 23.3601 29.3333 16.0001C29.3333 8.64008 23.3467 2.66675 16 2.66675ZM24.8067 8.81341C26.4476 10.8125 27.3556 13.3126 27.38 15.8987C27.0053 15.8267 23.2453 15.0601 19.456 15.5374C19.3693 15.3494 19.296 15.1467 19.2107 14.9441C18.9747 14.3881 18.724 13.8386 18.4587 13.2961C22.652 11.5894 24.5613 9.13075 24.8067 8.81341ZM16 4.63341C18.8933 4.63341 21.5387 5.71875 23.5493 7.49741C23.3467 7.78541 21.6253 10.0854 17.576 11.6041C15.7107 8.17741 13.6427 5.37075 13.324 4.93741C14.2011 4.73236 15.0992 4.63033 16 4.63341ZM11.156 5.70408C12.6819 7.81917 14.0915 10.0158 15.3787 12.2841C10.056 13.7014 5.35599 13.6707 4.85066 13.6707C5.21709 11.9469 5.9768 10.331 7.07052 8.94914C8.16425 7.56724 9.56242 6.45668 11.156 5.70408ZM4.60399 16.0134V15.6667C5.09732 15.6801 10.62 15.7534 16.304 14.0467C16.6373 14.6827 16.94 15.3334 17.2293 15.9841C17.084 16.0281 16.9253 16.0707 16.7813 16.1147C10.9093 18.0081 7.78532 23.1854 7.52532 23.6201C5.64511 21.5327 4.60484 18.8228 4.60532 16.0134H4.60399ZM16 27.3961C13.4686 27.4004 11.0089 26.5553 9.01466 24.9961C9.21732 24.5761 11.532 20.1214 17.952 17.8801C17.9813 17.8667 17.996 17.8667 18.024 17.8507C19.1071 20.6446 19.921 23.5355 20.4547 26.4841C19.0477 27.0895 17.5316 27.3999 16 27.3961ZM22.348 25.4427C22.2333 24.7494 21.6253 21.4227 20.1347 17.3307C23.708 16.7667 26.832 17.6921 27.2213 17.8227C26.9781 19.3602 26.4197 20.8308 25.5811 22.1421C24.7424 23.4534 23.6417 24.5771 22.348 25.4427Z" fill="#181818"/>
</svg>
