<svg width="404" height="450" viewBox="0 0 404 450" fill="none" xmlns="http://www.w3.org/2000/svg">
<path d="M385.185 83.5285C385.185 83.3694 385.915 83.2385 386.822 83.2385C387.729 83.2385 388.459 83.3694 388.459 83.5285C388.459 83.6875 387.729 83.8091 386.822 83.8091C385.915 83.8091 385.185 83.6781 385.185 83.5285Z" fill="#E0E0E0"/>
<path d="M378.637 83.5285C378.637 83.3694 379.367 83.2385 380.274 83.2385C381.182 83.2385 381.911 83.3694 381.911 83.5285C381.911 83.6875 381.182 83.8091 380.274 83.8091C379.367 83.8091 378.637 83.6781 378.637 83.5285Z" fill="#E0E0E0"/>
<path d="M372.09 83.5285C372.09 83.3694 372.819 83.2385 373.727 83.2385C374.634 83.2385 375.364 83.3694 375.364 83.5285C375.364 83.6875 374.625 83.8091 373.727 83.8091C372.829 83.8091 372.09 83.6781 372.09 83.5285Z" fill="#E0E0E0"/>
<path d="M365.542 83.5285C365.542 83.3694 366.272 83.2385 367.179 83.2385C368.086 83.2385 368.816 83.3694 368.816 83.5285C368.816 83.6875 368.077 83.8091 367.179 83.8091C366.281 83.8091 365.542 83.6781 365.542 83.5285Z" fill="#E0E0E0"/>
<path d="M358.985 83.5285C358.985 83.3694 359.724 83.2385 360.622 83.2385C361.52 83.2385 362.259 83.3694 362.259 83.5285C362.259 83.6875 361.529 83.8091 360.622 83.8091C359.715 83.8091 358.985 83.6781 358.985 83.5285Z" fill="#E0E0E0"/>
<path d="M352.438 83.5285C352.438 83.3694 353.177 83.2385 354.075 83.2385C354.972 83.2385 355.711 83.3694 355.711 83.5285C355.711 83.6875 354.982 83.8091 354.075 83.8091C353.167 83.8091 352.438 83.6781 352.438 83.5285Z" fill="#E0E0E0"/>
<path d="M345.89 83.5285C345.89 83.3694 346.62 83.2385 347.527 83.2385C348.434 83.2385 349.164 83.3694 349.164 83.5285C349.164 83.6875 348.434 83.8091 347.527 83.8091C346.62 83.8091 345.89 83.6781 345.89 83.5285Z" fill="#E0E0E0"/>
<path d="M339.343 83.5285C339.343 83.3694 340.072 83.2385 340.979 83.2385C341.887 83.2385 342.616 83.3694 342.616 83.5285C342.616 83.6875 341.887 83.8091 340.979 83.8091C340.072 83.8091 339.343 83.6781 339.343 83.5285Z" fill="#E0E0E0"/>
<path d="M332.795 83.5285C332.795 83.3694 333.525 83.2385 334.432 83.2385C335.339 83.2385 336.069 83.3694 336.069 83.5285C336.069 83.6875 335.33 83.8091 334.432 83.8091C333.534 83.8091 332.795 83.6781 332.795 83.5285Z" fill="#E0E0E0"/>
<path d="M326.238 83.5285C326.238 83.3694 326.977 83.2385 327.875 83.2385C328.773 83.2385 329.512 83.3694 329.512 83.5285C329.512 83.6875 328.782 83.8091 327.875 83.8091C326.968 83.8091 326.238 83.6781 326.238 83.5285Z" fill="#E0E0E0"/>
<path d="M319.69 83.5285C319.69 83.3694 320.429 83.2385 321.327 83.2385C322.225 83.2385 322.964 83.3694 322.964 83.5285C322.964 83.6875 322.235 83.8091 321.327 83.8091C320.42 83.8091 319.69 83.6781 319.69 83.5285Z" fill="#E0E0E0"/>
<path d="M313.143 83.5285C313.143 83.3694 313.872 83.2385 314.78 83.2385C315.687 83.2385 316.417 83.3694 316.417 83.5285C316.417 83.6875 315.687 83.8091 314.78 83.8091C313.872 83.8091 313.143 83.6781 313.143 83.5285Z" fill="#E0E0E0"/>
<path d="M308.475 81.639C308.634 81.639 308.756 82.378 308.756 83.2759V83.5285L308.475 83.2479C309.261 83.2479 309.869 83.3788 309.869 83.5285C309.869 83.6781 309.261 83.7904 308.475 83.8091H308.195V83.2666C308.195 82.378 308.316 81.639 308.475 81.639Z" fill="#E0E0E0"/>
<path d="M308.475 75.0914C308.634 75.0914 308.756 75.8304 308.756 76.7283C308.756 77.6263 308.634 78.3652 308.475 78.3652C308.316 78.3652 308.195 77.6356 308.195 76.7283C308.195 75.821 308.316 75.0914 308.475 75.0914Z" fill="#E0E0E0"/>
<path d="M308.475 68.5438C308.634 68.5438 308.756 69.2734 308.756 70.1807C308.756 71.088 308.634 71.8176 308.475 71.8176C308.316 71.8176 308.195 71.088 308.195 70.1807C308.195 69.2734 308.316 68.5438 308.475 68.5438Z" fill="#E0E0E0"/>
<path d="M308.475 61.9962C308.634 61.9962 308.756 62.7258 308.756 63.6331C308.756 64.5405 308.634 65.27 308.475 65.27C308.316 65.27 308.195 64.5405 308.195 63.6331C308.195 62.7258 308.316 61.9962 308.475 61.9962Z" fill="#E0E0E0"/>
<path d="M308.475 55.4487C308.634 55.4487 308.756 56.1783 308.756 57.0856C308.756 57.9929 308.634 58.7225 308.475 58.7225C308.316 58.7225 308.195 57.9835 308.195 57.0856C308.195 56.1876 308.316 55.4487 308.475 55.4487Z" fill="#E0E0E0"/>
<path d="M308.475 48.8918C308.634 48.8918 308.756 49.6307 308.756 50.538C308.756 51.4453 308.634 52.1749 308.475 52.1749C308.316 52.1749 308.195 51.436 308.195 50.538C308.195 49.6401 308.316 48.8918 308.475 48.8918Z" fill="#E0E0E0"/>
<path d="M308.475 42.3442C308.634 42.3442 308.756 43.0831 308.756 43.9811C308.756 44.879 308.634 45.618 308.475 45.618C308.316 45.618 308.195 44.8884 308.195 43.9811C308.195 43.0738 308.316 42.3442 308.475 42.3442Z" fill="#E0E0E0"/>
<path d="M308.475 35.7966C308.634 35.7966 308.756 36.5262 308.756 37.4335C308.756 38.3408 308.634 39.0704 308.475 39.0704C308.316 39.0704 308.195 38.3408 308.195 37.4335C308.195 36.5262 308.316 35.7966 308.475 35.7966Z" fill="#E0E0E0"/>
<path d="M308.475 29.249C308.634 29.249 308.756 29.9786 308.756 30.8859C308.756 31.7932 308.634 32.5228 308.475 32.5228C308.316 32.5228 308.195 31.7932 308.195 30.8859C308.195 29.9786 308.316 29.249 308.475 29.249Z" fill="#E0E0E0"/>
<path d="M308.475 22.7014C308.634 22.7014 308.756 23.431 308.756 24.3383C308.756 25.2456 308.634 25.9752 308.475 25.9752C308.316 25.9752 308.195 25.2363 308.195 24.3383C308.195 23.4404 308.316 22.7014 308.475 22.7014Z" fill="#E0E0E0"/>
<path d="M308.475 16.1538C308.634 16.1538 308.756 16.8834 308.756 17.7907C308.756 18.698 308.634 19.4276 308.475 19.4276C308.316 19.4276 308.195 18.6887 308.195 17.7907C308.195 16.8928 308.316 16.1538 308.475 16.1538Z" fill="#E0E0E0"/>
<path d="M308.475 9.59692C308.634 9.59692 308.756 10.3359 308.756 11.2338C308.756 12.1318 308.634 12.8707 308.475 12.8707C308.316 12.8707 308.195 12.1411 308.195 11.2338C308.195 10.3265 308.316 9.59692 308.475 9.59692Z" fill="#E0E0E0"/>
<path d="M308.971 3.54503C308.971 3.61986 308.784 3.69469 308.475 3.74146L308.681 3.54503C308.735 3.92298 308.76 4.30445 308.756 4.68618C308.756 5.62155 308.634 6.32307 308.475 6.32307C308.316 6.32307 308.195 5.59349 308.195 4.68618C308.191 4.30445 308.216 3.92298 308.27 3.54503V3.31119H308.429C308.756 3.38602 308.971 3.4702 308.971 3.54503Z" fill="#E0E0E0"/>
<path d="M315.519 3.54506C315.519 3.69472 314.78 3.82567 313.882 3.82567C312.984 3.82567 312.245 3.69472 312.245 3.54506C312.245 3.3954 312.974 3.2551 313.882 3.2551C314.789 3.2551 315.519 3.38605 315.519 3.54506Z" fill="#E0E0E0"/>
<path d="M322.066 3.54506C322.066 3.69472 321.337 3.82567 320.429 3.82567C319.522 3.82567 318.792 3.69472 318.792 3.54506C318.792 3.3954 319.522 3.2551 320.429 3.2551C321.337 3.2551 322.066 3.38605 322.066 3.54506Z" fill="#E0E0E0"/>
<path d="M328.614 3.54506C328.614 3.69472 327.884 3.82567 326.977 3.82567C326.07 3.82567 325.34 3.69472 325.34 3.54506C325.34 3.3954 326.07 3.2551 326.977 3.2551C327.884 3.2551 328.614 3.38605 328.614 3.54506Z" fill="#E0E0E0"/>
<path d="M335.161 3.54506C335.161 3.69472 334.432 3.82567 333.524 3.82567C332.617 3.82567 331.888 3.69472 331.888 3.54506C331.888 3.3954 332.627 3.2551 333.524 3.2551C334.422 3.2551 335.161 3.38605 335.161 3.54506Z" fill="#E0E0E0"/>
<path d="M341.709 3.54506C341.709 3.69472 340.979 3.82567 340.072 3.82567C339.165 3.82567 338.435 3.69472 338.435 3.54506C338.435 3.3954 339.174 3.2551 340.072 3.2551C340.97 3.2551 341.709 3.38605 341.709 3.54506Z" fill="#E0E0E0"/>
<path d="M348.266 3.54506C348.266 3.69472 347.527 3.82567 346.629 3.82567C345.731 3.82567 344.992 3.69472 344.992 3.54506C344.992 3.3954 345.722 3.2551 346.629 3.2551C347.536 3.2551 348.266 3.38605 348.266 3.54506Z" fill="#E0E0E0"/>
<path d="M354.813 3.54506C354.813 3.69472 354.075 3.82567 353.177 3.82567C352.279 3.82567 351.54 3.69472 351.54 3.54506C351.54 3.3954 352.269 3.2551 353.177 3.2551C354.084 3.2551 354.813 3.38605 354.813 3.54506Z" fill="#E0E0E0"/>
<path d="M361.361 3.54506C361.361 3.69472 360.631 3.82567 359.724 3.82567C358.817 3.82567 358.087 3.69472 358.087 3.54506C358.087 3.3954 358.817 3.2551 359.724 3.2551C360.631 3.2551 361.361 3.38605 361.361 3.54506Z" fill="#E0E0E0"/>
<path d="M367.909 3.54506C367.909 3.69472 367.179 3.82567 366.272 3.82567C365.365 3.82567 364.635 3.69472 364.635 3.54506C364.635 3.3954 365.365 3.2551 366.272 3.2551C367.179 3.2551 367.909 3.38605 367.909 3.54506Z" fill="#E0E0E0"/>
<path d="M374.456 3.54506C374.456 3.69472 373.727 3.82567 372.819 3.82567C371.912 3.82567 371.182 3.69472 371.182 3.54506C371.182 3.3954 371.921 3.2551 372.819 3.2551C373.717 3.2551 374.456 3.38605 374.456 3.54506Z" fill="#E0E0E0"/>
<path d="M381.013 3.54506C381.013 3.69472 380.274 3.82567 379.376 3.82567C378.478 3.82567 377.73 3.69472 377.73 3.54506C377.73 3.3954 378.469 3.2551 379.376 3.2551C380.284 3.2551 381.013 3.38605 381.013 3.54506Z" fill="#E0E0E0"/>
<path d="M387.561 3.54506C387.561 3.69472 386.822 3.82567 385.924 3.82567C385.026 3.82567 384.287 3.69472 384.287 3.54506C384.287 3.3954 385.017 3.2551 385.924 3.2551C386.831 3.2551 387.561 3.38605 387.561 3.54506Z" fill="#E0E0E0"/>
<path d="M388.459 9.18535C388.3 9.18535 388.178 8.45576 388.178 7.54846C388.178 6.64115 388.3 5.91156 388.459 5.91156C388.618 5.91156 388.749 6.6505 388.749 7.54846C388.749 8.44641 388.618 9.18535 388.459 9.18535Z" fill="#E0E0E0"/>
<path d="M388.459 15.7423C388.3 15.7423 388.178 15.0033 388.178 14.1054C388.178 13.2074 388.3 12.4685 388.459 12.4685C388.618 12.4685 388.749 13.1981 388.749 14.1054C388.749 15.0127 388.618 15.7423 388.459 15.7423Z" fill="#E0E0E0"/>
<path d="M388.459 22.2899C388.3 22.2899 388.178 21.5509 388.178 20.653C388.178 19.755 388.3 19.0161 388.459 19.0161C388.618 19.0161 388.749 19.7457 388.749 20.653C388.749 21.5603 388.618 22.2899 388.459 22.2899Z" fill="#E0E0E0"/>
<path d="M388.459 28.8375C388.3 28.8375 388.178 28.1079 388.178 27.2006C388.178 26.2932 388.3 25.5637 388.459 25.5637C388.618 25.5637 388.749 26.2932 388.749 27.2006C388.749 28.1079 388.618 28.8375 388.459 28.8375Z" fill="#E0E0E0"/>
<path d="M388.459 35.385C388.3 35.385 388.178 34.6554 388.178 33.7481C388.178 32.8408 388.3 32.1112 388.459 32.1112C388.618 32.1112 388.749 32.8408 388.749 33.7481C388.749 34.6554 388.618 35.385 388.459 35.385Z" fill="#E0E0E0"/>
<path d="M388.459 41.9326C388.3 41.9326 388.178 41.203 388.178 40.2957C388.178 39.3884 388.3 38.6588 388.459 38.6588C388.618 38.6588 388.749 39.3978 388.749 40.2957C388.749 41.1937 388.618 41.9326 388.459 41.9326Z" fill="#E0E0E0"/>
<path d="M388.459 48.4895C388.3 48.4895 388.178 47.7506 388.178 46.8433C388.178 45.936 388.3 45.2064 388.459 45.2064C388.618 45.2064 388.749 45.9453 388.749 46.8433C388.749 47.7412 388.618 48.4895 388.459 48.4895Z" fill="#E0E0E0"/>
<path d="M388.459 55.0371C388.3 55.0371 388.178 54.2982 388.178 53.4002C388.178 52.5022 388.3 51.7633 388.459 51.7633C388.618 51.7633 388.749 52.4929 388.749 53.4002C388.749 54.3075 388.618 55.0371 388.459 55.0371Z" fill="#E0E0E0"/>
<path d="M388.459 61.5847C388.3 61.5847 388.178 60.8551 388.178 59.9478C388.178 59.0405 388.3 58.3109 388.459 58.3109C388.618 58.3109 388.749 59.0405 388.749 59.9478C388.749 60.8551 388.618 61.5847 388.459 61.5847Z" fill="#E0E0E0"/>
<path d="M388.459 68.1323C388.3 68.1323 388.178 67.4027 388.178 66.4954C388.178 65.588 388.3 64.8585 388.459 64.8585C388.618 64.8585 388.749 65.588 388.749 66.4954C388.749 67.4027 388.618 68.1323 388.459 68.1323Z" fill="#E0E0E0"/>
<path d="M388.459 74.6799C388.3 74.6799 388.178 73.9503 388.178 73.043C388.178 72.1357 388.3 71.4061 388.459 71.4061C388.618 71.4061 388.749 72.145 388.749 73.043C388.749 73.9409 388.618 74.6799 388.459 74.6799Z" fill="#E0E0E0"/>
<path d="M388.459 81.2275C388.3 81.2275 388.178 80.4979 388.178 79.5906C388.178 78.6833 388.3 77.9537 388.459 77.9537C388.618 77.9537 388.749 78.6926 388.749 79.5906C388.749 80.4885 388.618 81.2275 388.459 81.2275Z" fill="#E0E0E0"/>
<path d="M391.424 79.7495H385.503V85.6704H391.424V79.7495Z" fill="#E0E0E0"/>
<path d="M311.431 80.5633H305.51V86.4842H311.431V80.5633Z" fill="#E0E0E0"/>
<path d="M391.424 0H385.503V5.92088H391.424V0Z" fill="#E0E0E0"/>
<path d="M311.431 0.579926H305.51V6.50081H311.431V0.579926Z" fill="#E0E0E0"/>
<path d="M76.8967 105.425C87.2418 96.3524 88.1866 81.5361 86.2503 68.5251C85.9323 66.3551 85.923 64.026 84.6696 62.2301C83.4162 60.4342 80.8626 59.424 79.0574 60.5184C77.5234 61.4538 77.0183 63.4274 76.2513 65.083C75.2698 67.2922 73.6842 69.1792 71.6773 70.5268C70.3678 71.4061 68.6935 72.0328 67.2436 71.4622C65.242 70.6297 64.7369 68.0575 64.5124 65.85L63.2496 53.6902C63.1384 51.5075 62.6773 49.3568 61.884 47.3203C61.4804 46.3096 60.8397 45.4107 60.016 44.6993C59.1923 43.9879 58.2097 43.485 57.151 43.2328C55.0277 42.8867 52.6051 44.3552 52.3993 46.5253C52.4153 47.4341 52.4966 48.3406 52.6425 49.2378C52.7055 49.6861 52.6342 50.143 52.4378 50.5509C52.2414 50.9587 51.9286 51.2992 51.5388 51.5295C51.0964 51.6333 50.6346 51.6207 50.1985 51.4929C49.7625 51.365 49.367 51.1262 49.0507 50.7999C46.6566 48.7274 44.6158 46.279 43.0082 43.5508C41.4019 40.8419 39.4838 38.3305 37.2931 36.0678C34.9921 33.8978 31.9709 32.3264 28.8748 32.4854C25.7787 32.6444 22.6546 34.936 22.2056 38.0976C21.7567 41.2591 23.8799 44.1494 26.0968 46.413C29.3839 49.7635 33.1357 52.6238 37.237 54.9062C38.0161 55.2387 38.6706 55.8081 39.1077 56.5337C39.7344 57.9274 38.5185 59.5175 37.1435 60.1442C35.5908 60.8645 33.8136 60.8925 32.1486 61.276C30.4836 61.6595 28.7252 62.6136 28.2668 64.2786C27.6214 66.5983 29.7354 68.7122 31.7277 70.0311C35.73 72.6821 40.1602 74.6219 44.8229 75.7649C46.521 76.0172 48.1594 76.5749 49.6587 77.4112C51.0711 78.3465 52.0626 80.2173 51.4546 81.8729C50.8466 83.5285 48.9011 84.1926 47.1987 84.071C45.5114 83.7874 43.8525 83.3555 42.2412 82.7802C39.1358 81.9851 35.3101 82.6118 33.6826 85.3992C33.1992 86.3493 32.9418 87.3983 32.9304 88.4642C32.9191 89.5302 33.1541 90.5844 33.6171 91.5446C34.5624 93.4561 35.8825 95.1579 37.4989 96.5488C42.8502 101.703 49.4737 105.344 56.6927 107.1C63.867 108.737 70.3491 108.681 76.9434 105.407" fill="#E0E0E0"/>
<path d="M78.1407 115.069C76.8626 109.079 75.0146 103.225 72.622 97.587C69.6686 90.7087 66.3206 84.0066 62.5949 77.514L59.6952 72.3788C58.7599 70.7045 57.8245 69.0396 56.7675 67.4588C54.792 64.4422 52.6498 61.538 50.3509 58.7599C48.1715 56.0941 46.0108 53.6434 43.9717 51.3611C41.9326 49.0788 39.987 47.0023 38.135 45.1783C35.2354 42.2814 32.1075 39.6226 28.7813 37.2277C27.6027 36.3765 26.6674 35.7498 26.0313 35.3569L25.3017 34.8892C25.2214 34.8331 25.137 34.7831 25.0492 34.7396L25.283 34.9173L25.9845 35.4224C26.6112 35.862 27.5279 36.5074 28.6878 37.3773C31.9774 39.8196 35.0791 42.5055 37.9666 45.4121C39.8373 47.2829 41.7081 49.3314 43.7565 51.6137C45.805 53.896 47.9283 56.356 50.0983 59.0311C52.3795 61.8053 54.506 64.7031 56.4682 67.7113C57.4878 69.2734 58.4231 70.929 59.3772 72.6127L62.2768 77.7385C65.9899 84.2201 69.3406 90.9027 72.3134 97.7554C74.722 103.37 76.6009 109.198 77.9256 115.163" fill="#FAFAFA"/>
<path d="M56.6553 67.4588C56.7261 67.1519 56.7637 66.8384 56.7675 66.5234C56.8143 65.9061 56.8517 65.0175 56.8891 63.9231C56.9546 61.7343 56.9453 58.6944 56.8891 55.3551C56.833 52.0159 56.8891 48.9853 57.0014 46.7965C57.0014 45.7021 57.0949 44.8229 57.1323 44.2055C57.1655 43.8946 57.1655 43.5811 57.1323 43.2702C57.0446 43.5754 56.9882 43.8888 56.964 44.2055C56.8704 44.8135 56.7769 45.6928 56.7021 46.7872C56.5243 48.9759 56.4402 52.0159 56.4682 55.3645C56.4963 58.7131 56.5243 61.6502 56.5431 63.9325C56.5431 64.9614 56.5431 65.8032 56.5431 66.5234C56.5437 66.8386 56.5814 67.1525 56.6553 67.4588V67.4588Z" fill="#FAFAFA"/>
<path d="M28.192 65.3262C28.5654 65.3605 28.9411 65.3605 29.3144 65.3262C30.044 65.3262 31.0823 65.3262 32.3825 65.3262C34.9641 65.3262 38.5372 65.4384 42.4657 65.7377C46.3943 66.0371 49.9487 66.4767 52.5116 66.8602C53.7931 67.0472 54.822 67.225 55.5328 67.3372C55.9015 67.422 56.2773 67.4721 56.6553 67.4869C56.3037 67.3536 55.9405 67.2534 55.5703 67.1876C54.8594 67.0192 53.8305 66.8041 52.549 66.5796C49.9955 66.1212 46.441 65.6442 42.4938 65.3355C39.1276 65.0624 35.7496 64.9625 32.3731 65.0362C31.0729 65.0362 30.0347 65.1391 29.3051 65.2046C28.9309 65.2072 28.5579 65.2479 28.192 65.3262V65.3262Z" fill="#FAFAFA"/>
<path d="M72.2198 97.11C72.2198 97.11 72.2853 96.9884 72.3789 96.7545C72.4724 96.5207 72.594 96.1091 72.7437 95.6882C73.0523 94.7528 73.4732 93.4153 73.969 91.741C74.9605 88.4017 76.1858 83.7436 77.4673 78.5803C78.7487 73.4171 79.9366 68.7496 80.8627 65.3916C81.3116 63.7547 81.6858 62.4078 81.9664 61.4163C82.0786 60.9767 82.1815 60.6212 82.2564 60.3313C82.3312 60.0413 82.3499 59.9478 82.3312 59.9384C82.2676 60.0539 82.2173 60.1763 82.1815 60.3032C82.0786 60.5932 81.957 60.9393 81.8167 61.3695C81.4987 62.3049 81.0871 63.6331 80.5914 65.3074C79.5906 68.6561 78.3652 73.3142 77.0838 78.4774C75.8023 83.6407 74.6144 88.3081 73.6977 91.6661C73.2394 93.303 72.8652 94.6406 72.594 95.6414C72.4724 96.0717 72.3789 96.4365 72.2947 96.7265C72.2585 96.8519 72.2335 96.9802 72.2198 97.11V97.11Z" fill="#FAFAFA"/>
<path d="M33.8416 89.2529C33.9622 89.3117 34.0919 89.3497 34.2251 89.3652L35.3476 89.6083L39.4539 90.4595C42.9241 91.1704 47.7038 92.218 52.9886 93.3779C58.2735 94.5377 63.0719 95.5479 66.5609 96.184C68.3006 96.502 69.713 96.7546 70.6952 96.9042L71.827 97.0726C71.9573 97.0913 72.0896 97.0913 72.2198 97.0726C72.0954 97.0246 71.9671 96.987 71.8363 96.9603L70.7232 96.7172L66.6076 95.8753C63.1374 95.1551 58.3577 94.1075 53.0728 92.9476C47.788 91.7878 42.9989 90.7776 39.51 90.1415C37.7608 89.8235 36.3484 89.5709 35.3757 89.4213L34.2439 89.2529C34.1101 89.2402 33.9754 89.2402 33.8416 89.2529Z" fill="#FAFAFA"/>
<path d="M290.705 367.622C336.201 322.126 336.201 248.362 290.705 202.866C245.209 157.37 171.445 157.37 125.949 202.866C80.4528 248.362 80.4528 322.126 125.949 367.622C171.445 413.118 245.209 413.118 290.705 367.622Z" fill="#E0E0E0"/>
<path d="M208.325 377.188C190.142 377.188 172.367 371.796 157.248 361.693C142.129 351.591 130.345 337.232 123.386 320.433C116.428 303.634 114.607 285.148 118.154 267.314C121.702 249.48 130.458 233.098 143.316 220.241C156.173 207.383 172.555 198.627 190.389 195.079C208.223 191.532 226.709 193.353 243.508 200.311C260.308 207.27 274.666 219.053 284.769 234.172C294.871 249.291 300.263 267.067 300.263 285.25C300.236 309.625 290.541 332.994 273.305 350.23C256.069 367.465 232.7 377.16 208.325 377.188V377.188ZM208.325 194.248C190.327 194.248 172.733 199.585 157.767 209.585C142.802 219.584 131.138 233.797 124.25 250.425C117.363 267.054 115.561 285.351 119.072 303.004C122.583 320.656 131.25 336.871 143.977 349.598C156.704 362.325 172.919 370.992 190.572 374.504C208.224 378.015 226.522 376.213 243.15 369.325C259.779 362.437 273.991 350.773 283.991 335.808C293.99 320.843 299.327 303.249 299.327 285.25C299.293 261.129 289.693 238.006 272.633 220.953C255.573 203.901 232.447 194.31 208.325 194.285V194.248Z" fill="#FAFAFA"/>
<path d="M208.325 391.854C187.236 391.854 166.619 385.6 149.084 373.883C131.548 362.167 117.881 345.513 109.81 326.028C101.739 306.544 99.6278 285.104 103.742 264.419C107.857 243.735 118.012 224.735 132.925 209.822C147.838 194.909 166.838 184.753 187.523 180.639C208.207 176.524 229.647 178.636 249.132 186.707C268.616 194.778 285.27 208.445 296.987 225.98C308.704 243.516 314.957 264.132 314.957 285.222C314.933 313.495 303.69 340.603 283.698 360.595C263.706 380.587 236.598 391.829 208.325 391.854V391.854ZM208.325 179.582C187.421 179.582 166.985 185.781 149.603 197.395C132.222 209.009 118.674 225.516 110.674 244.83C102.674 264.143 100.581 285.395 104.66 305.899C108.738 326.402 118.805 345.235 133.587 360.017C148.368 374.799 167.202 384.866 187.705 388.944C208.208 393.022 229.46 390.929 248.774 382.929C268.087 374.929 284.595 361.382 296.209 344C307.823 326.618 314.022 306.183 314.022 285.278C313.997 257.253 302.853 230.383 283.037 210.567C263.22 190.75 236.35 179.606 208.325 179.582V179.582Z" fill="#FAFAFA"/>
<path d="M208.325 364.962C192.56 364.962 177.148 360.287 164.04 351.528C150.931 342.769 140.714 330.32 134.681 315.755C128.648 301.189 127.069 285.162 130.145 269.699C133.221 254.236 140.812 240.033 151.96 228.885C163.108 217.737 177.312 210.145 192.774 207.07C208.237 203.994 224.264 205.572 238.83 211.606C253.395 217.639 265.845 227.856 274.604 240.964C283.363 254.073 288.038 269.485 288.038 285.25C288.013 306.383 279.607 326.644 264.663 341.588C249.719 356.531 229.459 364.938 208.325 364.962V364.962ZM208.325 206.473C192.745 206.473 177.514 211.094 164.559 219.75C151.605 228.406 141.508 240.709 135.545 255.104C129.583 269.498 128.023 285.338 131.062 300.619C134.102 315.9 141.605 329.937 152.622 340.954C163.639 351.971 177.676 359.474 192.957 362.513C208.238 365.553 224.077 363.993 238.472 358.03C252.867 352.068 265.17 341.971 273.826 329.016C282.482 316.061 287.102 300.831 287.102 285.25C287.085 264.36 278.78 244.33 264.012 229.556C249.243 214.782 229.216 206.47 208.325 206.445V206.473Z" fill="#FAFAFA"/>
<path d="M208.325 352.475C195.03 352.475 182.032 348.532 170.977 341.146C159.922 333.759 151.306 323.26 146.218 310.976C141.129 298.692 139.798 285.176 142.392 272.135C144.986 259.095 151.389 247.116 160.79 237.715C170.192 228.313 182.17 221.911 195.21 219.317C208.251 216.723 221.767 218.054 234.051 223.142C246.335 228.23 256.834 236.847 264.221 247.902C271.608 258.957 275.55 271.954 275.55 285.25C275.518 303.069 268.425 320.15 255.825 332.75C243.225 345.35 226.145 352.443 208.325 352.475V352.475ZM208.325 218.961C195.215 218.961 182.398 222.848 171.497 230.132C160.596 237.416 152.099 247.769 147.082 259.882C142.064 271.995 140.752 285.324 143.31 298.183C145.867 311.042 152.181 322.853 161.452 332.124C170.722 341.395 182.534 347.708 195.393 350.266C208.252 352.824 221.58 351.511 233.693 346.494C245.806 341.476 256.159 332.98 263.443 322.079C270.727 311.177 274.615 298.361 274.615 285.25C274.595 267.675 267.605 250.826 255.177 238.398C242.75 225.971 225.9 218.98 208.325 218.961V218.961Z" fill="#FAFAFA"/>
<path d="M208.325 339.67C197.562 339.67 187.041 336.478 178.091 330.499C169.142 324.519 162.167 316.02 158.048 306.076C153.929 296.132 152.851 285.19 154.951 274.633C157.051 264.077 162.234 254.38 169.845 246.77C177.456 239.159 187.152 233.976 197.709 231.876C208.265 229.776 219.207 230.854 229.151 234.973C239.095 239.092 247.594 246.067 253.574 255.016C259.553 263.965 262.745 274.487 262.745 285.25C262.728 299.678 256.989 313.51 246.787 323.712C236.585 333.914 222.753 339.653 208.325 339.67ZM208.325 231.766C197.747 231.766 187.406 234.903 178.611 240.779C169.816 246.656 162.96 255.01 158.912 264.783C154.864 274.556 153.805 285.309 155.869 295.684C157.932 306.059 163.026 315.589 170.506 323.069C177.986 330.549 187.516 335.643 197.891 337.707C208.266 339.771 219.02 338.711 228.793 334.663C238.566 330.615 246.919 323.76 252.796 314.964C258.673 306.169 261.81 295.828 261.81 285.25C261.792 271.071 256.152 257.477 246.125 247.45C236.099 237.424 222.505 231.783 208.325 231.766V231.766Z" fill="#FAFAFA"/>
<path d="M208.325 328.146C199.841 328.146 191.548 325.63 184.494 320.917C177.439 316.203 171.941 309.504 168.695 301.666C165.448 293.828 164.598 285.203 166.254 276.882C167.909 268.561 171.994 260.917 177.993 254.918C183.992 248.919 191.636 244.833 199.957 243.178C208.278 241.523 216.903 242.373 224.741 245.619C232.579 248.866 239.279 254.364 243.992 261.418C248.706 268.473 251.221 276.766 251.221 285.25C251.207 296.622 246.682 307.524 238.641 315.566C230.6 323.607 219.698 328.131 208.325 328.146V328.146ZM208.325 243.289C200.026 243.289 191.914 245.75 185.013 250.361C178.113 254.972 172.735 261.525 169.559 269.192C166.383 276.86 165.552 285.297 167.171 293.436C168.79 301.576 172.786 309.052 178.655 314.921C184.523 320.789 192 324.785 200.139 326.405C208.279 328.024 216.716 327.193 224.383 324.017C232.05 320.841 238.604 315.463 243.214 308.562C247.825 301.662 250.286 293.549 250.286 285.25C250.274 274.125 245.849 263.46 237.982 255.593C230.116 247.727 219.45 243.302 208.325 243.289V243.289Z" fill="#FAFAFA"/>
<path d="M244.786 4.61139H199.58V49.8178H244.786V4.61139Z" fill="#EBEBEB"/>
<path d="M256.661 242.258L154.939 249.378L162.76 361.099L264.481 353.978L256.661 242.258Z" fill="#263238"/>
<path d="M253.681 296.924L252.185 263.98L163.577 272.295L166.954 306.511L253.681 296.924Z" fill="#455A64"/>
<path d="M272.22 354.075L158.657 361.717C157.716 361.78 156.771 361.657 155.877 361.356C154.982 361.054 154.157 360.579 153.446 359.958C152.735 359.337 152.154 358.582 151.736 357.736C151.317 356.89 151.069 355.97 151.006 355.029C150.941 354.087 151.063 353.141 151.364 352.247C151.665 351.352 152.14 350.526 152.762 349.815C153.383 349.104 154.139 348.523 154.985 348.104C155.831 347.686 156.752 347.439 157.694 347.377L271.257 339.745C272.199 339.681 273.143 339.804 274.038 340.106C274.932 340.407 275.758 340.882 276.468 341.503C277.179 342.124 277.76 342.879 278.179 343.725C278.597 344.571 278.845 345.491 278.908 346.433V346.433C279.034 348.333 278.4 350.205 277.146 351.638C275.892 353.071 274.12 353.947 272.22 354.075V354.075Z" fill="#455A64"/>
<path d="M398.383 104.537H20.4378V275.747H398.383V104.537Z" fill="#EBEBEB"/>
<path d="M20.4378 275.747L30.2031 280.835L389.029 280.498L398.392 275.747H20.4378Z" fill="#E0E0E0"/>
<path d="M122.964 259.593L122.29 144.299H299.458V260.79L122.964 259.593Z" fill="#455A64"/>
<path d="M159.518 237.649C166.374 237.284 173.352 238.903 180.199 239.688L176.523 238.753C176.234 235.484 176.677 232.191 177.82 229.114C178.963 226.038 180.776 223.255 183.13 220.967C185.483 218.679 188.316 216.944 191.424 215.888C194.531 214.833 197.835 214.483 201.095 214.864C205.968 215.434 210.767 217.623 215.603 216.809C224.47 215.313 229.034 204.752 237.453 201.591C248.219 197.55 260.762 206.997 271.379 202.573C275.681 200.786 278.805 196.961 282.799 194.585C286.223 192.536 291.218 191.938 294.024 194.304V169.498C291.218 174.989 284.203 177.655 277.907 177.131C271.238 176.579 265.158 173.23 259.359 169.9C253.56 166.57 247.602 163.1 240.951 162.24C231.504 161.033 222.337 165.252 213.171 167.852C204.893 170.19 195.979 171.191 187.719 168.787L186.905 168.507C185.885 169.493 184.722 170.32 183.454 170.957C176.429 174.362 167.048 169.798 160.631 174.25C156.777 176.916 155.44 181.911 152.615 185.643C147.405 192.527 134.843 194.519 127.64 189.693V246.666V254.037H131.382C134.482 249.313 138.637 245.374 143.52 242.53C148.403 239.686 153.879 238.015 159.518 237.649V237.649ZM268.021 186.84C268.445 186.508 268.937 186.272 269.461 186.148L269.658 186.073H269.583C270.618 185.77 271.729 185.869 272.694 186.351C273.66 186.833 274.407 187.661 274.786 188.671C275.166 189.681 275.149 190.797 274.741 191.795C274.332 192.793 273.561 193.6 272.582 194.053C271.604 194.507 270.49 194.574 269.464 194.24C268.438 193.907 267.576 193.198 267.051 192.256C266.526 191.314 266.376 190.208 266.633 189.16C266.889 188.112 267.532 187.2 268.432 186.606L268.021 186.84Z" fill="#FAFAFA"/>
<path d="M294.061 194.285C291.18 191.919 286.223 192.518 282.837 194.566C278.843 196.97 275.719 200.768 271.416 202.554C260.8 206.978 248.256 197.531 237.49 201.572C229.072 204.734 224.507 215.294 215.64 216.79C210.804 217.604 206.006 215.415 201.132 214.845C197.873 214.464 194.571 214.814 191.464 215.869C188.357 216.924 185.524 218.658 183.171 220.945C180.818 223.232 179.004 226.014 177.86 229.089C176.717 232.165 176.273 235.456 176.56 238.725L180.236 239.66C185.577 240.278 190.843 240.39 195.913 238.678C210.524 233.739 218.483 215.126 233.805 213.358C242.307 212.376 250.791 217.099 259.219 215.668C266.066 214.508 271.51 209.541 277.159 205.519C282.809 201.497 288.271 197.793 294.576 200.103V194.688C294.389 194.566 294.23 194.416 294.061 194.285Z" fill="#764AF1"/>
<path d="M277.122 205.51C271.51 209.532 266.028 214.499 259.181 215.659C250.763 217.099 242.27 212.366 233.767 213.348C218.446 215.116 210.486 233.73 195.876 238.669C190.806 240.38 185.587 240.268 180.199 239.651C173.352 238.865 166.374 237.247 159.518 237.612C153.892 237.989 148.431 239.665 143.562 242.508C138.693 245.352 134.55 249.285 131.457 253.999H135.198C138.883 250.262 143.549 247.642 148.658 246.442C152.413 245.554 156.314 245.473 160.103 246.203C163.892 246.933 167.483 248.459 170.639 250.679C172.07 251.708 173.445 252.886 174.783 254.046H202.676C203.91 253.345 205.145 252.653 206.417 252.016C211.468 249.454 217.239 247.667 222.786 248.846C226.171 249.499 229.205 251.357 231.326 254.074H261.183C261.661 253.079 262.335 252.189 263.164 251.46C263.993 250.73 264.961 250.175 266.01 249.828C268.264 249.136 270.864 249.397 272.782 248.041C275.027 246.47 275.447 243.364 276.364 240.811C278.899 233.636 287.083 228.997 294.548 230.4V200.132C288.234 197.821 282.678 201.591 277.122 205.51ZM250.763 248.153C246.002 250.492 239.492 247.863 237.668 242.887C236.255 238.959 238.042 234.291 241.409 231.897L240.661 232.243C241.5 231.594 242.451 231.105 243.467 230.802C243.773 230.684 244.085 230.584 244.403 230.503L244.234 230.578C248.05 229.755 252.447 231.242 254.57 234.581C257.376 239.062 255.487 245.815 250.763 248.153ZM283.884 214.274C283.304 214.599 282.618 214.68 281.978 214.5C281.338 214.319 280.795 213.891 280.47 213.311C280.145 212.73 280.064 212.045 280.245 211.404C280.426 210.764 280.853 210.222 281.434 209.897L281.181 210.018C281.44 209.816 281.74 209.672 282.061 209.597L282.182 209.551H282.135C282.726 209.427 283.342 209.519 283.871 209.81C284.4 210.101 284.807 210.572 285.019 211.138C285.23 211.703 285.232 212.326 285.024 212.893C284.816 213.46 284.412 213.933 283.884 214.228V214.274Z" fill="#764AF1"/>
<path d="M276.355 240.904C275.419 243.495 275.017 246.563 272.772 248.135C270.902 249.491 268.254 249.229 266 249.921C264.952 250.269 263.984 250.824 263.155 251.553C262.325 252.283 261.652 253.172 261.174 254.168H294.538V230.494C287.074 229.091 278.89 233.73 276.355 240.904Z" fill="#764AF1"/>
<path d="M148.668 246.479C143.558 247.68 138.892 250.299 135.208 254.037L174.792 254.084C173.436 252.924 172.08 251.745 170.649 250.716C167.493 248.496 163.901 246.971 160.113 246.24C156.324 245.51 152.423 245.591 148.668 246.479Z" fill="#764AF1"/>
<path d="M222.777 248.911C217.23 247.732 211.459 249.519 206.408 252.082C205.154 252.718 203.92 253.41 202.666 254.112H231.298C229.177 251.408 226.151 249.562 222.777 248.911V248.911Z" fill="#764AF1"/>
<path d="M211.216 157.404C206.23 157.769 200.927 156.917 196.474 159.275C192.499 161.342 190.086 165.551 186.84 168.628C187.111 168.722 187.382 168.825 187.663 168.9C195.922 171.294 204.836 170.284 213.114 167.964C222.281 165.383 231.438 161.155 240.895 162.352C247.536 163.203 253.504 166.673 259.303 170.013C265.102 173.352 271.173 176.682 277.851 177.234C284.137 177.758 291.124 175.092 293.958 169.601V149.107H222.356C222 154.008 216.154 157.03 211.216 157.404Z" fill="#764AF1"/>
<path d="M266.739 191.479C267.007 192.242 267.492 192.911 268.134 193.403C268.776 193.895 269.547 194.189 270.354 194.25C271.16 194.311 271.967 194.135 272.675 193.745C273.383 193.354 273.963 192.766 274.342 192.052C274.722 191.338 274.885 190.528 274.811 189.723C274.738 188.917 274.432 188.151 273.93 187.516C273.428 186.882 272.752 186.408 271.985 186.152C271.218 185.895 270.393 185.868 269.611 186.073H269.686L269.489 186.148C268.965 186.272 268.473 186.508 268.049 186.84L268.46 186.644C267.697 187.163 267.12 187.911 266.81 188.78C266.501 189.65 266.476 190.595 266.739 191.479V191.479Z" fill="#764AF1"/>
<path d="M244.216 230.578L244.384 230.503C244.067 230.584 243.754 230.684 243.448 230.802C242.432 231.105 241.481 231.594 240.642 232.243L241.391 231.897C238.051 234.291 236.265 238.959 237.649 242.887C239.445 247.863 245.955 250.492 250.744 248.153C255.533 245.815 257.385 239.062 254.551 234.581C252.419 231.242 248.022 229.755 244.216 230.578Z" fill="#764AF1"/>
<g opacity="0.3">
<path opacity="0.3" d="M244.216 230.578L244.384 230.503C244.067 230.584 243.754 230.684 243.448 230.802C242.432 231.105 241.481 231.594 240.642 232.243L241.391 231.897C238.051 234.291 236.265 238.959 237.649 242.887C239.445 247.863 245.955 250.492 250.744 248.153C255.533 245.815 257.385 239.062 254.551 234.581C252.419 231.242 248.022 229.755 244.216 230.578Z" fill="white"/>
</g>
<path d="M284.876 210.645C284.572 210.203 284.141 209.864 283.64 209.672C283.139 209.48 282.592 209.444 282.07 209.569H282.117L281.995 209.616C281.675 209.691 281.375 209.834 281.116 210.037L281.368 209.916C280.949 210.185 280.619 210.572 280.42 211.029C280.222 211.486 280.163 211.991 280.252 212.481C280.34 212.971 280.573 213.424 280.919 213.782C281.265 214.14 281.71 214.388 282.197 214.493C282.684 214.598 283.191 214.556 283.654 214.372C284.118 214.189 284.516 213.872 284.799 213.462C285.082 213.052 285.236 212.567 285.243 212.069C285.251 211.571 285.11 211.082 284.839 210.664L284.876 210.645Z" fill="#764AF1"/>
<path d="M152.652 185.643C155.458 181.901 156.815 176.916 160.668 174.25C167.085 169.798 176.467 174.362 183.491 170.957C184.759 170.32 185.923 169.493 186.943 168.507C190.189 165.467 192.555 161.258 196.568 159.153C201.001 156.843 206.333 157.703 211.319 157.329C216.304 156.955 222 153.971 222.356 149.032H127.35L127.481 189.534L127.678 189.655C134.899 194.519 147.442 192.527 152.652 185.643Z" fill="#764AF1"/>
<g opacity="0.3">
<path opacity="0.3" d="M294.061 194.285C291.18 191.919 286.223 192.518 282.837 194.566C278.843 196.97 275.719 200.768 271.416 202.554C260.8 206.978 248.256 197.531 237.49 201.572C229.072 204.734 224.507 215.294 215.64 216.79C210.804 217.604 206.006 215.415 201.132 214.845C197.873 214.464 194.571 214.814 191.464 215.869C188.357 216.924 185.524 218.658 183.171 220.945C180.818 223.232 179.004 226.014 177.86 229.089C176.717 232.165 176.273 235.456 176.56 238.725L180.236 239.66C185.577 240.278 190.843 240.39 195.913 238.678C210.524 233.739 218.483 215.126 233.805 213.358C242.307 212.376 250.791 217.099 259.219 215.668C266.066 214.508 271.51 209.541 277.159 205.519C282.809 201.497 288.271 197.793 294.576 200.103V194.688C294.389 194.566 294.23 194.416 294.061 194.285Z" fill="white"/>
</g>
<g opacity="0.3">
<path opacity="0.3" d="M195.773 149.07H127.35L127.481 189.571L127.678 189.693C134.899 194.519 147.442 192.499 152.652 185.643C155.458 181.901 156.815 176.916 160.668 174.25C167.085 169.798 176.467 174.362 183.491 170.957C184.759 170.32 185.923 169.493 186.943 168.507C190.189 165.467 192.555 161.258 196.568 159.153C201.001 156.843 206.333 157.703 211.319 157.329C216.304 156.955 222 153.971 222.356 149.032" fill="white"/>
</g>
<path d="M248.228 198.158C247.92 196.97 245.712 188.365 241.681 172.557H241.755L168.451 191.255L168.525 191.133C170.789 200.057 172.978 208.699 175.073 216.753L174.961 216.688L248.284 198.158L175.008 216.865H174.914V216.772C172.866 208.718 170.667 200.075 168.366 191.152V191.058H168.46L241.755 172.473H241.821V172.538C245.759 188.346 247.957 196.961 248.228 198.158Z" fill="#263238"/>
<path d="M248.856 196.723L246.961 197.205L247.442 199.099L249.337 198.618L248.856 196.723Z" fill="#455A64"/>
<path d="M175.622 215.6L173.727 216.081L174.208 217.975L176.103 217.494L175.622 215.6Z" fill="#455A64"/>
<path d="M242.323 171.007L240.428 171.488L240.909 173.383L242.804 172.902L242.323 171.007Z" fill="#455A64"/>
<path d="M205.373 180.393L203.478 180.874L203.959 182.769L205.854 182.287L205.373 180.393Z" fill="#455A64"/>
<path d="M211.912 206.109L210.018 206.59L210.499 208.485L212.394 208.004L211.912 206.109Z" fill="#455A64"/>
<path d="M172.262 202.365L170.367 202.847L170.848 204.741L172.743 204.26L172.262 202.365Z" fill="#455A64"/>
<path d="M245.565 183.727L243.67 184.209L244.151 186.103L246.046 185.622L245.565 183.727Z" fill="#455A64"/>
<path d="M169.114 189.985L167.219 190.467L167.7 192.361L169.595 191.88L169.114 189.985Z" fill="#455A64"/>
<path d="M186.419 193.35L181.144 194.688L180.508 192.19L194.014 188.757L194.65 191.264L189.375 192.602L192.77 206.052L189.814 206.81L186.419 193.35Z" fill="#263238"/>
<path d="M208.831 196.484L199.318 198.906C199.734 199.736 200.44 200.384 201.301 200.729C202.163 201.073 203.121 201.09 203.995 200.777C204.611 200.647 205.193 200.388 205.702 200.017C206.212 199.646 206.637 199.172 206.95 198.626L208.924 199.991C208.476 200.819 207.851 201.536 207.092 202.093C206.333 202.649 205.461 203.03 204.537 203.209C200.468 204.238 197.166 202.274 196.24 198.682C196.006 197.862 195.943 197.003 196.054 196.157C196.165 195.312 196.449 194.498 196.887 193.767C197.326 193.036 197.91 192.402 198.603 191.906C199.296 191.409 200.084 191.06 200.917 190.881C201.733 190.638 202.59 190.568 203.435 190.676C204.279 190.784 205.091 191.068 205.82 191.508C206.548 191.948 207.176 192.536 207.664 193.233C208.152 193.931 208.489 194.722 208.653 195.558C208.718 195.857 208.784 196.203 208.831 196.484ZM198.794 197.026L205.688 195.277C205.388 194.462 204.789 193.791 204.011 193.404C203.234 193.016 202.338 192.94 201.507 193.191C200.656 193.374 199.905 193.87 199.403 194.58C198.9 195.29 198.683 196.163 198.794 197.026V197.026Z" fill="#263238"/>
<path d="M220.307 199.065L216.154 195.651L214.078 200.655L210.944 201.45L214.106 194.089L208.063 189.253L211.225 188.449L215.219 191.676L217.183 186.933L220.251 186.157L217.211 193.247L223.544 198.251L220.307 199.065Z" fill="#263238"/>
<path d="M232.739 195.221C232.075 195.987 231.177 196.513 230.185 196.717C227.528 197.391 225.639 196.371 224.956 193.687L223.478 187.841L221.477 188.346L220.897 186.073L222.898 185.568L222.197 182.762L225.003 182.042L225.705 184.848L228.96 184.015L229.53 186.288L226.284 187.121L227.753 192.892C227.774 193.137 227.85 193.375 227.977 193.587C228.103 193.798 228.276 193.978 228.483 194.113C228.69 194.247 228.924 194.333 229.169 194.363C229.414 194.393 229.662 194.366 229.895 194.285C230.475 194.153 230.991 193.822 231.354 193.35L232.739 195.221Z" fill="#263238"/>
<path d="M246.75 192.359C246.75 192.405 230.363 196.624 210.131 201.759C189.899 206.894 173.464 211.029 173.455 210.972C173.445 210.916 189.833 206.717 210.074 201.619C230.316 196.521 246.732 192.302 246.75 192.359Z" fill="#263238"/>
<path d="M399.674 192.976C400.214 192.666 400.709 192.282 401.142 191.835C402.319 190.47 402.963 188.726 402.957 186.924C403 185.637 402.747 184.357 402.218 183.183C401.565 181.796 400.53 180.625 399.234 179.806C397.626 178.851 395.809 178.303 393.942 178.208C392.074 178.114 390.211 178.476 388.515 179.263C384.624 180.816 381.144 183.94 377.29 186.99C375.323 188.635 373.169 190.044 370.874 191.189C368.383 192.332 365.682 192.944 362.942 192.985C360.002 193.003 357.09 192.404 354.396 191.226C351.702 190.049 349.286 188.318 347.302 186.148C345.192 183.847 343.688 181.056 342.925 178.029C342.058 174.889 342.444 171.536 344.001 168.675C344.816 167.258 345.958 166.055 347.331 165.167C348.684 164.254 350.291 163.789 351.923 163.839C353.537 163.962 355.053 164.659 356.198 165.803C357.289 166.934 358.072 168.325 358.471 169.844C359.328 172.781 358.991 175.937 357.535 178.627C356.027 181.127 353.675 183.005 350.904 183.922C348.299 184.81 345.512 185.023 342.803 184.539C340.277 184.058 337.835 183.21 335.554 182.023C331.121 179.797 327.417 177.047 323.797 174.942C320.625 172.918 317.104 171.503 313.414 170.77C310.611 170.289 307.73 170.58 305.08 171.612C303.405 172.259 301.892 173.265 300.646 174.559L300.104 175.167C299.963 175.344 299.851 175.503 299.748 175.625L299.449 175.999C299.528 175.86 299.616 175.726 299.711 175.597L300.048 175.12L300.581 174.493C301.807 173.154 303.319 172.108 305.005 171.434C307.674 170.363 310.584 170.039 313.423 170.499C317.172 171.206 320.754 172.612 323.984 174.643C327.622 176.738 331.345 179.469 335.741 181.667C337.991 182.822 340.394 183.647 342.878 184.118C345.517 184.58 348.229 184.367 350.763 183.501C353.43 182.612 355.692 180.801 357.143 178.394C358.534 175.813 358.853 172.789 358.031 169.975C357.647 168.537 356.907 167.218 355.88 166.14C354.816 165.083 353.41 164.439 351.914 164.326C350.384 164.282 348.878 164.72 347.611 165.579C346.307 166.429 345.221 167.572 344.44 168.918C342.951 171.673 342.583 174.897 343.411 177.917C344.154 180.865 345.62 183.581 347.677 185.82C349.616 187.955 351.984 189.656 354.626 190.813C357.267 191.97 360.123 192.558 363.007 192.536C365.683 192.497 368.323 191.908 370.762 190.806C373.029 189.673 375.159 188.286 377.113 186.672C380.929 183.613 384.455 180.498 388.431 178.936C392.406 177.374 396.615 177.664 399.431 179.572C400.756 180.432 401.813 181.648 402.48 183.08C403.009 184.293 403.252 185.611 403.191 186.933C403.177 188.771 402.488 190.538 401.255 191.9C401.071 192.105 400.864 192.287 400.637 192.443C400.488 192.572 400.321 192.679 400.141 192.761L399.674 192.976Z" fill="#263238"/>
<g opacity="0.3">
<path opacity="0.3" d="M276.355 240.904C275.419 243.495 275.017 246.563 272.772 248.135C270.902 249.491 268.254 249.229 266 249.921C264.952 250.269 263.984 250.824 263.155 251.553C262.325 252.283 261.652 253.172 261.174 254.168H294.538V230.494C287.074 229.091 278.89 233.73 276.355 240.904Z" fill="black"/>
</g>
<g opacity="0.3">
<path opacity="0.3" d="M284.876 210.645C284.572 210.203 284.141 209.864 283.64 209.672C283.139 209.48 282.592 209.444 282.07 209.569H282.117L281.995 209.616C281.675 209.691 281.375 209.834 281.116 210.037L281.368 209.916C280.949 210.185 280.619 210.572 280.42 211.029C280.222 211.486 280.163 211.991 280.252 212.481C280.34 212.971 280.573 213.424 280.919 213.782C281.265 214.14 281.71 214.388 282.197 214.493C282.684 214.598 283.191 214.556 283.654 214.372C284.118 214.189 284.516 213.872 284.799 213.462C285.082 213.052 285.236 212.567 285.243 212.069C285.251 211.571 285.11 211.082 284.839 210.664L284.876 210.645Z" fill="black"/>
</g>
<g opacity="0.3">
<path opacity="0.3" d="M148.668 246.479C143.558 247.68 138.892 250.299 135.208 254.037L174.792 254.084C173.436 252.924 172.08 251.745 170.649 250.716C167.493 248.496 163.901 246.971 160.113 246.24C156.324 245.51 152.423 245.591 148.668 246.479Z" fill="black"/>
</g>
<g opacity="0.3">
<path opacity="0.3" d="M222.777 248.911C217.23 247.732 211.459 249.519 206.408 252.082C205.154 252.718 203.92 253.41 202.666 254.112H231.298C229.177 251.408 226.151 249.562 222.777 248.911V248.911Z" fill="black"/>
</g>
<path d="M170.593 303.703C173.167 301.148 179.102 300.251 184.391 300.349C189.68 300.448 194.885 301.293 200.202 301.174C212.269 300.857 222.735 295.528 234.839 295.72C242.094 295.834 249.18 297.965 256.304 297.224C258.036 297.042 260.049 296.741 261.341 297.415C261.804 297.721 262.066 298.105 262.084 298.504C262.103 298.904 261.877 299.294 261.444 299.613C260.543 300.24 259.371 300.73 258.036 301.039C239.604 306.223 218.26 306.7 197.759 308.125C192.517 308.488 187.181 308.918 181.976 308.41C176.771 307.902 171.604 306.269 169.507 303.584" fill="#764AF1"/>
<g opacity="0.5">
<path opacity="0.5" d="M170.667 303.152C173.24 300.239 179.17 299.217 184.455 299.329C189.74 299.442 194.94 300.405 200.253 300.269C212.31 299.909 222.768 293.834 234.862 294.053C242.111 294.183 249.192 296.611 256.31 295.766C258.04 295.56 260.051 295.217 261.342 295.985C261.805 296.334 262.067 296.772 262.085 297.226C262.104 297.681 261.878 298.127 261.445 298.49C260.545 299.205 259.374 299.764 258.04 300.115C239.623 306.024 218.296 306.568 197.812 308.193C192.574 308.606 187.242 309.097 182.042 308.518C176.841 307.939 171.678 306.077 169.582 303.017" fill="black"/>
</g>
<path d="M316.37 269.882L282.977 210.954L280.255 205.688C279.638 204.495 278.728 203.479 277.611 202.734C276.493 201.99 275.205 201.542 273.867 201.432L268.479 200.992C268.479 200.992 268.872 194.744 265.953 195.23C264.083 195.558 257.273 201.394 258.592 203.115C259.911 204.836 263.774 200.403 263.774 200.403L265.252 211.328C265.252 211.328 255.01 205.37 253.354 205.716C253.023 205.763 252.716 205.917 252.479 206.154C252.243 206.391 252.09 206.698 252.044 207.029C251.997 207.361 252.06 207.698 252.222 207.991C252.384 208.284 252.637 208.516 252.943 208.653C258.056 211.562 262.159 215.965 264.7 221.271V221.271L288.365 274.1L280.274 280.564L289.88 305.679L310.112 291.835C312.01 290.851 313.687 289.49 315.04 287.834C316.392 286.179 317.392 284.265 317.978 282.209C318.564 280.153 318.724 277.999 318.447 275.879C318.171 273.759 317.464 271.719 316.37 269.882V269.882Z" fill="#FFBE9D"/>
<path d="M248.655 200.263L247.677 199.753L247.586 199.927L248.565 200.437L248.655 200.263Z" fill="#263238"/>
<path d="M248.528 200.075L252.727 200.197L276.617 213.339C277.032 213.566 277.34 213.948 277.475 214.402C277.61 214.856 277.56 215.344 277.337 215.762V215.762C277.111 216.183 276.727 216.497 276.269 216.636C275.811 216.774 275.317 216.726 274.896 216.5L251.193 203.836L248.303 200.552C248.267 200.51 248.244 200.458 248.237 200.403C248.23 200.348 248.239 200.292 248.262 200.242C248.286 200.192 248.323 200.149 248.371 200.12C248.418 200.09 248.472 200.075 248.528 200.075V200.075Z" fill="#263238"/>
<path d="M274.231 212.02L272.538 215.275L271.566 214.77L273.268 211.496L274.231 212.02Z" fill="#455A64"/>
<path d="M178.225 213.217C176.542 213.049 170.209 218.699 170.209 218.699L167.076 207.381C167.076 207.381 171.275 207.755 172.407 205.903C173.539 204.051 162.118 204.228 161.884 205.482C161.65 206.735 162.539 210.159 162.539 210.159L158.227 210.991C156.461 211.332 154.848 212.227 153.624 213.545C152.4 214.864 151.627 216.538 151.418 218.324L150.716 224.348L150.838 224.404L117.464 280.152C114.894 284.444 113.918 289.504 114.707 294.443C115.495 299.383 117.998 303.887 121.776 307.166L155.206 330.915L167.684 303.724L142.971 287.486L171.257 232.879C171.257 232.879 177.636 216.884 178.936 216.098C179.227 215.931 179.455 215.675 179.587 215.366C179.719 215.058 179.747 214.715 179.666 214.39C179.586 214.064 179.402 213.774 179.142 213.562C178.882 213.351 178.56 213.23 178.225 213.217Z" fill="#FFBE9D"/>
<path d="M294.941 307.25L294.548 303.368C294.32 301.093 293.634 298.888 292.529 296.886C291.425 294.885 289.925 293.128 288.122 291.723V291.723C286.02 290.078 284.337 287.96 283.209 285.541C282.081 283.123 281.54 280.472 281.63 277.805L281.686 276.196L264.597 286.691C262.781 287.917 261.078 289.304 259.509 290.834V290.75C259.509 290.75 223.029 291.349 170.022 299.094L149.949 291.835L151.679 293.191C152.615 298.523 150.856 303.237 147.105 307.147C145.529 308.799 144.302 310.753 143.498 312.89C142.695 315.028 142.331 317.306 142.429 319.588L142.597 323.488C142.597 323.488 154.579 331.298 163.297 334.235L163.624 334.329C178.252 340.833 194.182 343.877 210.177 343.224C242.794 341.896 269.601 324.517 273.118 322.16C281.303 317.876 294.941 307.25 294.941 307.25Z" fill="#764AF1"/>
<path d="M169.975 299.094C170.107 299.169 170.226 299.264 170.331 299.374C170.565 299.571 170.883 299.87 171.266 300.263C172.395 301.386 173.419 302.61 174.325 303.92C175.669 305.879 176.695 308.038 177.365 310.318C178.233 313.112 178.479 316.062 178.085 318.961C177.865 320.461 177.424 321.921 176.775 323.292C176.151 324.55 175.428 325.757 174.615 326.902C173.285 328.876 171.594 330.581 169.629 331.925C168.296 332.811 166.84 333.498 165.308 333.964C164.896 334.095 164.478 334.205 164.054 334.291C163.91 334.34 163.758 334.362 163.605 334.357C163.605 334.31 164.195 334.17 165.242 333.786C166.728 333.262 168.137 332.542 169.433 331.644C171.33 330.283 172.962 328.587 174.25 326.64C175.035 325.509 175.736 324.321 176.345 323.086C176.965 321.754 177.39 320.339 177.608 318.886C177.984 316.064 177.754 313.194 176.934 310.468C176.298 308.221 175.32 306.085 174.035 304.135C173.164 302.814 172.191 301.563 171.126 300.394C170.72 299.98 170.336 299.546 169.975 299.094V299.094Z" fill="#263238"/>
<g opacity="0.2">
<path opacity="0.2" d="M263.157 327.94C265.804 326.07 264.485 322.207 261.557 320.822C258.63 319.438 255.15 320.27 252.063 321.281C242.102 324.536 232.682 329.306 222.73 332.608C212.778 335.91 201.899 337.668 191.863 334.712C184.857 332.664 180.143 328.053 172.894 328.876C169.592 329.25 168.563 333.45 163.671 334.488C170.713 337.565 178.067 339.873 185.605 341.372C194.61 343.173 203.816 343.748 212.974 343.084C222.375 342.311 231.654 340.446 240.624 337.528C248.404 335.006 255.944 331.797 263.157 327.94Z" fill="black"/>
</g>
<g opacity="0.2">
<path opacity="0.2" d="M177.879 312.825C177.879 312.825 178.749 303.967 173.399 298.598L169.835 299.14C169.835 299.14 174.53 302.517 177.879 312.825Z" fill="black"/>
</g>
<path d="M194.856 289.282C194.669 289.768 196.661 310.271 196.661 310.271C196.661 310.271 207.053 324.769 223.394 310.655L225.368 288.299L194.856 289.282Z" fill="#FFBE9D"/>
<g opacity="0.2">
<path opacity="0.2" d="M196.661 310.271C196.661 310.271 191.844 302.274 190.507 296.316L194.463 295.838L195.399 296.952L196.661 310.271Z" fill="black"/>
</g>
<path d="M282.509 316.071C282.387 316.18 282.252 316.274 282.107 316.351C281.836 316.519 281.434 316.763 280.901 317.043C279.396 317.88 277.785 318.51 276.112 318.914C274.947 319.183 273.749 319.278 272.557 319.195C271.191 319.076 269.843 318.793 268.544 318.353C265.559 317.312 262.907 315.491 260.865 313.077C259.797 311.847 258.915 310.466 258.246 308.98C257.649 307.6 257.164 306.173 256.796 304.715C256.108 302.249 255.914 299.671 256.226 297.129C256.458 295.416 257.072 293.776 258.022 292.331C258.277 291.939 258.565 291.57 258.882 291.227C259.097 290.993 259.209 290.872 259.228 290.89C259.152 291.034 259.062 291.169 258.957 291.293C258.672 291.655 258.413 292.036 258.181 292.434C257.313 293.883 256.761 295.499 256.562 297.176C256.31 299.671 256.536 302.192 257.226 304.603C257.605 306.032 258.093 307.43 258.686 308.784C259.338 310.224 260.195 311.563 261.23 312.759C265.495 317.735 271.921 319.531 276.046 318.531C277.699 318.165 279.301 317.6 280.816 316.847C281.901 316.36 282.491 316.033 282.509 316.071Z" fill="#263238"/>
<path d="M259.181 310.898L259.004 311.02L258.442 311.328L256.254 312.507C255.318 313.021 254.14 313.639 252.746 314.265C251.352 314.892 249.8 315.706 248.004 316.407C246.208 317.109 244.262 317.969 242.13 318.699C239.997 319.428 237.687 320.205 235.245 320.953C229.926 322.481 224.511 323.653 219.035 324.461C213.554 325.207 208.03 325.604 202.498 325.649H198.757C197.55 325.649 196.381 325.546 195.249 325.508C192.985 325.424 190.881 325.209 188.963 325.031C187.046 324.854 185.315 324.592 183.8 324.405C182.285 324.218 180.994 323.984 179.918 323.787L177.477 323.338L176.85 323.207C176.776 323.202 176.703 323.183 176.635 323.151H176.869L177.505 323.235L179.956 323.591C181.022 323.759 182.322 323.965 183.837 324.124C185.353 324.283 187.083 324.554 189.001 324.676C190.918 324.798 193.013 325.031 195.277 325.087C196.409 325.087 197.569 325.218 198.775 325.218H202.517C208.031 325.151 213.535 324.742 218.998 323.993C224.453 323.194 229.852 322.047 235.161 320.56C237.593 319.831 239.913 319.148 242.027 318.353C244.141 317.558 246.124 316.838 247.901 316.127C249.678 315.416 251.259 314.667 252.662 314.059C254.065 313.451 255.243 312.862 256.207 312.376L258.433 311.207L259.013 310.935L259.181 310.898Z" fill="#263238"/>
<g opacity="0.2">
<path opacity="0.2" d="M205.865 316.005C205.481 317.005 205.348 318.083 205.478 319.146C205.607 320.209 205.996 321.224 206.609 322.102C207.222 322.98 208.041 323.694 208.994 324.182C209.947 324.67 211.006 324.917 212.076 324.9C213.037 324.751 214.018 324.786 214.967 325.003C216.061 325.434 216.669 326.565 217.389 327.491C218.475 328.889 219.963 329.921 221.654 330.445C223.344 330.97 225.155 330.963 226.841 330.426C228.528 329.888 230.008 328.845 231.083 327.439C232.158 326.033 232.775 324.33 232.851 322.562C232.792 321.906 232.95 321.249 233.3 320.691C234.235 319.606 235.919 320.691 237.191 321.318C240.418 323.002 244.758 321.318 246.545 318.147C248.331 314.976 247.77 310.823 245.721 307.811C243.536 304.861 240.418 302.735 236.873 301.778C234.637 301.095 232.196 300.684 230.447 299.131C227.931 296.895 227.697 293.117 227.641 289.777" fill="black"/>
</g>
<path d="M232.449 252.391C234.74 257.404 235.928 260.294 236.274 265.645C237.036 274.818 234.608 283.974 229.399 291.564C229.399 291.62 229.399 291.498 229.399 291.564C225.508 297.494 213.853 304.883 210.402 305.884C206.95 306.885 193.229 298.336 190.45 288.73C187.672 279.123 184.118 273.287 188.842 256.487C193.677 239.277 216.903 238.669 216.903 238.669C216.903 238.669 232.477 238.669 235.329 247.704C238.182 256.74 232.449 252.391 232.449 252.391Z" fill="#263238"/>
<path d="M231.99 253.036C231.251 252.186 230.451 251.392 229.596 250.66C227.488 248.939 224.842 248.015 222.121 248.049C219.4 248.083 216.778 249.074 214.714 250.847C213.874 251.598 213.095 252.414 212.385 253.289C212.485 252.998 212.634 252.726 212.825 252.484C213.301 251.795 213.86 251.167 214.489 250.613C216.575 248.704 219.29 247.629 222.117 247.593C224.945 247.556 227.686 248.562 229.82 250.417C230.461 250.969 231.033 251.597 231.523 252.288C231.714 252.513 231.872 252.765 231.99 253.036V253.036Z" fill="#455A64"/>
<path d="M212.057 239.791C212.123 239.847 211.543 240.465 210.907 241.662C210.075 243.172 209.647 244.871 209.664 246.594C209.68 248.318 210.14 250.008 211.001 251.502C211.655 252.662 212.245 253.26 212.188 253.317C211.579 252.889 211.074 252.33 210.711 251.68C209.719 250.168 209.183 248.403 209.167 246.596C209.15 244.788 209.654 243.014 210.617 241.484C210.966 240.82 211.458 240.242 212.057 239.791V239.791Z" fill="#455A64"/>
<path d="M199.149 243.28C199.333 244.097 199.573 244.901 199.87 245.684C200.738 247.511 202.119 249.045 203.845 250.099C205.601 251.124 207.489 251.901 209.457 252.409C210.29 252.592 211.106 252.842 211.898 253.158C211.044 253.115 210.197 252.977 209.373 252.746C207.335 252.327 205.382 251.572 203.592 250.511C201.783 249.42 200.368 247.782 199.552 245.834C199.318 245.234 199.173 244.604 199.121 243.963C199.084 243.736 199.093 243.503 199.149 243.28Z" fill="#455A64"/>
<path d="M366.955 30.9046H222.926V138.294H366.955V30.9046Z" fill="white"/>
<path d="M366.955 138.294C366.955 138.294 366.955 137.621 366.955 136.33C366.955 135.039 366.955 133.122 366.955 130.624C366.955 125.62 366.955 118.287 366.898 108.924C366.898 90.2164 366.842 63.39 366.796 30.9046L366.992 31.101H222.945L223.188 30.8578C223.188 69.4418 223.188 105.996 223.188 138.248L222.964 138.032L326.911 138.135L356.45 138.201H364.279H366.3H366.992H366.328H364.336H356.544L327.052 138.257L222.964 138.369H222.702V138.145C222.702 105.893 222.702 69.3389 222.702 30.7549V30.5117H222.964H367.011H367.216V30.7175C367.17 63.259 367.132 90.1228 367.114 108.868C367.114 118.221 367.067 125.527 367.057 130.512C367.057 132.991 367.057 134.89 367.057 136.18C367.057 137.471 366.955 138.294 366.955 138.294Z" fill="#263238"/>
<path d="M384.773 94.3039H297.195V128.351H384.773V94.3039Z" fill="#FAFAFA"/>
<path d="M384.773 128.351C384.773 128.351 384.773 128.136 384.773 127.734C384.773 127.332 384.773 126.733 384.773 125.966C384.773 124.413 384.773 122.131 384.727 119.203C384.727 113.329 384.68 104.845 384.642 94.3038L384.811 94.4722L297.232 94.547L297.475 94.3038C297.475 106.202 297.475 117.688 297.475 128.351L297.242 128.117L359.967 128.22L378.207 128.286H383.108H384.371H384.82H384.409H383.165H378.319L360.126 128.351L297.242 128.464H297.008V128.23C297.008 117.585 297.008 106.08 297.008 94.1822V93.9391H297.251L384.829 94.0139H384.998V94.1822C384.951 104.761 384.923 113.292 384.904 119.185C384.904 122.103 384.904 124.357 384.858 125.91C384.858 126.668 384.858 127.238 384.858 127.65C384.858 128.061 384.773 128.351 384.773 128.351Z" fill="#263238"/>
<path d="M384.773 94.3039H297.195V101.6H384.773V94.3039Z" fill="#263238"/>
<path d="M316.192 107.165H307.596V115.761H316.192V107.165Z" fill="#263238"/>
<path d="M321.402 112.366H312.806V120.962H321.402V112.366Z" fill="#263238"/>
<path d="M336.695 107.165H328.099V115.761H336.695V107.165Z" fill="#263238"/>
<path d="M341.905 112.366H333.309V120.962H341.905V112.366Z" fill="#F5F5F5"/>
<path d="M341.905 120.971C341.878 120.751 341.862 120.529 341.859 120.307C341.859 119.821 341.859 119.241 341.803 118.539C341.803 117.024 341.718 114.901 341.7 112.366L341.905 112.581H333.309L333.553 112.338V114.648C333.553 115.406 333.553 116.145 333.553 116.865C333.553 118.305 333.553 119.671 333.553 120.925L333.347 120.709C335.882 120.709 338.024 120.784 339.511 120.822L341.288 120.878C341.507 120.875 341.726 120.891 341.943 120.925C341.753 120.948 341.562 120.948 341.372 120.925L339.651 120.981C338.155 120.981 335.975 121.065 333.347 121.084H333.076V120.868C333.076 119.606 333.076 118.249 333.076 116.809C333.076 116.089 333.076 115.35 333.076 114.592V112.282C332.86 112.497 333.375 111.982 333.319 112.029H341.915H342.13V112.235C342.13 114.863 342.064 117.043 342.018 118.539C342.018 119.222 342.018 119.793 341.971 120.27C341.99 120.506 341.968 120.743 341.905 120.971V120.971Z" fill="#263238"/>
<path d="M355.824 107.165H347.228V115.761H355.824V107.165Z" fill="#F5F5F5"/>
<path d="M355.824 115.761C355.796 115.541 355.781 115.319 355.777 115.097C355.777 114.623 355.758 114.034 355.721 113.329C355.721 111.814 355.637 109.691 355.618 107.165L355.824 107.371H347.228C347.172 107.371 347.686 106.903 347.471 107.128V109.42C347.471 110.177 347.471 110.916 347.471 111.636C347.471 113.077 347.471 114.442 347.471 115.696L347.256 115.49C349.791 115.49 351.933 115.556 353.42 115.593L355.197 115.649C355.416 115.647 355.635 115.662 355.852 115.696C355.662 115.719 355.471 115.719 355.281 115.696L353.56 115.752C352.064 115.752 349.884 115.836 347.256 115.864H347.05V115.649C347.05 114.396 347.05 113.03 347.05 111.59C347.05 110.869 347.05 110.13 347.05 109.373V107.081L347.293 106.838H355.889H356.104V107.053C356.104 109.672 356.039 111.851 356.001 113.348C356.001 114.031 355.955 114.601 355.945 115.079C355.944 115.311 355.903 115.542 355.824 115.761Z" fill="#263238"/>
<path d="M361.034 112.366H352.438V120.962H361.034V112.366Z" fill="#F5F5F5"/>
<path d="M361.034 120.971C361.006 120.751 360.991 120.529 360.987 120.307C360.987 119.821 360.987 119.241 360.931 118.539C360.931 117.024 360.847 114.901 360.828 112.366L361.034 112.581H352.438L352.681 112.338V114.648C352.681 115.406 352.681 116.145 352.681 116.865C352.681 118.305 352.681 119.671 352.681 120.925L352.475 120.709C355.01 120.709 357.152 120.784 358.639 120.822L360.416 120.878C360.636 120.875 360.854 120.891 361.071 120.925C360.882 120.948 360.69 120.948 360.501 120.925L358.779 120.981C357.273 120.981 355.103 121.065 352.475 121.084H352.26V120.868C352.26 119.606 352.26 118.249 352.26 116.809C352.26 116.089 352.26 115.35 352.26 114.592V112.282C352.045 112.497 352.559 111.982 352.503 112.029H361.099H361.314V112.235C361.314 114.863 361.249 117.043 361.202 118.539C361.202 119.222 361.202 119.793 361.155 120.27C361.156 120.509 361.115 120.746 361.034 120.971V120.971Z" fill="#263238"/>
<path d="M355.833 112.366H352.438V115.761H355.833V112.366Z" fill="#263238"/>
<path d="M373.409 107.165H364.813V115.761H373.409V107.165Z" fill="#263238"/>
<path d="M378.619 112.366H370.023V120.962H378.619V112.366Z" fill="#263238"/>
<path d="M373.418 112.366H370.023V115.761H373.418V112.366Z" fill="#FAFAFA"/>
<path d="M402.087 198.149H317.923V230.868H402.087V198.149Z" fill="#FAFAFA"/>
<path d="M402.209 230.989H317.81V198.027H402.209V230.989ZM318.025 230.756H401.956V198.27H318.044L318.025 230.756Z" fill="#222221"/>
<path d="M402.087 198.149H317.923V205.164H402.087V198.149Z" fill="#263238"/>
<path d="M330.99 213.91H322.674V222.225H330.99V213.91Z" fill="#F5F5F5"/>
<path d="M330.99 222.225C330.949 222.015 330.93 221.802 330.934 221.589C330.934 221.112 330.934 220.551 330.934 219.877C330.887 218.409 330.84 216.36 330.821 213.91L331.036 214.125H322.721C322.665 214.181 323.179 213.666 322.964 213.891V218.268C322.964 219.662 322.964 220.972 322.964 222.188L322.758 221.982C325.2 221.982 327.258 222.047 328.717 222.085L330.428 222.141C330.644 222.145 330.86 222.161 331.074 222.188C330.335 222.267 329.591 222.301 328.848 222.29C327.398 222.29 325.293 222.384 322.758 222.403H322.543V222.188C322.543 220.972 322.543 219.662 322.543 218.268V213.928L322.796 213.676H331.111H331.205V213.928C331.205 216.472 331.139 218.605 331.102 220.027C331.065 221.449 331.018 222.262 330.99 222.225Z" fill="#263238"/>
<path d="M322.674 222.225C323.877 220.674 325.21 219.228 326.659 217.904C327.987 216.452 329.436 215.116 330.99 213.91C329.783 215.463 328.447 216.912 326.996 218.24C325.671 219.689 324.225 221.022 322.674 222.225Z" fill="#764AF1"/>
<path d="M341.803 213.91H333.487V222.225H341.803V213.91Z" fill="#263238"/>
<path d="M352.625 213.91H344.309V222.225H352.625V213.91Z" fill="#455A64"/>
<path d="M363.447 213.91H355.132V222.225H363.447V213.91Z" fill="#764AF1"/>
<path d="M374.269 213.91H365.954V222.225H374.269V213.91Z" fill="#764AF1"/>
<g opacity="0.5">
<path opacity="0.5" d="M374.269 213.91H365.954V222.225H374.269V213.91Z" fill="white"/>
</g>
<path d="M385.091 213.91H376.776V222.225H385.091V213.91Z" fill="#764AF1"/>
<g opacity="0.3">
<path opacity="0.3" d="M385.091 213.91H376.776V222.225H385.091V213.91Z" fill="black"/>
</g>
<path d="M395.904 213.91H387.589V222.225H395.904V213.91Z" fill="#764AF1"/>
<g opacity="0.7">
<path opacity="0.7" d="M395.904 213.91H387.589V222.225H395.904V213.91Z" fill="black"/>
</g>
<path d="M187.972 30.9046H70.2836V112.862H187.972V30.9046Z" fill="white"/>
<path d="M187.972 112.908C187.972 112.908 187.972 112.394 187.972 111.412C187.972 110.43 187.972 108.97 187.972 107.072C187.972 103.265 187.972 97.718 187.972 90.5624C187.972 76.3074 187.906 55.8415 187.869 30.9514L188.065 31.1478H70.3865L70.6297 30.9046C70.6297 60.191 70.6297 88.0089 70.6297 112.862L70.4146 112.637L155.243 112.749L179.432 112.805H185.867H187.523H188.103H187.551H185.914H179.525L155.383 112.871L70.4146 112.974H70.1901V112.908C70.1901 88.0556 70.1901 60.2378 70.1901 30.9514V30.7082H70.4426L188.121 30.7549H188.318V30.9514C188.093 55.8509 188.093 76.3542 188.093 90.6373C188.093 97.7461 188.047 103.311 188.037 107.1C188.037 108.97 188.037 110.42 188.037 111.402C188.037 112.385 187.972 112.908 187.972 112.908Z" fill="#263238"/>
<path d="M187.972 30.9046H70.2836V41.1469H187.972V30.9046Z" fill="#263238"/>
<path d="M76.6722 36.311C76.663 36.553 76.5829 36.7869 76.4418 36.9837C76.3006 37.1805 76.1048 37.3315 75.8785 37.4178C75.6522 37.5041 75.4056 37.522 75.1692 37.4692C74.9329 37.4164 74.7173 37.2953 74.5493 37.1209C74.3812 36.9465 74.2682 36.7266 74.2242 36.4884C74.1803 36.2503 74.2073 36.0045 74.302 35.7816C74.3966 35.5587 74.5547 35.3685 74.7567 35.2348C74.9586 35.1011 75.1953 35.0297 75.4375 35.0295C75.7708 35.0369 76.0876 35.1758 76.3189 35.4158C76.5502 35.6559 76.6772 35.9777 76.6722 36.311Z" fill="white"/>
<path d="M81.6484 36.311C81.6374 36.5507 81.5563 36.7818 81.4151 36.9758C81.274 37.1698 81.079 37.3181 80.8544 37.4023C80.6297 37.4865 80.3853 37.5029 80.1514 37.4494C79.9175 37.396 79.7045 37.2751 79.5387 37.1017C79.3729 36.9283 79.2616 36.7101 79.2187 36.474C79.1758 36.238 79.2031 35.9946 79.2973 35.7739C79.3915 35.5533 79.5483 35.3651 79.7485 35.2328C79.9486 35.1005 80.1831 35.0298 80.423 35.0295C80.7547 35.0393 81.0691 35.1793 81.2984 35.4191C81.5277 35.6589 81.6534 35.9793 81.6484 36.311Z" fill="white"/>
<path d="M86.6245 36.311C86.6135 36.5507 86.5324 36.7818 86.3913 36.9758C86.2501 37.1698 86.0551 37.3181 85.8305 37.4023C85.6059 37.4865 85.3614 37.5029 85.1276 37.4494C84.8937 37.396 84.6806 37.2751 84.5148 37.1017C84.349 36.9283 84.2378 36.7101 84.1949 36.474C84.152 36.238 84.1793 35.9946 84.2735 35.7739C84.3676 35.5533 84.5245 35.3651 84.7246 35.2328C84.9247 35.1005 85.1593 35.0298 85.3992 35.0295C85.5638 35.0332 85.7261 35.0692 85.8767 35.1356C86.0274 35.202 86.1635 35.2974 86.2773 35.4164C86.3911 35.5354 86.4804 35.6757 86.5399 35.8292C86.5995 35.9827 86.6282 36.1464 86.6245 36.311V36.311Z" fill="white"/>
<path d="M98.2418 51.1834H81.4706V91.423H98.2418V51.1834Z" fill="#764AF1"/>
<path d="M124.105 51.1834H107.334V91.423H124.105V51.1834Z" fill="#EBEBEB"/>
<path d="M149.968 51.1834H133.197V91.423H149.968V51.1834Z" fill="#FAFAFA"/>
<path d="M175.831 51.4921H159.06V91.7316H175.831V51.4921Z" fill="#E0E0E0"/>
<path d="M181.181 95.8566H79.5251V105.051H181.181V95.8566Z" fill="#764AF1"/>
<path d="M173.455 103.171L175.644 114.246L177.44 111.15L181.303 116.669L183.229 115.425L179.366 109.906L182.921 109.391L173.455 103.171Z" fill="#263238"/>
<path d="M142.868 122.599H91.0675V211.45H142.868V122.599Z" fill="#FAFAFA"/>
<path d="M142.868 211.45C142.868 211.45 142.868 211.3 142.868 211.01C142.868 210.72 142.868 210.29 142.868 209.738C142.868 208.615 142.868 206.932 142.868 204.846C142.868 200.562 142.868 194.342 142.803 186.485C142.803 170.789 142.737 148.611 142.691 122.599L142.924 122.823H91.1236L91.3668 122.58C91.3668 156.478 91.3668 187.56 91.3107 211.44L91.1236 211.253L128.884 211.356L139.258 211.403H141.98H142.915H141.98H139.295L128.959 211.45L91.0862 211.552H90.8898V211.365C90.8898 187.495 90.8898 156.412 90.8337 122.505V122.262H91.0862H142.887H143.111V122.487C143.111 148.555 143.027 170.789 142.999 186.522C142.999 194.351 142.952 200.552 142.934 204.827C142.934 206.941 142.934 208.569 142.934 209.682C142.934 210.224 142.934 210.617 142.934 210.926C142.934 211.234 142.868 211.45 142.868 211.45Z" fill="#222221"/>
<path d="M142.868 122.599H91.0675V130.082H142.868V122.599Z" fill="#263238"/>
<path d="M103.508 139.426L104.135 147.723L106.454 144.702L110.327 144.543L103.508 139.426Z" fill="#263238"/>
<path d="M125.901 139.426L126.387 139.772L127.809 140.782C129.025 141.662 130.783 142.924 132.804 144.43L133.112 144.664H132.719L128.978 144.823H128.838L128.95 144.758L126.63 147.779L126.406 148.069V147.704C126.228 145.253 126.116 143.14 126.032 141.68C126.032 141.026 125.966 140.464 125.938 139.978C125.928 139.785 125.928 139.591 125.938 139.398C125.938 139.398 125.938 139.641 126.004 140.053C126.069 140.464 126.106 141.129 126.172 141.793C126.312 143.27 126.518 145.31 126.705 147.685L126.453 147.611C127.173 146.675 127.958 145.646 128.763 144.58H128.81H129.006L132.748 144.43L132.673 144.683C130.727 143.214 129.072 141.924 127.874 140.988L126.462 139.884C126.097 139.594 125.91 139.445 125.901 139.426Z" fill="#263238"/>
<path d="M102.039 175.522C101.983 175.466 104.565 172.716 107.801 169.386C111.038 166.056 113.722 163.39 113.778 163.446C113.834 163.503 111.253 166.252 108.016 169.592C104.78 172.931 102.039 175.578 102.039 175.522Z" fill="#263238"/>
<path d="M137.967 169.405C137.916 168.775 137.822 168.15 137.686 167.534C137.27 165.883 136.32 164.417 134.983 163.362C134.204 162.747 133.306 162.298 132.346 162.043C131.386 161.789 130.384 161.734 129.402 161.882C128.42 162.03 127.479 162.378 126.637 162.905C125.795 163.431 125.07 164.125 124.507 164.943C123.595 166.243 123.105 167.793 123.105 169.381C123.105 170.97 123.595 172.519 124.507 173.82C125.309 174.978 126.428 175.881 127.731 176.418C129.034 176.956 130.464 177.106 131.85 176.85C132.993 176.624 134.067 176.13 134.983 175.41C136.32 174.352 137.271 172.882 137.686 171.229C137.822 170.612 137.915 169.987 137.967 169.358C138.005 169.986 137.948 170.617 137.799 171.229C137.414 172.927 136.468 174.446 135.114 175.541C134.109 176.359 132.907 176.898 131.628 177.105C130.35 177.312 129.039 177.179 127.828 176.719C126.383 176.171 125.142 175.191 124.273 173.913C123.323 172.565 122.813 170.956 122.813 169.306C122.813 167.657 123.323 166.048 124.273 164.7C125.152 163.442 126.391 162.48 127.828 161.94C129.126 161.453 130.535 161.337 131.896 161.604C133.073 161.85 134.175 162.369 135.114 163.119C136.467 164.215 137.412 165.734 137.799 167.431C137.958 168.076 138.015 168.742 137.967 169.405V169.405Z" fill="#263238"/>
<path d="M131.26 189.141L131.447 189.272C131.597 189.412 131.775 189.553 131.981 189.721L134.02 191.47L134.085 191.536L134.029 191.601L125.33 201.6H125.283L124.236 201.759L122.365 202.04H122.159V201.834C122.402 200.646 122.627 199.495 122.842 198.401C125.199 195.595 127.257 193.257 128.754 191.61C129.487 190.684 130.325 189.846 131.251 189.113L131.073 189.281C130.97 189.394 130.802 189.553 130.606 189.777C130.194 190.226 129.614 190.89 128.885 191.732C127.425 193.406 125.396 195.791 123.057 198.579V198.513C122.851 199.608 122.627 200.758 122.393 201.946L122.225 201.778L124.095 201.488L125.143 201.329L125.05 201.376L133.842 191.451V191.573L131.971 189.814L131.457 189.328L131.26 189.141Z" fill="#263238"/>
<path d="M112.328 201.254C112.328 201.254 112.328 201.17 112.328 201.011V200.328C112.328 199.673 112.328 198.822 112.328 197.774C112.328 195.53 112.328 192.433 112.272 188.757L112.394 188.888H100.234C100.234 188.888 100.505 188.608 100.374 188.748V195.296C100.374 197.391 100.374 199.365 100.374 201.179L100.253 201.058L109.017 201.123H111.496H112.16H112.328C112.328 201.123 112.263 201.123 112.123 201.123H111.487H109.036L100.187 201.189H100.056V201.058C100.056 199.243 100.056 197.269 100.056 195.174C100.056 194.127 100.056 193.041 100.056 191.938V188.589C99.9255 188.711 100.234 188.402 100.206 188.439H112.366H112.497V188.561C112.497 192.303 112.441 195.389 112.431 197.662C112.431 198.7 112.431 199.533 112.431 200.188V200.842C112.328 201.189 112.328 201.263 112.328 201.254Z" fill="#263238"/>
<path d="M102.039 188.757C101.172 188.907 100.29 188.957 99.411 188.907C98.529 188.958 97.644 188.907 96.7733 188.757C97.6453 188.619 98.5293 188.572 99.411 188.617C100.29 188.573 101.171 188.62 102.039 188.757V188.757Z" fill="#263238"/>
<path d="M100.169 191.161C99.9691 189.19 99.9691 187.203 100.169 185.231C100.356 187.203 100.356 189.189 100.169 191.161Z" fill="#263238"/>
<path d="M79.5438 149.07H10.9532V217.66H79.5438V149.07Z" fill="#F5F5F5"/>
<path d="M104.549 253.731C109.568 248.712 109.568 240.575 104.549 235.556C99.5295 230.537 91.3921 230.537 86.3731 235.556C81.3541 240.575 81.3541 248.712 86.3731 253.731C91.3921 258.75 99.5295 258.75 104.549 253.731Z" fill="#E0E0E0"/>
<path d="M104.672 247.452C109.063 243.061 109.063 235.942 104.672 231.552C100.281 227.161 93.1627 227.161 88.772 231.552C84.3813 235.942 84.3813 243.061 88.772 247.452C93.1627 251.843 100.281 251.843 104.672 247.452Z" fill="#FAFAFA"/>
<path d="M96.7172 250.333C102.699 250.333 107.549 245.483 107.549 239.501C107.549 233.519 102.699 228.67 96.7172 228.67C90.735 228.67 85.8856 233.519 85.8856 239.501C85.8856 245.483 90.735 250.333 96.7172 250.333Z" fill="#764AF1"/>
<path d="M96.7171 247.798C95.0762 247.798 93.4721 247.311 92.1077 246.4C90.7433 245.488 89.6799 244.192 89.052 242.676C88.424 241.16 88.2597 239.492 88.5798 237.883C88.9 236.273 89.6902 234.795 90.8505 233.635C92.0108 232.474 93.4891 231.684 95.0985 231.364C96.7079 231.044 98.3761 231.208 99.8922 231.836C101.408 232.464 102.704 233.527 103.616 234.892C104.527 236.256 105.014 237.86 105.014 239.501C105.011 241.701 104.136 243.81 102.581 245.365C101.026 246.921 98.9168 247.795 96.7171 247.798V247.798ZM96.7171 231.251C95.0854 231.251 93.4904 231.735 92.1337 232.642C90.777 233.548 89.7196 234.837 89.0952 236.344C88.4708 237.852 88.3074 239.51 88.6257 241.111C88.944 242.711 89.7298 244.181 90.8835 245.335C92.0373 246.489 93.5073 247.274 95.1077 247.593C96.708 247.911 98.3668 247.748 99.8743 247.123C101.382 246.499 102.67 245.441 103.577 244.085C104.483 242.728 104.967 241.133 104.967 239.501C104.965 237.314 104.095 235.217 102.548 233.67C101.001 232.124 98.9044 231.254 96.7171 231.251V231.251Z" fill="#263238"/>
<g opacity="0.2">
<path opacity="0.2" d="M97.5964 231.925C96.5335 231.675 95.4198 231.756 94.4038 232.156C93.3878 232.555 92.5179 233.255 91.91 234.162C91.3021 235.069 90.9851 236.14 91.0013 237.232C91.0175 238.323 91.3662 239.384 92.0008 240.272C92.6354 241.161 93.5257 241.835 94.5531 242.204C95.5806 242.574 96.6962 242.621 97.7512 242.34C98.8062 242.059 99.7506 241.463 100.458 240.632C101.166 239.8 101.603 238.773 101.712 237.687C101.829 236.574 101.561 235.455 100.954 234.516C100.019 233.122 99.252 232.29 97.5964 231.925" fill="black"/>
</g>
<path d="M94.6874 246.498L95.3047 247.34L98.6066 247.237L99.2426 246.498H94.6874Z" fill="#263238"/>
<path d="M315.977 253.017C319.769 253.017 322.843 249.943 322.843 246.152C322.843 242.36 319.769 239.286 315.977 239.286C312.185 239.286 309.111 242.36 309.111 246.152C309.111 249.943 312.185 253.017 315.977 253.017Z" fill="#263238"/>
<path d="M318.484 246.152C318.484 246.648 318.337 247.132 318.061 247.544C317.786 247.957 317.394 248.278 316.936 248.468C316.478 248.657 315.974 248.707 315.488 248.61C315.002 248.514 314.555 248.275 314.204 247.924C313.854 247.574 313.615 247.127 313.518 246.641C313.422 246.154 313.471 245.65 313.661 245.192C313.851 244.734 314.172 244.343 314.584 244.067C314.997 243.792 315.481 243.645 315.977 243.645C316.642 243.645 317.279 243.909 317.75 244.379C318.22 244.849 318.484 245.487 318.484 246.152Z" fill="#455A64"/>
<path d="M64.6246 227.341C64.6246 227.22 65.2233 227.117 65.9622 227.117C66.7012 227.117 67.2904 227.22 67.2904 227.341C67.2904 227.463 66.6918 227.575 65.9622 227.575C65.2326 227.575 64.6246 227.472 64.6246 227.341Z" fill="#263238"/>
<path d="M59.3304 227.341C59.3304 227.22 59.9291 227.117 60.6587 227.117C61.3883 227.117 61.9869 227.22 61.9869 227.341C61.9869 227.463 61.3976 227.575 60.6587 227.575C59.9197 227.575 59.3304 227.472 59.3304 227.341Z" fill="#263238"/>
<path d="M54.0175 227.341C54.0175 227.22 54.6162 227.117 55.3458 227.117C56.0754 227.117 56.674 227.22 56.674 227.341C56.674 227.463 56.0847 227.575 55.3458 227.575C54.6068 227.575 54.0175 227.472 54.0175 227.341Z" fill="#263238"/>
<path d="M48.7234 227.341C48.7234 227.22 49.322 227.117 50.0516 227.117C50.7812 227.117 51.3798 227.22 51.3798 227.341C51.3798 227.463 50.7812 227.575 50.0516 227.575C49.322 227.575 48.7234 227.472 48.7234 227.341Z" fill="#263238"/>
<path d="M43.3918 227.341C43.3918 227.22 43.981 227.117 44.72 227.117C45.4589 227.117 46.0482 227.22 46.0482 227.341C46.0482 227.463 45.4496 227.575 44.72 227.575C43.9904 227.575 43.3918 227.472 43.3918 227.341Z" fill="#263238"/>
<path d="M38.0789 227.341C38.0789 227.22 38.6682 227.117 39.4071 227.117C40.146 227.117 40.7353 227.22 40.7353 227.341C40.7353 227.463 40.1367 227.575 39.4071 227.575C38.6775 227.575 38.0789 227.472 38.0789 227.341Z" fill="#263238"/>
<path d="M32.7566 227.341C32.7566 227.22 33.3553 227.117 34.0848 227.117C34.8144 227.117 35.4224 227.22 35.4224 227.341C35.4224 227.463 34.8238 227.575 34.0848 227.575C33.3459 227.575 32.7566 227.472 32.7566 227.341Z" fill="#263238"/>
<path d="M27.4437 227.341C27.4437 227.22 28.0424 227.117 28.7719 227.117C29.5015 227.117 30.1002 227.22 30.1002 227.341C30.1002 227.463 29.5109 227.575 28.7719 227.575C28.033 227.575 27.4437 227.472 27.4437 227.341Z" fill="#263238"/>
<path d="M22.1308 227.341C22.1308 227.22 22.7295 227.117 23.459 227.117C24.1886 227.117 24.7873 227.22 24.7873 227.341C24.7873 227.463 24.198 227.575 23.459 227.575C22.7201 227.575 22.1308 227.472 22.1308 227.341Z" fill="#263238"/>
<path d="M16.8179 227.341C16.8179 227.22 17.4166 227.117 18.1462 227.117C18.8757 227.117 19.4744 227.22 19.4744 227.341C19.4744 227.463 18.8757 227.575 18.1462 227.575C17.4166 227.575 16.8179 227.472 16.8179 227.341Z" fill="#263238"/>
<path d="M11.505 227.341C11.505 227.22 12.0943 227.117 12.8333 227.117C13.5722 227.117 14.1615 227.22 14.1615 227.341C14.1615 227.463 13.5628 227.575 12.8333 227.575C12.1037 227.575 11.505 227.472 11.505 227.341Z" fill="#263238"/>
<path d="M6.19212 227.341C6.19212 227.22 6.78141 227.117 7.52035 227.117C8.25929 227.117 8.84857 227.22 8.84857 227.341C8.84857 227.463 8.24994 227.575 7.52035 227.575C6.79076 227.575 6.19212 227.472 6.19212 227.341Z" fill="#263238"/>
<path d="M2.4039 225.817C2.52549 225.817 2.62839 226.415 2.62839 227.145V227.341L2.4039 227.117C3.03995 227.117 3.52634 227.229 3.52634 227.341C3.52634 227.454 3.03995 227.557 2.4039 227.575H2.17941V227.145C2.17005 226.415 2.27295 225.817 2.4039 225.817Z" fill="#263238"/>
<path d="M2.4039 220.476C2.5255 220.476 2.62839 221.074 2.62839 221.804C2.62839 222.534 2.5255 223.132 2.4039 223.132C2.2823 223.132 2.17006 222.534 2.17006 221.804C2.17006 221.074 2.27295 220.476 2.4039 220.476Z" fill="#263238"/>
<path d="M2.4039 215.191C2.5255 215.191 2.62839 215.78 2.62839 216.519C2.62839 217.258 2.5255 217.847 2.4039 217.847C2.2823 217.847 2.17006 217.249 2.17006 216.519C2.17006 215.79 2.27295 215.191 2.4039 215.191Z" fill="#263238"/>
<path d="M2.4039 209.878C2.5255 209.878 2.62839 210.467 2.62839 211.206C2.62839 211.945 2.5255 212.535 2.4039 212.535C2.2823 212.535 2.17006 211.936 2.17006 211.206C2.17006 210.477 2.27295 209.878 2.4039 209.878Z" fill="#263238"/>
<path d="M2.4039 204.575C2.5255 204.575 2.62839 205.173 2.62839 205.903C2.62839 206.632 2.5255 207.24 2.4039 207.24C2.2823 207.24 2.17006 206.642 2.17006 205.903C2.17006 205.164 2.27295 204.575 2.4039 204.575Z" fill="#263238"/>
<path d="M2.4039 199.243C2.5255 199.243 2.62839 199.842 2.62839 200.571C2.62839 201.301 2.5255 201.899 2.4039 201.899C2.2823 201.899 2.17006 201.31 2.17006 200.571C2.17006 199.832 2.27295 199.243 2.4039 199.243Z" fill="#263238"/>
<path d="M2.4039 193.93C2.5255 193.93 2.62839 194.529 2.62839 195.258C2.62839 195.988 2.5255 196.586 2.4039 196.586C2.2823 196.586 2.17006 195.997 2.17006 195.258C2.17006 194.519 2.27295 193.93 2.4039 193.93Z" fill="#263238"/>
<path d="M2.4039 188.617C2.5255 188.617 2.62839 189.216 2.62839 189.945C2.62839 190.675 2.5255 191.274 2.4039 191.274C2.2823 191.274 2.17006 190.675 2.17006 189.945C2.17006 189.216 2.27295 188.617 2.4039 188.617Z" fill="#263238"/>
<path d="M2.4039 183.304C2.5255 183.304 2.62839 183.894 2.62839 184.632C2.62839 185.371 2.5255 185.961 2.4039 185.961C2.2823 185.961 2.17006 185.362 2.17006 184.632C2.17006 183.903 2.27295 183.304 2.4039 183.304Z" fill="#263238"/>
<path d="M2.4039 177.991C2.5255 177.991 2.62839 178.581 2.62839 179.32C2.62839 180.059 2.5255 180.648 2.4039 180.648C2.2823 180.648 2.17006 180.049 2.17006 179.32C2.17006 178.59 2.27295 177.991 2.4039 177.991Z" fill="#263238"/>
<path d="M2.4039 172.669C2.5255 172.669 2.62839 173.268 2.62839 173.997C2.62839 174.727 2.5255 175.326 2.4039 175.326C2.2823 175.326 2.17006 174.736 2.17006 173.997C2.17006 173.258 2.27295 172.669 2.4039 172.669Z" fill="#263238"/>
<path d="M2.4039 167.356C2.5255 167.356 2.62839 167.955 2.62839 168.684C2.62839 169.414 2.5255 170.013 2.4039 170.013C2.2823 170.013 2.17006 169.423 2.17006 168.684C2.17006 167.946 2.27295 167.356 2.4039 167.356Z" fill="#263238"/>
<path d="M2.79676 162.483C2.79676 162.539 2.6471 162.605 2.40391 162.642L2.56292 162.483C2.61343 162.792 2.63535 163.105 2.6284 163.418C2.6284 164.157 2.5255 164.747 2.40391 164.747C2.28231 164.747 2.17006 164.157 2.17006 163.418C2.16793 163.105 2.18982 162.793 2.23554 162.483V162.296H2.36649C2.6471 162.324 2.79676 162.38 2.79676 162.483Z" fill="#263238"/>
<path d="M8.10965 162.483C8.10965 162.605 7.52036 162.707 6.78142 162.707C6.04248 162.707 5.4532 162.605 5.4532 162.483C5.4532 162.361 6.05184 162.249 6.78142 162.249C7.51101 162.249 8.10965 162.315 8.10965 162.483Z" fill="#263238"/>
<path d="M13.4319 162.483C13.4319 162.605 12.8333 162.707 12.1037 162.707C11.3741 162.707 10.7755 162.605 10.7755 162.483C10.7755 162.361 11.3647 162.249 12.1037 162.249C12.8426 162.249 13.4319 162.315 13.4319 162.483Z" fill="#263238"/>
<path d="M18.7916 162.483C18.7916 162.605 18.1929 162.707 17.4634 162.707C16.7338 162.707 16.1351 162.605 16.1351 162.483C16.1351 162.361 16.7244 162.249 17.4634 162.249C18.2023 162.249 18.7916 162.315 18.7916 162.483Z" fill="#263238"/>
<path d="M24.0577 162.483C24.0577 162.605 23.4591 162.707 22.7295 162.707C21.9999 162.707 21.4012 162.605 21.4012 162.483C21.4012 162.361 21.9905 162.249 22.7295 162.249C23.4684 162.249 24.0577 162.315 24.0577 162.483Z" fill="#263238"/>
<path d="M29.3706 162.483C29.3706 162.605 28.7813 162.707 28.0424 162.707C27.3034 162.707 26.7141 162.605 26.7141 162.483C26.7141 162.361 27.3128 162.249 28.0424 162.249C28.772 162.249 29.3706 162.315 29.3706 162.483Z" fill="#263238"/>
<path d="M34.6928 162.483C34.6928 162.605 34.1036 162.707 33.3646 162.707C32.6257 162.707 32.0364 162.605 32.0364 162.483C32.0364 162.361 32.635 162.249 33.3646 162.249C34.0942 162.249 34.6928 162.315 34.6928 162.483Z" fill="#263238"/>
<path d="M39.9964 162.483C39.9964 162.605 39.4071 162.707 38.6682 162.707C37.9292 162.707 37.3399 162.605 37.3399 162.483C37.3399 162.361 37.9386 162.249 38.6682 162.249C39.3977 162.249 39.9964 162.315 39.9964 162.483Z" fill="#263238"/>
<path d="M45.3186 162.483C45.3186 162.605 44.72 162.707 43.9904 162.707C43.2608 162.707 42.6622 162.605 42.6622 162.483C42.6622 162.361 43.2515 162.249 43.9904 162.249C44.7293 162.249 45.3186 162.315 45.3186 162.483Z" fill="#263238"/>
<path d="M50.5941 162.483C50.5941 162.605 49.9955 162.707 49.2659 162.707C48.5363 162.707 47.9377 162.605 47.9377 162.483C47.9377 162.361 48.5269 162.249 49.2659 162.249C50.0048 162.249 50.5941 162.315 50.5941 162.483Z" fill="#263238"/>
<path d="M55.9444 162.483C55.9444 162.605 55.3458 162.707 54.6162 162.707C53.8866 162.707 53.288 162.605 53.288 162.483C53.288 162.361 53.8773 162.249 54.6162 162.249C55.3551 162.249 55.9444 162.315 55.9444 162.483Z" fill="#263238"/>
<path d="M61.2573 162.483C61.2573 162.605 60.668 162.707 59.9291 162.707C59.1901 162.707 58.6009 162.605 58.6009 162.483C58.6009 162.361 59.1995 162.249 59.9291 162.249C60.6587 162.249 61.2573 162.315 61.2573 162.483Z" fill="#263238"/>
<path d="M66.5702 162.483C66.5702 162.605 65.9809 162.707 65.242 162.707C64.503 162.707 63.9138 162.605 63.9138 162.483C63.9138 162.361 64.5124 162.249 65.242 162.249C65.9716 162.249 66.5702 162.315 66.5702 162.483Z" fill="#263238"/>
<path d="M67.3092 167.029C67.1782 167.029 67.0753 166.43 67.0753 165.701C67.0753 164.971 67.1782 164.363 67.3092 164.363C67.4401 164.363 67.5336 164.962 67.5336 165.701C67.5336 166.44 67.4308 167.029 67.3092 167.029Z" fill="#263238"/>
<path d="M67.3092 172.342C67.1782 172.342 67.0753 171.743 67.0753 171.013C67.0753 170.284 67.1782 169.685 67.3092 169.685C67.4401 169.685 67.5336 170.275 67.5336 171.013C67.5336 171.752 67.4308 172.342 67.3092 172.342Z" fill="#263238"/>
<path d="M67.3092 177.655C67.1782 177.655 67.0753 177.056 67.0753 176.326C67.0753 175.597 67.1782 174.998 67.3092 174.998C67.4401 174.998 67.5336 175.587 67.5336 176.326C67.5336 177.065 67.4308 177.655 67.3092 177.655Z" fill="#263238"/>
<path d="M67.3092 182.968C67.1782 182.968 67.0753 182.369 67.0753 181.639C67.0753 180.91 67.1782 180.311 67.3092 180.311C67.4401 180.311 67.5336 180.91 67.5336 181.639C67.5336 182.369 67.4308 182.968 67.3092 182.968Z" fill="#263238"/>
<path d="M67.3092 188.28C67.1782 188.28 67.0753 187.691 67.0753 186.952C67.0753 186.213 67.1782 185.624 67.3092 185.624C67.4401 185.624 67.5336 186.223 67.5336 186.952C67.5336 187.682 67.4308 188.28 67.3092 188.28Z" fill="#263238"/>
<path d="M67.3092 193.593C67.1782 193.593 67.0753 193.004 67.0753 192.265C67.0753 191.526 67.1782 190.937 67.3092 190.937C67.4401 190.937 67.5336 191.535 67.5336 192.265C67.5336 192.995 67.4308 193.593 67.3092 193.593Z" fill="#263238"/>
<path d="M67.3092 198.962C67.1782 198.962 67.0753 198.364 67.0753 197.634C67.0753 196.904 67.1782 196.306 67.3092 196.306C67.4401 196.306 67.5336 196.895 67.5336 197.634C67.5336 198.373 67.4308 198.962 67.3092 198.962Z" fill="#263238"/>
<path d="M67.3092 204.228C67.1782 204.228 67.0753 203.63 67.0753 202.9C67.0753 202.171 67.1782 201.572 67.3092 201.572C67.4401 201.572 67.5336 202.161 67.5336 202.9C67.5336 203.639 67.4308 204.228 67.3092 204.228Z" fill="#263238"/>
<path d="M67.3092 209.541C67.1782 209.541 67.0753 208.943 67.0753 208.213C67.0753 207.484 67.1782 206.885 67.3092 206.885C67.4401 206.885 67.5336 207.474 67.5336 208.213C67.5336 208.952 67.4308 209.541 67.3092 209.541Z" fill="#263238"/>
<path d="M67.3092 214.864C67.1782 214.864 67.0753 214.274 67.0753 213.535C67.0753 212.796 67.1782 212.207 67.3092 212.207C67.4401 212.207 67.5336 212.806 67.5336 213.535C67.5336 214.265 67.4308 214.864 67.3092 214.864Z" fill="#263238"/>
<path d="M67.3092 220.167C67.1782 220.167 67.0753 219.578 67.0753 218.839C67.0753 218.1 67.1782 217.511 67.3092 217.511C67.4401 217.511 67.5336 218.109 67.5336 218.839C67.5336 219.569 67.4308 220.167 67.3092 220.167Z" fill="#263238"/>
<path d="M67.3092 225.48C67.1782 225.48 67.0753 224.891 67.0753 224.152C67.0753 223.413 67.1782 222.824 67.3092 222.824C67.4401 222.824 67.5336 223.422 67.5336 224.152C67.5336 224.881 67.4308 225.48 67.3092 225.48Z" fill="#263238"/>
<path d="M69.713 224.283H64.9052V229.091H69.713V224.283Z" fill="#263238"/>
<path d="M4.8078 224.947H0V229.755H4.8078V224.947Z" fill="#263238"/>
<path d="M69.713 159.574H64.9052V164.382H69.713V159.574Z" fill="#263238"/>
<path d="M4.8078 160.042H0V164.849H4.8078V160.042Z" fill="#263238"/>
</svg>
