<svg width="200" height="150" viewBox="0 0 200 150" fill="none" xmlns="http://www.w3.org/2000/svg">
<path d="M200 130.96H0V131.06H200V130.96Z" fill="#EBEBEB"/>
<path d="M179.96 137.396H166.712V137.496H179.96V137.396Z" fill="#EBEBEB"/>
<path d="M132.488 138.484H129.012V138.584H132.488V138.484Z" fill="#EBEBEB"/>
<path d="M166.312 133.684H158.636V133.784H166.312V133.684Z" fill="#EBEBEB"/>
<path d="M38.26 134.356H20.984V134.456H38.26V134.356Z" fill="#EBEBEB"/>
<path d="M44.356 134.356H41.824V134.456H44.356V134.356Z" fill="#EBEBEB"/>
<path d="M90.06 136.044H52.588V136.144H90.06V136.044Z" fill="#EBEBEB"/>
<path d="M94.8 113.12H17.564C16.9589 113.119 16.379 112.878 15.9516 112.45C15.5241 112.021 15.284 111.441 15.284 110.836V2.264C15.2893 1.66241 15.5317 1.08719 15.9586 0.663287C16.3855 0.239383 16.9624 0.00103056 17.564 0H94.8C95.4057 0 95.9867 0.240635 96.415 0.668968C96.8434 1.0973 97.084 1.67825 97.084 2.284V110.836C97.084 111.442 96.8434 112.023 96.415 112.451C95.9867 112.879 95.4057 113.12 94.8 113.12V113.12ZM17.564 0.0800003C16.9855 0.0810599 16.431 0.311626 16.0223 0.721091C15.6135 1.13056 15.384 1.68546 15.384 2.264V110.836C15.384 111.415 15.6135 111.969 16.0223 112.379C16.431 112.788 16.9855 113.019 17.564 113.02H94.8C95.3789 113.019 95.9338 112.788 96.3431 112.379C96.7525 111.97 96.9829 111.415 96.984 110.836V2.264C96.9829 1.68509 96.7525 1.1302 96.3431 0.720847C95.9338 0.311496 95.3789 0.0810577 94.8 0.0800003H17.564Z" fill="#EBEBEB"/>
<path d="M181.324 113.12H104.084C103.479 113.119 102.898 112.878 102.47 112.45C102.042 112.022 101.801 111.441 101.8 110.836V2.264C101.806 1.66205 102.05 1.08683 102.477 0.663037C102.905 0.239243 103.482 0.00101932 104.084 0H181.324C181.925 0.0020818 182.501 0.2409 182.927 0.664691C183.353 1.08848 183.595 1.6631 183.6 2.264V110.836C183.6 111.44 183.361 112.02 182.934 112.448C182.507 112.876 181.928 113.118 181.324 113.12V113.12ZM104.084 0.0800003C103.505 0.0810577 102.95 0.311496 102.541 0.720847C102.132 1.1302 101.901 1.68509 101.9 2.264V110.836C101.901 111.415 102.132 111.97 102.541 112.379C102.95 112.788 103.505 113.019 104.084 113.02H181.324C181.903 113.019 182.458 112.788 182.867 112.379C183.277 111.97 183.507 111.415 183.508 110.836V2.264C183.507 1.68509 183.277 1.1302 182.867 0.720847C182.458 0.311496 181.903 0.0810577 181.324 0.0800003H104.084Z" fill="#EBEBEB"/>
<path d="M173.876 6.78796H50.38V63.688H173.876V6.78796Z" fill="#E6E6E6"/>
<path d="M177.32 6.78796H51.18V63.688H177.32V6.78796Z" fill="#F0F0F0"/>
<path d="M173.876 63.688H50.38V65.228H175.484L173.876 63.688Z" fill="#E6E6E6"/>
<path d="M178.924 63.688H54.024L54.764 65.228H179.668L178.924 63.688Z" fill="#F0F0F0"/>
<path d="M174.876 61.112V9.37201L53.624 9.37201V61.112L174.876 61.112Z" fill="#FAFAFA"/>
<path d="M72.012 61.108L89.232 9.36804H105.68L88.456 61.108H72.012Z" fill="white"/>
<path d="M91.992 61.108L109.212 9.36804H115.624L98.4 61.108H91.992Z" fill="white"/>
<path d="M174.876 61.112V9.37201H174.224V61.112H174.876Z" fill="#E6E6E6"/>
<path d="M27.2 130.96H33.864L33.864 89.688H27.2L27.2 130.96Z" fill="#F0F0F0"/>
<path d="M114.58 89.684H33.864V130.956H114.58V89.684Z" fill="#F5F5F5"/>
<path d="M115.112 109.048H41.516V126.456H115.112V109.048Z" fill="#FAFAFA"/>
<path d="M115.112 97.1H41.516V106.136H115.112V97.1Z" fill="#FAFAFA"/>
<g style="mix-blend-mode:multiply" opacity="0.7">
<path d="M41.06 126.452H41.516V109.044H41.06V126.452Z" fill="#E6E6E6"/>
</g>
<g style="mix-blend-mode:multiply" opacity="0.7">
<path d="M41.06 106.136H41.516V97.1H41.06V106.136Z" fill="#E6E6E6"/>
</g>
<g style="mix-blend-mode:multiply" opacity="0.7">
<path d="M27.196 93.0081L114.728 93.0081V91.8481L27.196 91.8481V93.0081Z" fill="#E6E6E6"/>
</g>
<path d="M26.416 92.34H33.86V88.984H26.416V92.34Z" fill="#F0F0F0"/>
<path d="M115.36 88.984H33.864V92.34H115.36V88.984Z" fill="#F5F5F5"/>
<path d="M155.32 120.588C154.755 119.3 154.316 117.96 154.008 116.588C153.681 115.208 153.434 113.809 153.268 112.4C152.937 109.586 152.855 106.748 153.024 103.92C153.37 98.2563 154.496 92.6674 156.372 87.3121L157.092 85.3121L157.872 83.3441C158.136 82.6921 158.428 82.0481 158.72 81.4081C159.012 80.7681 159.288 80.1161 159.604 79.4881C160.256 78.2361 160.848 76.9601 161.568 75.7521L162.612 73.9201L163.736 72.1401C166.72 67.3966 170.318 63.0684 174.436 59.2681C173.876 60.5601 173.28 61.8121 172.668 63.0481C172.056 64.2841 171.468 65.5321 170.884 66.7681C169.716 69.2441 168.532 71.6841 167.436 74.1521L166.604 76.0001L165.804 77.8521C165.26 79.0801 164.764 80.3281 164.248 81.5601L163.508 83.4241C163.26 84.0481 163.012 84.6641 162.796 85.2961L162.088 87.1681L161.436 89.0561C159.682 94.0878 158.267 99.2313 157.2 104.452C156.668 107.068 156.216 109.712 155.9 112.396C155.546 115.113 155.352 117.848 155.32 120.588V120.588Z" fill="#E6E6E6"/>
<path d="M129.056 110.916C129.457 106.303 129.347 101.66 128.728 97.072C128.668 96.516 128.564 95.96 128.472 95.408C128.38 94.856 128.288 94.304 128.18 93.76C128.072 93.216 127.948 92.668 127.828 92.124L127.648 91.324L127.436 90.524C126.892 88.3771 126.211 86.2674 125.396 84.208C123.75 80.0443 121.673 76.064 119.2 72.332L118.264 70.9C117.936 70.436 117.596 69.972 117.276 69.496L116.772 68.8C116.608 68.564 116.424 68.344 116.256 68.108L115.22 66.708C114.892 66.22 114.508 65.784 114.156 65.316C113.804 64.848 113.436 64.388 113.084 63.908C112.344 62.984 111.592 62.06 110.884 61.064C115.268 63.2018 119.21 66.1465 122.504 69.744C125.899 73.3764 128.578 77.6174 130.4 82.244C132.228 86.9004 133.089 91.8801 132.932 96.88C132.847 99.3467 132.496 101.797 131.884 104.188C131.571 105.37 131.187 106.533 130.732 107.668C130.284 108.804 129.723 109.892 129.056 110.916V110.916Z" fill="#E6E6E6"/>
<path d="M130.26 110.916C130.336 108.076 130.344 105.296 130.28 102.516C130.216 99.736 130.108 97.012 129.88 94.292C129.488 88.8968 128.727 83.5348 127.6 78.244C127.3 76.936 127.024 75.616 126.656 74.324C126.352 73.016 125.936 71.74 125.572 70.44C124.772 67.88 123.896 65.328 122.884 62.816C120.884 57.768 118.36 52.92 115.624 47.928C117.861 49.7033 119.908 51.706 121.732 53.904C123.583 56.1077 125.235 58.4717 126.668 60.968L127.72 62.86C128.06 63.496 128.352 64.156 128.672 64.808L129.14 65.784C129.296 66.112 129.42 66.452 129.56 66.784L130.38 68.784C130.868 70.144 131.356 71.512 131.756 72.9C132.156 74.288 132.496 75.7 132.836 77.1C134.039 82.7421 134.458 88.5234 134.08 94.28C133.889 97.135 133.488 99.972 132.88 102.768C132.576 104.16 132.212 105.544 131.784 106.904C131.369 108.275 130.86 109.615 130.26 110.916V110.916Z" fill="#E6E6E6"/>
<path d="M153.884 114.328C153.172 112.7 152.52 111.044 151.924 109.38C151.62 108.544 151.336 107.708 151.044 106.872L150.244 104.348C149.176 100.972 148.244 97.548 147.404 94.132C145.743 87.2556 144.471 80.2913 143.592 73.272C142.716 66.2399 142.295 59.1585 142.332 52.072C142.375 50.3014 142.436 48.528 142.516 46.752C142.556 44.984 142.78 43.212 142.936 41.444C143.092 39.676 143.284 37.916 143.62 36.164C143.956 34.412 144.252 32.668 144.628 30.936C145.308 38.02 145.828 44.936 146.54 51.884C147.252 58.832 148.048 65.716 148.908 72.62L151.532 93.372C152.4 100.308 153.256 107.252 153.884 114.328Z" fill="#E6E6E6"/>
<path d="M152.716 113.2C151.876 111.644 151.092 110.056 150.36 108.452C149.988 107.652 149.636 106.852 149.276 106.052L148.248 103.6C146.904 100.344 145.688 97.044 144.548 93.712C142.299 87.0412 140.411 80.254 138.892 73.38C137.366 66.4876 136.267 59.5077 135.6 52.48C135.461 50.72 135.34 48.9587 135.236 47.196C135.104 45.44 135.136 43.664 135.104 41.9C135.072 40.136 135.08 38.372 135.216 36.6C135.352 34.828 135.456 33.072 135.64 31.316C137.112 38.248 138.352 45.064 139.768 51.868C141.184 58.672 142.616 65.44 144.112 72.216L148.588 92.576C150.056 99.388 151.52 106.212 152.716 113.2Z" fill="#E6E6E6"/>
<path d="M157.288 121.968C156.272 120.699 155.309 119.396 154.4 118.06C153.94 117.396 153.492 116.72 153.048 116.06L151.752 114C150.892 112.628 150.088 111.232 149.28 109.836C148.88 109.14 148.5 108.428 148.112 107.72C147.724 107.012 147.34 106.304 146.968 105.588C144.001 99.8581 141.398 93.9463 139.176 87.888C136.939 81.8228 135.142 75.604 133.8 69.28C133.488 67.68 133.191 66.0894 132.908 64.5081C132.628 62.9081 132.464 61.3081 132.26 59.7081L132 57.3081C131.924 56.5081 131.896 55.688 131.86 54.88C131.78 53.2614 131.744 51.6427 131.752 50.024C133.924 56.148 135.752 62.204 137.864 68.192C139.976 74.18 142 80.1201 144.208 86.0521L150.8 103.884C153.012 109.852 155.244 115.816 157.288 121.968Z" fill="#E6E6E6"/>
<path d="M150.4 111.912C149.383 110.817 148.423 109.67 147.524 108.476C146.604 107.3 145.764 106.076 144.908 104.852C144.052 103.628 143.272 102.364 142.508 101.088C142.108 100.452 141.752 99.812 141.376 99.168C141 98.524 140.62 97.884 140.28 97.224C139.584 95.908 138.864 94.604 138.216 93.264C137.568 91.924 136.94 90.576 136.308 89.228C135.676 87.88 135.156 86.484 134.576 85.112L134.176 84.076L133.776 83.028L133.008 80.932C131.972 78.132 131.152 75.272 130.32 72.412C129.968 70.964 129.596 69.52 129.264 68.068C129.108 67.34 128.908 66.624 128.78 65.888L128.38 63.688C128.244 62.956 128.128 62.22 128.004 61.484C127.88 60.748 127.736 60.024 127.672 59.276C127.504 57.7933 127.355 56.3106 127.224 54.828C127.172 54.084 127.08 53.348 127.06 52.6C127.04 51.852 127.016 51.108 127.012 50.364C126.988 48.8733 127.005 47.3826 127.064 45.892C129.064 51.544 130.588 57.152 132.468 62.668C133.308 65.468 134.304 68.176 135.176 70.936L136.604 75.04C136.84 75.724 137.052 76.416 137.296 77.096L138.044 79.136C138.98 81.876 140.024 84.576 141 87.308C141.516 88.664 142.04 90.012 142.532 91.38L144.084 95.456L147.228 103.636C148.304 106.368 149.364 109.112 150.4 111.912Z" fill="#E6E6E6"/>
<path d="M155.904 118.344C155.1 117.249 154.413 116.073 153.852 114.836C153.275 113.601 152.777 112.33 152.36 111.032C151.539 108.426 150.972 105.747 150.668 103.032C150.362 100.314 150.275 97.5759 150.408 94.844C150.452 93.476 150.608 92.12 150.74 90.76C150.872 89.4 151.112 88.056 151.372 86.72C152.396 81.386 154.085 76.2015 156.4 71.288C158.641 66.385 161.538 61.8097 165.012 57.688C164.652 58.992 164.26 60.2707 163.836 61.524C163.456 62.8 163.036 64.048 162.636 65.296L161.46 69.04C161.104 70.296 160.66 71.52 160.336 72.768C158.857 77.6792 157.625 82.6615 156.644 87.696C156.153 90.1973 155.761 92.708 155.468 95.228C155.175 97.748 154.975 100.281 154.868 102.828C154.772 105.376 154.788 107.94 154.944 110.52C155.077 113.148 155.398 115.762 155.904 118.344V118.344Z" fill="#E6E6E6"/>
<path d="M153.82 110.968C153.135 109.751 152.527 108.493 152 107.2C151.456 105.908 150.988 104.592 150.548 103.264C149.689 100.593 149.009 97.8688 148.512 95.1079C148.015 92.3311 147.695 89.5254 147.556 86.7079C147.528 86.0039 147.516 85.2959 147.5 84.5879C147.484 83.8799 147.5 83.1719 147.5 82.4639C147.5 81.7559 147.552 81.0479 147.588 80.3399C147.624 79.6319 147.664 78.9239 147.74 78.2159C147.816 77.5079 147.88 76.7999 147.976 76.0959L148.284 73.9839C148.4 73.2799 148.56 72.5839 148.684 71.8839C148.756 71.5359 148.82 71.1839 148.896 70.8399C148.972 70.4959 149.072 70.1439 149.164 69.7999C149.844 67.0266 150.781 64.3229 151.964 61.7239C154.304 56.5239 157.7 51.7879 162.004 48.2119C161.708 48.8559 161.384 49.4679 161.084 50.0919L160.612 51.0039L160.184 51.9439L159.32 53.7879L158.54 55.6559C157.528 58.1181 156.66 60.637 155.94 63.1999L155.656 64.1479L155.42 65.1079C155.26 65.7479 155.076 66.3799 154.932 67.0239C154.788 67.6679 154.664 68.3119 154.512 68.9519C154.36 69.5919 154.268 70.2439 154.144 70.8919C154.084 71.2119 154.028 71.5359 153.96 71.8599C153.892 72.1839 153.86 72.5079 153.808 72.8319C153.712 73.4839 153.596 74.1319 153.52 74.7879L153.268 76.7439C153.188 77.3999 153.144 78.0599 153.076 78.7159C153.008 79.3719 152.952 80.0279 152.908 80.6879C152.864 81.3479 152.808 82.0079 152.784 82.6679C152.76 83.3279 152.7 83.9919 152.684 84.6679C152.668 85.3439 152.656 85.9959 152.624 86.6679C152.568 89.3279 152.6 91.9959 152.684 94.6679C152.856 100.02 153.28 105.416 153.82 110.968Z" fill="#E6E6E6"/>
<path d="M148.328 105.504L130.752 70.832L131.456 104.832L148.328 105.504Z" fill="#E6E6E6"/>
<path d="M161.856 96.26H126.524L131.148 130.96H157.228L161.856 96.26Z" fill="#F5F5F5"/>
<path d="M139.784 96.26H126.524L131.148 130.96H138.112L139.784 96.26Z" fill="#EBEBEB"/>
<path d="M50.444 83.868H38.976V88.984H50.444V83.868Z" fill="#E0E0E0"/>
<path d="M76.56 88.984H50.444V83.868H76.56C76.7414 83.868 76.9154 83.9401 77.0437 84.0683C77.172 84.1966 77.244 84.3706 77.244 84.552V88.304C77.243 88.4847 77.1704 88.6577 77.0423 88.7851C76.9141 88.9125 76.7407 88.984 76.56 88.984V88.984Z" fill="#F0F0F0"/>
<path d="M49.676 84.532H38.976V88.316H49.676V84.532Z" fill="#F0F0F0"/>
<path d="M52.752 80.132H41.284V83.864H52.752V80.132Z" fill="#E6E6E6"/>
<path d="M73.052 83.8679H52.752V80.1359H73.052C73.2334 80.1359 73.4074 80.208 73.5356 80.3363C73.6639 80.4645 73.736 80.6385 73.736 80.8199V83.1999C73.7318 83.3785 73.6579 83.5484 73.5301 83.6733C73.4022 83.7981 73.2306 83.868 73.052 83.8679V83.8679Z" fill="#FAFAFA"/>
<path d="M67.1399 80.132H58.4399V83.864H67.1399V80.132Z" fill="#F5F5F5"/>
<path d="M51.984 80.8H41.284V83.2H51.984V80.8Z" fill="#F5F5F5"/>
<path d="M100 149.024C142.833 149.024 177.556 146.997 177.556 144.496C177.556 141.995 142.833 139.968 100 139.968C57.167 139.968 22.444 141.995 22.444 144.496C22.444 146.997 57.167 149.024 100 149.024Z" fill="#F5F5F5"/>
<path d="M148.128 38.3601C149.116 35.1601 139.008 34.4321 136.572 40.1801C133.16 48.2321 138.136 52.7601 138.136 52.7601C141.036 51.2041 146.708 50.9721 149.808 52.0001L148.128 38.3601Z" fill="#263238"/>
<path d="M148.908 141.192L145.788 141.312L145.772 137.94L148.888 137.82L148.908 141.192Z" fill="#B55B52"/>
<path d="M145.664 140.668H149.2C149.263 140.668 149.324 140.689 149.374 140.728C149.424 140.766 149.46 140.819 149.476 140.88L150.244 143.68C150.264 143.746 150.267 143.816 150.255 143.883C150.243 143.951 150.214 144.014 150.173 144.069C150.131 144.124 150.077 144.168 150.015 144.197C149.953 144.227 149.885 144.242 149.816 144.24C148.58 144.216 147.98 144.144 146.428 144.144C145.472 144.144 143.008 144.244 141.688 144.244C140.368 144.244 140.128 142.94 140.664 142.824C143.064 142.292 144.432 141.564 145.172 140.868C145.304 140.74 145.48 140.669 145.664 140.668V140.668Z" fill="#764AF1"/>
<path opacity="0.2" d="M145.772 137.944L145.78 139.68L148.9 139.696L148.892 137.82L145.772 137.944Z" fill="black"/>
<path d="M138.644 75.5281C138.136 79.3681 139.868 97.5841 141.328 105.528C143.268 116.084 145.104 138.972 145.104 138.972L149.308 138.72C149.308 138.72 149.816 113.628 148.528 105.12C148.444 93.9561 148.644 74.4041 148.644 74.4041L138.644 75.5281Z" fill="#263238"/>
<path opacity="0.2" d="M148.548 86.5721C148.548 83.7401 146.452 81.5041 145.928 86.9121C145.596 90.3561 146.936 96.1321 148.508 100.132C148.504 95.7761 148.524 90.8961 148.548 86.5721Z" fill="black"/>
<path d="M167.468 141.54L164.608 141.616L163.26 137.716L166.124 137.64L167.468 141.54Z" fill="#B55B52"/>
<path d="M167.4 140.668H163.872C163.844 140.666 163.816 140.67 163.79 140.68C163.764 140.691 163.741 140.706 163.722 140.727C163.703 140.747 163.688 140.771 163.68 140.798C163.671 140.824 163.668 140.852 163.672 140.88L163.932 143.68C163.959 143.832 164.037 143.97 164.152 144.071C164.268 144.173 164.414 144.233 164.568 144.24C165.792 144.216 166.368 144.144 167.92 144.144C168.876 144.144 170.132 144.244 171.452 144.244C172.772 144.244 172.532 142.94 171.956 142.824C169.368 142.292 168.964 141.564 167.956 140.868C167.795 140.747 167.601 140.677 167.4 140.668V140.668Z" fill="#764AF1"/>
<path opacity="0.2" d="M163.264 137.72L163.956 139.728L166.876 139.812L166.128 137.64L163.264 137.72Z" fill="black"/>
<path d="M143.444 74.988C143.444 74.988 149.928 98.728 153.184 105.732C155.3 116.552 162.872 139.228 162.872 139.228L167.272 138.924C167.272 138.924 162.472 115.98 159.52 105.324C157.92 95.424 156.876 78.924 152.32 73.988L143.444 74.988Z" fill="#263238"/>
<path d="M137.16 57.8721C137.076 59.8721 136.904 61.8121 136.668 63.7761C136.432 65.7401 136.144 67.6841 135.764 69.6321L135.616 70.3641L135.536 70.7641C135.486 71 135.41 71.2295 135.308 71.4481C135.154 71.792 134.916 72.0918 134.616 72.3201C134.243 72.5933 133.79 72.7341 133.328 72.7201C133.028 72.7084 132.733 72.6434 132.456 72.5281C132.265 72.4486 132.082 72.3523 131.908 72.2401C131.406 71.8978 130.948 71.4948 130.544 71.0401C130.18 70.6401 129.848 70.2401 129.532 69.8401C128.327 68.2423 127.257 66.5471 126.332 64.7721C126.235 64.5848 126.21 64.3685 126.262 64.1641C126.314 63.9597 126.44 63.7816 126.614 63.6636C126.789 63.5456 127.001 63.4959 127.21 63.524C127.419 63.5521 127.611 63.6561 127.748 63.8161V63.8161C128.98 65.2721 130.224 66.7641 131.528 68.0761C131.848 68.4041 132.176 68.7201 132.504 69.0001C132.776 69.2517 133.077 69.4705 133.4 69.6521C133.452 69.6721 133.5 69.6961 133.504 69.6881C133.508 69.6801 133.48 69.6601 133.34 69.6481C133.123 69.6443 132.911 69.7117 132.736 69.8401C132.625 69.9167 132.533 70.018 132.468 70.1361C132.444 70.1881 132.468 70.1361 132.468 70.1361L132.516 69.8041L132.616 69.0961C132.868 67.2121 133.068 65.3081 133.252 63.4041C133.436 61.5001 133.576 59.5721 133.704 57.6921V57.6681C133.73 57.2103 133.936 56.7814 134.278 56.4757C134.619 56.17 135.068 56.0126 135.526 56.0381C135.984 56.0635 136.413 56.2698 136.719 56.6115C137.024 56.9532 137.182 57.4023 137.156 57.8601L137.16 57.8721Z" fill="#B55B52"/>
<path d="M135.692 55.2001C132.724 56.6521 133.188 60.5001 133.188 60.5001L137.936 63.8441C137.936 63.8441 139.672 59.6641 139.312 57.6601C138.94 55.6001 137.892 54.1401 135.692 55.2001Z" fill="#764AF1"/>
<path opacity="0.2" d="M135.2 58.4241C135.896 57.3281 137.092 57.5921 138.484 58.4641C138.808 58.7446 139.079 59.0805 139.284 59.4561C138.986 60.9616 138.544 62.435 137.964 63.8561L134.616 61.5001C134.483 60.4389 134.687 59.3627 135.2 58.4241Z" fill="black"/>
<path d="M127.972 64.3601L127.264 61.6521L124.864 63.8121C124.864 63.8121 125.732 65.2601 127.128 65.4561L127.972 64.3601Z" fill="#B55B52"/>
<path d="M125.424 60.5481L124.936 61.0321C124.565 61.395 124.35 61.888 124.336 62.4067C124.322 62.9254 124.51 63.4294 124.86 63.8121V63.8121L127.26 61.6521L126.588 60.6641C126.525 60.572 126.443 60.4949 126.347 60.438C126.251 60.3812 126.144 60.346 126.033 60.3349C125.922 60.3239 125.81 60.3372 125.705 60.3741C125.6 60.4109 125.504 60.4703 125.424 60.5481Z" fill="#B55B52"/>
<path d="M126.64 60.732C126.034 59.9188 125.485 59.0648 124.996 58.176C124.844 57.872 124.352 58.296 124.596 58.74C124.84 59.184 125.292 60.632 125.772 61.16C126.252 61.688 126.64 60.732 126.64 60.732Z" fill="#B55B52"/>
<path d="M134.592 57.3961C135.436 65.1241 137.956 70.5121 138.644 75.5281L152.3 74.0001C151.528 68.9801 151.136 65.6961 152.096 56.4001C152.138 55.9958 152.096 55.5872 151.972 55.2002C151.847 54.8132 151.644 54.4564 151.374 54.1523C151.104 53.8483 150.774 53.6038 150.405 53.4344C150.035 53.2649 149.634 53.1742 149.228 53.1681C148.396 53.1681 147.476 53.1681 146.548 53.2281C144.467 53.3102 142.395 53.5428 140.348 53.9241C138.908 54.2201 137.376 54.6361 136.28 54.9561C135.759 55.103 135.305 55.427 134.997 55.8724C134.689 56.3177 134.546 56.8565 134.592 57.3961V57.3961Z" fill="#764AF1"/>
<path d="M140.348 53.9161C140.348 53.9161 138.156 56.2881 141.424 59.5161C142.641 57.0578 144.391 54.9026 146.548 53.2081L140.348 53.9161Z" fill="white"/>
<path d="M145.152 46.3041C144.984 48.3441 145.004 52.0441 146.548 53.2201C146.548 53.2201 143.136 55.0761 141.296 58.3401C138.896 55.9401 140.348 53.9161 140.348 53.9161C142.512 53.1161 142.272 51.4881 141.708 49.9841L145.152 46.3041Z" fill="#B55B52"/>
<path opacity="0.2" d="M144.776 46.7081C144.88 47.8984 144.729 49.097 144.332 50.2241C144.056 51.0001 143.104 51.4441 142.096 51.6321C142.048 51.0656 141.913 50.5098 141.696 49.9841L144.776 46.7081Z" fill="black"/>
<path d="M148.048 43.4521C147.456 46.7561 147.272 48.1681 145.392 49.6801C142.56 51.9521 138.632 50.5001 138.228 47.0841C137.864 44.0081 138.9 39.1201 142.312 38.1761C143.064 37.9649 143.857 37.9494 144.617 38.1311C145.376 38.3129 146.077 38.6858 146.651 39.2145C147.226 39.7432 147.656 40.41 147.901 41.1517C148.145 41.8934 148.196 42.6853 148.048 43.4521V43.4521Z" fill="#B55B52"/>
<path d="M145.5 40.8001C144.7 42.5681 145.4 45.5681 147.936 45.3841C145.884 47.7241 146.372 52.8561 146.372 52.8561C147.655 52.9476 148.938 52.67 150.068 52.0561C150.068 52.0561 149.268 47.2041 150.112 43.8001C150.8 41.0321 150.7 35.6601 144.7 36.8281C144 36.9641 139.44 38.1601 138.98 40.5561C138.944 40.7721 143.848 42.1921 145.5 40.8001Z" fill="#263238"/>
<path d="M148.8 45.3281C148.729 45.6416 148.597 45.938 148.411 46.2003C148.225 46.4625 147.989 46.6854 147.716 46.8561C146.984 47.3081 146.38 46.7121 146.384 45.8961C146.384 45.1601 146.784 44.0401 147.604 43.9201C147.786 43.8962 147.972 43.9184 148.143 43.9845C148.314 44.0506 148.466 44.1586 148.585 44.2986C148.704 44.4386 148.786 44.6062 148.824 44.786C148.861 44.9658 148.853 45.1522 148.8 45.3281V45.3281Z" fill="#B55B52"/>
<path opacity="0.2" d="M149.948 58.6161C149.895 59.2985 150.023 59.9829 150.318 60.6006C150.612 61.2184 151.064 61.7479 151.628 62.1361C151.7 60.7521 151.82 59.2001 151.996 57.4161C151.3 56.6681 150.112 57.3201 149.948 58.6161Z" fill="black"/>
<path d="M152.4 73.172L153.152 74.324C153.212 74.416 153.112 74.524 152.952 74.54L138.632 76.14C138.508 76.14 138.4 76.104 138.384 76.028L138.12 74.828C138.12 74.744 138.204 74.66 138.336 74.644L152.168 73.092C152.21 73.0841 152.254 73.0873 152.295 73.1013C152.335 73.1153 152.372 73.1397 152.4 73.172V73.172Z" fill="#263238"/>
<path d="M150.732 74.9281L151.104 74.8841C151.176 74.8841 151.228 74.8321 151.22 74.7881L150.868 73.2161C150.868 73.1721 150.788 73.1401 150.712 73.1481L150.344 73.1921C150.268 73.1921 150.216 73.2441 150.228 73.2881L150.58 74.8561C150.588 74.9041 150.66 74.9361 150.732 74.9281Z" fill="#764AF1"/>
<path d="M139.704 76.1641L140.072 76.1241C140.148 76.1241 140.2 76.0681 140.188 76.0241L139.836 74.4561C139.836 74.4081 139.756 74.3801 139.684 74.3881L139.312 74.4281C139.24 74.4281 139.188 74.4801 139.196 74.5281L139.548 76.0961C139.56 76.1401 139.628 76.1721 139.704 76.1641Z" fill="#764AF1"/>
<path d="M145.2 75.5441L145.572 75.5041C145.644 75.5041 145.696 75.4521 145.688 75.4041L145.336 73.8361C145.336 73.7921 145.256 73.7601 145.184 73.7681L144.812 73.8081C144.74 73.8081 144.688 73.8601 144.696 73.9081L145.048 75.4761C145.076 75.5241 145.144 75.5521 145.2 75.5441Z" fill="#764AF1"/>
<path d="M142.4 43.7881C142.368 44.0601 142.2 44.2641 142.024 44.2441C141.848 44.2241 141.728 43.9841 141.76 43.7161C141.792 43.4481 141.96 43.2401 142.14 43.2601C142.32 43.2801 142.444 43.5201 142.4 43.7881Z" fill="#263238"/>
<path d="M139.348 43.4281C139.316 43.7001 139.148 43.9041 138.972 43.8841C138.796 43.8641 138.676 43.6241 138.708 43.3561C138.74 43.0881 138.908 42.8801 139.108 42.9001C139.308 42.9201 139.38 43.1601 139.348 43.4281Z" fill="#263238"/>
<path d="M139.164 42.924L138.532 42.66C138.532 42.66 138.8 43.2 139.164 42.924Z" fill="#263238"/>
<path d="M140.104 44C139.789 44.584 139.396 45.1223 138.936 45.6C139.062 45.7149 139.212 45.8007 139.376 45.8511C139.539 45.9016 139.711 45.9156 139.88 45.892L140.104 44Z" fill="#A02724"/>
<path d="M140.64 46.848C140.627 46.8393 140.617 46.8272 140.611 46.8131C140.604 46.799 140.602 46.7834 140.604 46.768C140.606 46.7575 140.609 46.7473 140.615 46.7382C140.62 46.729 140.627 46.721 140.636 46.7147C140.644 46.7083 140.654 46.7038 140.664 46.7013C140.675 46.6988 140.686 46.6983 140.696 46.7C141.03 46.7585 141.374 46.7372 141.699 46.6378C142.023 46.5384 142.32 46.3637 142.564 46.128C142.571 46.1202 142.58 46.1138 142.589 46.1092C142.599 46.1046 142.609 46.102 142.62 46.1014C142.63 46.1009 142.641 46.1024 142.651 46.1059C142.661 46.1095 142.67 46.1149 142.678 46.122C142.686 46.1291 142.692 46.1377 142.697 46.1473C142.701 46.1568 142.704 46.1672 142.705 46.1778C142.705 46.1884 142.704 46.199 142.7 46.209C142.697 46.219 142.691 46.2282 142.684 46.236C142.424 46.4918 142.108 46.6819 141.76 46.7904C141.412 46.8989 141.043 46.9228 140.684 46.86L140.64 46.848Z" fill="#263238"/>
<path d="M143.868 42.3641C143.844 42.3518 143.824 42.3322 143.812 42.3081C143.714 42.1317 143.577 41.9808 143.41 41.8675C143.243 41.7542 143.052 41.6818 142.852 41.6561C142.81 41.6561 142.769 41.6393 142.739 41.6093C142.709 41.5793 142.692 41.5386 142.692 41.4961C142.692 41.4537 142.709 41.413 142.739 41.383C142.769 41.353 142.81 41.3361 142.852 41.3361C143.104 41.3632 143.346 41.4499 143.558 41.589C143.771 41.7281 143.947 41.9156 144.072 42.1361C144.083 42.1542 144.09 42.1743 144.093 42.1952C144.096 42.2161 144.095 42.2373 144.09 42.2578C144.085 42.2782 144.075 42.2974 144.063 42.3143C144.05 42.3312 144.034 42.3454 144.016 42.3561C143.994 42.3684 143.969 42.3755 143.943 42.3769C143.917 42.3783 143.892 42.3739 143.868 42.3641Z" fill="#263238"/>
<path d="M138.54 41.8361L138.516 41.8161C138.501 41.8015 138.489 41.7841 138.481 41.7649C138.473 41.7456 138.469 41.7249 138.469 41.7041C138.469 41.6832 138.473 41.6625 138.481 41.6432C138.489 41.624 138.501 41.6066 138.516 41.5921C138.677 41.3945 138.882 41.2382 139.115 41.1359C139.348 41.0336 139.602 40.9884 139.856 41.0041C139.898 41.0094 139.937 41.0313 139.963 41.0651C139.99 41.0988 140.001 41.1416 139.996 41.1841C139.991 41.2265 139.969 41.2651 139.935 41.2913C139.901 41.3176 139.858 41.3294 139.816 41.3241C139.615 41.3128 139.414 41.3502 139.23 41.4331C139.046 41.5159 138.885 41.6418 138.76 41.8001C138.735 41.8327 138.698 41.8545 138.657 41.8612C138.616 41.8679 138.574 41.8589 138.54 41.8361V41.8361Z" fill="#263238"/>
<path d="M151.94 55.2761C153.116 56.4761 154.232 57.6761 155.32 58.9441C155.864 59.5761 156.412 60.2121 156.92 60.8841C157.473 61.5758 157.985 62.2998 158.452 63.0521C158.6 63.2862 158.734 63.5294 158.852 63.7801C158.937 63.9736 159.004 64.1744 159.052 64.3801C159.07 64.4633 159.084 64.5474 159.092 64.6321V64.7881C159.096 64.8574 159.096 64.9268 159.092 64.9961V65.1041V65.1521V65.1921L159.072 65.2721C158.968 65.7041 158.892 66.1401 158.756 66.5641C158.517 67.4286 158.202 68.2704 157.816 69.0801C157.42 69.902 156.93 70.6752 156.356 71.3841C156.061 71.7435 155.738 72.078 155.388 72.3841C155.212 72.5401 155.032 72.6881 154.836 72.8321C154.74 72.9001 154.636 72.9681 154.532 73.0321C154.428 73.0961 154.332 73.1521 154.164 73.2401L153.296 71.7641C153.296 71.7441 153.384 71.6721 153.428 71.6161L153.596 71.4281C153.708 71.2961 153.816 71.1561 153.92 71.0281C154.126 70.7327 154.314 70.4255 154.484 70.1081C154.825 69.4677 155.109 68.7985 155.332 68.1081C155.432 67.7481 155.544 67.4001 155.62 67.0281C155.696 66.6561 155.78 66.3001 155.84 65.9321C155.9 65.5641 155.944 65.1841 156 64.8121V64.7401V64.7081V64.7801C156 64.8241 156 64.8841 156 64.9121C155.998 64.9374 155.998 64.9628 156 64.9881V65.0881C156 65.1681 156 65.1441 156 65.1121C156 65.0801 155.872 64.9041 155.78 64.7721C155.38 64.2241 154.876 63.6041 154.364 63.0161C153.852 62.4281 153.316 61.8161 152.764 61.2281L149.464 57.6841L151.94 55.2761Z" fill="#B55B52"/>
<path d="M155.028 72.7041L152.628 74.9321L151.072 72.4001C151.072 72.4001 152.568 71.3241 153.912 71.7281L155.028 72.7041Z" fill="#B55B52"/>
<path d="M150.8 75.4001L150 74.5641C149.848 74.4038 149.765 74.1901 149.77 73.9692C149.774 73.7483 149.866 73.5381 150.024 73.3841L151.048 72.3801L152.6 74.9321L151.932 75.4801C151.767 75.6099 151.56 75.6736 151.351 75.6588C151.141 75.644 150.945 75.5518 150.8 75.4001V75.4001Z" fill="#B55B52"/>
<path d="M146.528 55.1641C146.344 56.5921 150.148 60.7641 150.148 60.7641L153.708 56.3081C153.708 56.3081 152.048 53.9801 150.78 53.4521C148.744 52.5921 146.736 53.5361 146.528 55.1641Z" fill="#764AF1"/>
<path d="M142.228 43.284L141.596 43.02C141.596 43.02 141.872 43.568 142.228 43.284Z" fill="#263238"/>
<path d="M51.4479 40.4839C49.9719 42.1199 48.1359 47.0239 53.8239 46.0399C59.5119 45.0559 51.4479 40.4839 51.4479 40.4839Z" fill="#263238"/>
<path d="M53.2599 35.976C53.6079 33.8 49.6279 28.804 48.0599 31.888C46.1359 35.6 53.2599 35.976 53.2599 35.976Z" fill="#263238"/>
<path d="M53.2719 37.296C55.0759 36.032 55.8839 29.696 52.5679 30.712C48.5719 31.932 53.2719 37.296 53.2719 37.296Z" fill="#263238"/>
<path d="M62.3999 56.704C62.3639 57.04 62.3319 57.46 62.3039 57.844C62.2759 58.228 62.2599 58.644 62.2479 59.044C62.2479 59.844 62.1999 60.644 62.2239 61.424C62.2575 63.004 62.4005 64.5798 62.6519 66.14C62.7079 66.54 62.7959 66.908 62.8679 67.292L62.8919 67.424C62.8911 67.4386 62.8911 67.4533 62.8919 67.468C62.8919 67.468 62.8919 67.468 62.8919 67.504C62.8919 67.54 63.0839 67.636 63.3559 67.664C63.6735 67.7015 63.9943 67.7015 64.3119 67.664C65.8492 67.4157 67.3525 66.9902 68.7919 66.396L69.5679 67.776C69.1959 68.044 68.8399 68.268 68.4639 68.492C68.0879 68.716 67.7159 68.932 67.3199 69.124C66.5133 69.5421 65.6645 69.8733 64.7879 70.112C64.2916 70.2446 63.7814 70.3184 63.2679 70.332C62.597 70.3513 61.9342 70.1808 61.3559 69.84C61.0081 69.6242 60.7118 69.3347 60.4879 68.992C60.3815 68.8308 60.2917 68.6593 60.2199 68.48C60.1833 68.3964 60.1513 68.311 60.1239 68.224L60.0839 68.096L60.0639 68.016C59.9559 67.592 59.8279 67.164 59.7359 66.736C59.3525 65.0267 59.1236 63.2863 59.0519 61.536C59.0079 60.668 58.9919 59.804 59.0239 58.936C59.0239 58.5 59.0599 58.068 59.0919 57.632C59.1239 57.196 59.1639 56.78 59.2279 56.292L62.3999 56.704Z" fill="#FFB573"/>
<path d="M61.9999 52.9319C63.1999 53.4759 63.1999 58.8559 63.1999 58.8559L57.7679 61.3199C57.7679 61.3199 56.8399 54.7799 58.0599 53.5519C59.2799 52.3239 60.2439 52.1399 61.9999 52.9319Z" fill="#263238"/>
<path opacity="0.2" d="M61.6999 54.08L62.5159 59.18L59.5679 60.512L61.6999 54.08Z" fill="black"/>
<path d="M68.0959 67.068L70.3639 64.584L71.0759 67.32C71.0759 67.32 69.6239 68.708 68.3879 68.308L68.0959 67.068Z" fill="#FFB573"/>
<path d="M71.8239 64.5039L72.1599 65.8599C72.1851 65.9666 72.1821 66.078 72.1513 66.1832C72.1204 66.2884 72.0627 66.3838 71.9839 66.4599L71.0759 67.3199L70.3639 64.5839L70.8039 64.1839C70.884 64.1115 70.9816 64.0612 71.0871 64.038C71.1927 64.0149 71.3024 64.0198 71.4054 64.0521C71.5085 64.0844 71.6013 64.1431 71.6747 64.2224C71.7481 64.3016 71.7995 64.3987 71.8239 64.5039V64.5039Z" fill="#FFB573"/>
<path d="M62.6839 54.172C62.5319 56 61.6159 60.456 57.8839 71.256L45.3639 69.092C46.3999 64.292 46.9439 61.228 46.4639 51.66C46.4523 51.444 46.4853 51.228 46.5609 51.0253C46.6364 50.8227 46.7528 50.6378 46.9029 50.482C47.053 50.3263 47.2335 50.2032 47.4333 50.1203C47.633 50.0373 47.8477 49.9964 48.0639 50C49.3192 50.0113 50.573 50.0901 51.8199 50.236C53.7349 50.4231 55.6343 50.7453 57.5039 51.2C59.0319 51.6 60.6679 52.184 61.6559 52.544C61.9835 52.663 62.2622 52.8875 62.4483 53.1822C62.6344 53.4769 62.7173 53.825 62.6839 54.172V54.172Z" fill="#263238"/>
<path opacity="0.2" d="M46.6999 54.3359C47.7839 54.8159 48.6199 56.2319 48.0999 58.4879C47.8512 59.5116 47.3171 60.4437 46.5599 61.1759C46.6639 59.3879 46.6799 57.2959 46.5959 54.5999L46.6999 54.3359Z" fill="black"/>
<path d="M53.4839 43.932C53.5279 45.824 53.3079 49.236 51.8159 50.236C51.8159 50.236 52.8999 51.592 55.9279 53.928C58.8159 52.328 57.5039 51.216 57.5039 51.216C55.5479 50.38 55.8599 48.876 56.4599 47.516L53.4839 43.932Z" fill="#FFB573"/>
<path opacity="0.2" d="M54.6999 45.396L56.4599 47.512C56.3151 47.8277 56.1986 48.1557 56.1119 48.492C55.3519 48.244 54.2399 47.368 54.2199 46.492C54.2079 46.08 54.5999 45.572 54.6999 45.396Z" fill="black"/>
<path d="M51.9999 40.448C52.1719 43.548 52.1759 44.848 53.7319 46.448C56.0719 48.848 59.8399 47.968 60.5999 44.88C61.2839 42.08 60.8879 37.496 57.8639 36.244C57.1968 35.9642 56.4691 35.8599 55.7502 35.941C55.0314 36.0222 54.3453 36.2861 53.7573 36.7076C53.1694 37.1291 52.6992 37.6942 52.3915 38.349C52.0839 39.0037 51.9491 39.7264 51.9999 40.448Z" fill="#FFB573"/>
<path d="M51.9719 42.5239C53.3079 42.5919 54.8399 40.0159 54.2199 38.8519C54.9199 38.6959 57.9039 39.0319 57.8919 37.9319C59.2399 38.8719 62.1999 38.9199 62.6919 37.6439C63.1839 36.3679 62.0639 35.1799 60.6079 35.6439C59.5559 32.9319 54.4959 32.3719 52.6079 34.9479C50.2159 34.8879 45.0199 38.7999 51.9719 42.5239Z" fill="#263238"/>
<path d="M57.3599 41.304C57.3599 41.556 57.4879 41.76 57.6559 41.76C57.8239 41.76 57.9519 41.56 57.9559 41.308C57.9599 41.056 57.8239 40.848 57.6599 40.848C57.4959 40.848 57.3599 41.052 57.3599 41.304Z" fill="#263238"/>
<path d="M60.2079 41.32C60.2079 41.572 60.3399 41.776 60.5039 41.78C60.6679 41.784 60.8039 41.576 60.8079 41.324C60.8119 41.072 60.6759 40.868 60.5119 40.864C60.3479 40.86 60.2119 41.068 60.2079 41.32Z" fill="#263238"/>
<path d="M60.4399 40.88L61.0439 40.708C61.0439 40.708 60.7319 41.2 60.4399 40.88Z" fill="#263238"/>
<path d="M59.3279 41.7679C59.5489 42.3396 59.8477 42.878 60.2159 43.3679C60.0868 43.459 59.9394 43.5208 59.784 43.5491C59.6286 43.5775 59.4688 43.5716 59.3159 43.5319L59.3279 41.7679Z" fill="#ED893E"/>
<path d="M57.8479 44.528C57.9709 44.5478 58.0953 44.5572 58.2199 44.556C58.2297 44.5565 58.2395 44.555 58.2487 44.5517C58.2579 44.5483 58.2663 44.5431 58.2734 44.5363C58.2805 44.5296 58.2862 44.5215 58.2901 44.5125C58.2939 44.5035 58.2959 44.4938 58.2959 44.484C58.2949 44.4641 58.2866 44.4453 58.2726 44.4313C58.2585 44.4172 58.2397 44.4089 58.2199 44.408C57.9054 44.4117 57.5944 44.3412 57.3122 44.2022C57.03 44.0632 56.7846 43.8596 56.5959 43.608C56.591 43.5992 56.5843 43.5915 56.5763 43.5855C56.5682 43.5794 56.559 43.5751 56.5492 43.5729C56.5394 43.5706 56.5293 43.5704 56.5194 43.5724C56.5095 43.5743 56.5001 43.5782 56.4919 43.584C56.4787 43.598 56.4713 43.6166 56.4713 43.6359C56.4713 43.6553 56.4787 43.6739 56.4919 43.688C56.6517 43.9101 56.8537 44.0987 57.0863 44.2428C57.319 44.3869 57.5778 44.4838 57.8479 44.528V44.528Z" fill="#263238"/>
<path d="M57.4279 44.952C57.534 45.0154 57.6451 45.0702 57.7599 45.116C57.7688 45.1199 57.7784 45.122 57.7881 45.1221C57.7978 45.1221 57.8075 45.1203 57.8164 45.1165C57.8254 45.1128 57.8335 45.1073 57.8403 45.1003C57.8471 45.0934 57.8524 45.0851 57.8559 45.076C57.8598 45.0671 57.8618 45.0575 57.8619 45.0478C57.862 45.0381 57.8601 45.0285 57.8564 45.0195C57.8526 45.0105 57.8471 45.0024 57.8402 44.9956C57.8332 44.9888 57.825 44.9835 57.8159 44.98C57.5251 44.8659 57.2651 44.6852 57.0567 44.4525C56.8484 44.2199 56.6974 43.9416 56.6159 43.64C56.614 43.6305 56.6102 43.6214 56.6047 43.6133C56.5992 43.6053 56.5921 43.5984 56.5839 43.5932C56.5757 43.5879 56.5665 43.5844 56.5568 43.5828C56.5472 43.5813 56.5374 43.5817 56.5279 43.584C56.5092 43.5879 56.4926 43.5987 56.4814 43.6143C56.4703 43.6299 56.4655 43.649 56.4679 43.668C56.5352 43.9348 56.6547 44.1857 56.8195 44.406C56.9842 44.6264 57.191 44.812 57.4279 44.952V44.952Z" fill="#263238"/>
<path d="M51.0519 42.864C51.2243 43.4383 51.6149 43.9223 52.1399 44.212C52.8399 44.588 53.3639 44 53.3159 43.248C53.2719 42.572 52.8519 41.56 52.0759 41.496C51.9066 41.485 51.7372 41.5164 51.5831 41.5874C51.429 41.6584 51.295 41.7668 51.1934 41.9026C51.0917 42.0384 51.0255 42.1975 51.0008 42.3654C50.9761 42.5332 50.9937 42.7046 51.0519 42.864V42.864Z" fill="#FFB573"/>
<path d="M56.0639 39.896C56.0923 39.9096 56.1242 39.9139 56.1552 39.9081C56.1861 39.9024 56.2144 39.8869 56.2359 39.864C56.7199 39.38 57.5919 39.52 57.5999 39.52C57.6385 39.5259 57.6779 39.5168 57.7099 39.4944C57.742 39.4721 57.7642 39.4383 57.7719 39.4C57.7753 39.3805 57.7748 39.3606 57.7704 39.3413C57.766 39.3221 57.7578 39.3039 57.7462 39.2878C57.7347 39.2718 57.72 39.2582 57.7031 39.248C57.6862 39.2377 57.6675 39.2309 57.6479 39.228C57.6079 39.228 56.6159 39.064 56.0279 39.656C56.0138 39.6698 56.0025 39.6863 55.9948 39.7045C55.9872 39.7227 55.9832 39.7422 55.9832 39.762C55.9832 39.7818 55.9872 39.8013 55.9948 39.8195C56.0025 39.8377 56.0138 39.8542 56.0279 39.868L56.0639 39.896Z" fill="#263238"/>
<path d="M61.1719 39.952C61.1971 39.9554 61.2228 39.9525 61.2465 39.9434C61.2703 39.9343 61.2914 39.9194 61.3079 39.9C61.3328 39.8698 61.3446 39.8309 61.3409 39.7919C61.3371 39.7529 61.3181 39.717 61.2879 39.692C61.1108 39.5374 60.8994 39.4274 60.6712 39.3711C60.443 39.3147 60.2046 39.3137 59.9759 39.368C59.939 39.38 59.9082 39.406 59.8903 39.4404C59.8723 39.4748 59.8686 39.5149 59.8799 39.552C59.8849 39.571 59.8938 39.5887 59.9059 39.6041C59.918 39.6195 59.9331 39.6323 59.9504 39.6417C59.9676 39.6511 59.9865 39.6568 60.0061 39.6586C60.0256 39.6604 60.0453 39.6581 60.0639 39.652C60.2454 39.6106 60.4343 39.6133 60.6145 39.6599C60.7948 39.7065 60.9613 39.7957 61.0999 39.92C61.1206 39.937 61.1455 39.9481 61.1719 39.952Z" fill="#263238"/>
<path d="M56.6879 140.544H59.8159L59.6159 133.3H56.4879L56.6879 140.544Z" fill="#FFB573"/>
<path d="M59.9999 140.18H56.4839C56.4241 140.178 56.3658 140.199 56.3217 140.24C56.2775 140.28 56.251 140.336 56.2479 140.396L55.9879 143.176C55.9852 143.248 55.997 143.319 56.0225 143.386C56.048 143.453 56.0867 143.515 56.1363 143.567C56.1859 143.618 56.2454 143.66 56.3113 143.688C56.3772 143.717 56.4482 143.731 56.5199 143.732C57.7439 143.712 58.3279 143.64 59.8759 143.64C60.8239 143.64 62.7959 143.736 64.1079 143.736C65.4199 143.736 65.4279 142.44 64.8719 142.32C62.3959 141.792 61.3919 141.068 60.5319 140.372C60.3813 140.25 60.1938 140.182 59.9999 140.18V140.18Z" fill="#263238"/>
<g opacity="0.2">
<path opacity="0.2" d="M59.6159 133.3L59.7199 137.036H56.5919L56.4879 133.3H59.6159Z" fill="black"/>
</g>
<path d="M57.8919 71.256C57.8919 71.256 59.8439 90.788 60.4519 100.316C61.0839 110.224 60.2559 136.316 60.2559 136.316H56.0279C56.0279 136.316 53.4159 106.924 53.4159 101.06C51.7519 90.432 47.1639 79.424 48.7239 69.676L57.8919 71.256Z" fill="#764AF1"/>
<path opacity="0.6" d="M57.8919 71.256C57.8919 71.256 59.8439 90.788 60.4519 100.316C61.0839 110.224 60.2559 136.316 60.2559 136.316H56.0279C56.0279 136.316 53.4159 106.924 53.4159 101.06C51.7519 90.432 47.1639 79.424 48.7239 69.676L57.8919 71.256Z" fill="white"/>
<path opacity="0.2" d="M51.2479 78.9879C50.3585 79.2269 49.5657 79.7372 48.9799 80.4479C49.6239 84.4999 50.7119 88.6559 51.7119 92.8159C52.4279 88.2959 51.9999 80.6799 51.2479 78.9879Z" fill="#764AF1"/>
<path d="M55.6599 136.464H60.6239L60.9879 134.88L55.4279 134.688L55.6599 136.464Z" fill="#263238"/>
<path d="M61.1999 140.728C61.4676 140.751 61.7352 140.683 61.9599 140.536C62.0103 140.492 62.0488 140.436 62.0719 140.373C62.0949 140.31 62.1018 140.242 62.0919 140.176C62.0898 140.135 62.0773 140.095 62.0556 140.06C62.0339 140.025 62.0038 139.996 61.9679 139.976C61.5679 139.768 60.3359 140.404 60.1959 140.476C60.1823 140.483 60.1713 140.494 60.1648 140.508C60.1582 140.521 60.1565 140.537 60.1599 140.552C60.1618 140.567 60.1681 140.581 60.1781 140.592C60.1881 140.604 60.2013 140.612 60.2159 140.616C60.5398 140.683 60.8692 140.721 61.1999 140.728ZM61.7599 140.08C61.8069 140.077 61.8539 140.087 61.8959 140.108C61.9114 140.115 61.9245 140.126 61.9337 140.14C61.9429 140.154 61.9478 140.171 61.9479 140.188C61.9541 140.231 61.9492 140.276 61.9339 140.317C61.9185 140.358 61.8931 140.395 61.8599 140.424C61.6719 140.596 61.1559 140.624 60.4639 140.512C60.8642 140.296 61.2985 140.15 61.7479 140.08H61.7599Z" fill="#764AF1"/>
<path d="M60.2199 140.616H60.2479C60.6239 140.448 61.3599 139.772 61.3039 139.416C61.3039 139.332 61.2279 139.228 61.0239 139.208C60.9521 139.202 60.8797 139.21 60.8111 139.232C60.7424 139.254 60.6788 139.289 60.6239 139.336C60.2239 139.664 60.1599 140.504 60.1559 140.536C60.1556 140.549 60.1583 140.562 60.1639 140.574C60.1694 140.586 60.1777 140.596 60.1879 140.604C60.1976 140.61 60.2085 140.614 60.2199 140.616ZM60.9639 139.348H61.0079C61.1439 139.348 61.1519 139.416 61.1559 139.432C61.1919 139.648 60.6919 140.176 60.3119 140.408C60.3419 140.052 60.4816 139.713 60.7119 139.44C60.7828 139.381 60.8718 139.349 60.9639 139.348V139.348Z" fill="#764AF1"/>
<path d="M30.7639 135.632L33.6559 136.824L36.6119 130.208L33.7239 129.016L30.7639 135.632Z" fill="#FFB573"/>
<path d="M33.8839 136.8L30.8279 135.064C30.7761 135.033 30.7147 135.023 30.6556 135.035C30.5966 135.046 30.5439 135.08 30.5079 135.128L28.7999 137.332C28.7589 137.39 28.7304 137.455 28.7164 137.525C28.7024 137.594 28.7031 137.666 28.7186 137.735C28.7341 137.804 28.7639 137.869 28.8062 137.925C28.8484 137.982 28.9022 138.029 28.9639 138.064C30.0399 138.648 30.5879 138.864 31.9319 139.64C32.7559 140.112 34.4199 141.168 35.5599 141.816C36.6999 142.464 37.4039 141.372 36.9879 141.016C35.1159 139.344 34.6359 138.236 34.2599 137.228C34.1913 137.044 34.0575 136.892 33.8839 136.8Z" fill="#263238"/>
<g opacity="0.2">
<path opacity="0.2" d="M36.6119 130.212L35.0879 133.62L32.1959 132.428L33.7199 129.016L36.6119 130.212Z" fill="black"/>
</g>
<path d="M54.3759 70.648C54.3759 70.648 49.2639 93.096 48.3999 102.6C46.2279 111.428 35.9999 133.2 35.9999 133.2L32.0879 131.6C32.0879 131.6 38.2199 108.34 41.5879 101.932C41.9079 91.308 41.8519 78.508 45.2279 69.072L54.3759 70.648Z" fill="#764AF1"/>
<path opacity="0.6" d="M54.3759 70.648C54.3759 70.648 49.2639 93.096 48.3999 102.6C46.2279 111.428 35.9999 133.2 35.9999 133.2L32.0879 131.6C32.0879 131.6 38.2199 108.34 41.5879 101.932C41.9079 91.308 41.8519 78.508 45.2279 69.072L54.3759 70.648Z" fill="white"/>
<path d="M31.6719 131.592L36.2599 133.484L37.1999 132.16L32.1359 129.86L31.6719 131.592Z" fill="#263238"/>
<path d="M34.6359 137.84C34.8575 137.992 35.1237 138.065 35.3919 138.048C35.4574 138.034 35.5185 138.004 35.5695 137.961C35.6205 137.918 35.6599 137.862 35.6839 137.8C35.7035 137.764 35.7138 137.725 35.7138 137.684C35.7138 137.643 35.7035 137.603 35.6839 137.568C35.4559 137.192 34.0559 137.132 33.8999 137.128C33.8847 137.126 33.8693 137.129 33.8563 137.137C33.8432 137.145 33.8332 137.158 33.8279 137.172C33.8191 137.184 33.8144 137.199 33.8144 137.214C33.8144 137.229 33.8191 137.244 33.8279 137.256C34.0789 137.475 34.3493 137.67 34.6359 137.84ZM35.4359 137.552C35.4784 137.574 35.5154 137.605 35.5439 137.644C35.5527 137.658 35.5574 137.675 35.5574 137.692C35.5574 137.709 35.5527 137.725 35.5439 137.74C35.5279 137.78 35.5025 137.816 35.4698 137.845C35.4371 137.873 35.3981 137.894 35.3559 137.904C35.1039 137.956 34.6439 137.728 34.0959 137.288C34.5556 137.299 35.0101 137.389 35.4399 137.552H35.4359Z" fill="#764AF1"/>
<path d="M33.8479 137.264C33.8479 137.264 33.8479 137.264 33.8759 137.264C34.2759 137.3 35.2599 137.076 35.3839 136.74C35.4119 136.66 35.4119 136.54 35.2439 136.42C35.1863 136.38 35.1213 136.351 35.0527 136.336C34.984 136.321 34.913 136.319 34.8439 136.332C34.3399 136.42 33.8639 137.132 33.8439 137.132C33.8371 137.143 33.8336 137.155 33.8336 137.168C33.8336 137.181 33.8371 137.193 33.8439 137.204C33.8396 137.214 33.8377 137.224 33.8384 137.234C33.8391 137.245 33.8423 137.255 33.8479 137.264V137.264ZM35.1199 136.532C35.1348 136.537 35.1484 136.545 35.1599 136.556C35.2679 136.632 35.2519 136.684 35.2439 136.7C35.1679 136.904 34.4719 137.1 34.0439 137.132C34.2446 136.837 34.5328 136.611 34.8679 136.488C34.9544 136.475 35.043 136.49 35.1199 136.532V136.532Z" fill="#764AF1"/>
<path d="M57.5999 40.86L58.2039 40.692C58.2039 40.692 57.8799 41.16 57.5999 40.86Z" fill="#263238"/>
<path d="M45.3119 68.3279L44.7999 69.3919C44.7399 69.4719 44.8279 69.5759 44.9719 69.6039L57.8559 71.8279C57.9679 71.8479 58.0719 71.8279 58.0919 71.7359L58.3999 70.6359C58.4199 70.5599 58.3319 70.4759 58.2079 70.4559L45.5319 68.2679C45.4932 68.2581 45.4526 68.2585 45.414 68.269C45.3755 68.2796 45.3403 68.2998 45.3119 68.3279V68.3279Z" fill="#263238"/>
<path d="M46.7999 70.044L46.4599 69.988C46.3919 69.988 46.3479 69.932 46.3599 69.888L46.7599 68.46C46.7599 68.42 46.8359 68.396 46.9039 68.408L47.2439 68.464C47.3119 68.464 47.3559 68.52 47.3439 68.564L46.9439 69.992C46.9439 70.032 46.8799 70.056 46.7999 70.044Z" fill="#764AF1"/>
<g opacity="0.6">
<path opacity="0.6" d="M46.7999 70.0439L46.4599 69.9879C46.3919 69.9879 46.3479 69.9319 46.3599 69.8879L46.7599 68.4599C46.7599 68.4199 46.8359 68.3959 46.9039 68.4079L47.2439 68.4639C47.3119 68.4639 47.3559 68.5199 47.3439 68.5639L46.9439 69.9919C46.9439 70.0319 46.8799 70.0559 46.7999 70.0439Z" fill="white"/>
</g>
<path d="M56.8799 71.784L56.544 71.7239C56.476 71.7239 56.428 71.668 56.44 71.628L56.84 70.1999C56.84 70.1559 56.916 70.1319 56.984 70.1439L57.3239 70.2039C57.3919 70.2039 57.4359 70.2599 57.4239 70.2999L57.0239 71.728C57.0159 71.772 56.9479 71.796 56.8799 71.784Z" fill="#764AF1"/>
<g opacity="0.6">
<path opacity="0.6" d="M56.8799 71.784L56.544 71.7239C56.476 71.7239 56.428 71.668 56.44 71.628L56.84 70.1999C56.84 70.1559 56.916 70.1319 56.984 70.1439L57.3239 70.2039C57.3919 70.2039 57.4359 70.2599 57.4239 70.2999L57.0239 71.728C57.0159 71.772 56.9479 71.796 56.8799 71.784Z" fill="white"/>
</g>
<path d="M51.8679 70.92L51.5279 70.86C51.4599 70.86 51.4159 70.804 51.4279 70.764L51.8279 69.332C51.8279 69.292 51.9039 69.268 51.9719 69.28L52.3119 69.336C52.3759 69.336 52.4239 69.392 52.4119 69.436L52.0119 70.864C51.9999 70.904 51.9359 70.928 51.8679 70.92Z" fill="#764AF1"/>
<g opacity="0.6">
<path opacity="0.6" d="M51.8679 70.92L51.5279 70.86C51.4599 70.86 51.4159 70.804 51.4279 70.764L51.8279 69.332C51.8279 69.292 51.9039 69.268 51.9719 69.28L52.3119 69.336C52.3759 69.336 52.4239 69.392 52.4119 69.436L52.0119 70.864C51.9999 70.904 51.9359 70.928 51.8679 70.92Z" fill="white"/>
</g>
<path d="M43.9439 70.768L46.2879 73.2L43.1159 73.412C43.1159 73.412 42.0319 71.72 42.6639 70.584L43.9439 70.768Z" fill="#FFB573"/>
<path d="M47.3039 54.232C46.3999 55.672 45.4639 57.104 44.5279 58.524C43.5919 59.944 42.6359 61.384 41.7799 62.76L41.6439 62.976C41.6439 62.976 41.6439 63 41.6119 63.028C41.579 63.1195 41.5589 63.215 41.5519 63.312C41.5266 63.6286 41.5414 63.9471 41.5959 64.26C41.7301 65.0245 41.9281 65.7765 42.1879 66.508C42.4439 67.276 42.7439 68.048 43.0759 68.812C43.4079 69.576 43.7519 70.352 44.0999 71.1L42.7559 71.94C41.6825 70.5304 40.745 69.0223 39.9559 67.436C39.5357 66.5928 39.2007 65.7097 38.9559 64.8C38.8177 64.2777 38.7452 63.7402 38.7399 63.2C38.7412 62.8695 38.7828 62.5404 38.8639 62.22C38.9159 62.0336 38.9828 61.8516 39.0639 61.676L39.1599 61.484L39.2399 61.328C39.6639 60.528 40.0879 59.784 40.5279 59.032C40.9679 58.28 41.4079 57.552 41.8559 56.82C42.7519 55.352 43.6639 53.908 44.6199 52.48L47.3039 54.232Z" fill="#FFB573"/>
<path d="M48.1519 50.0721C45.0799 49.5441 42.7719 54.2841 42.7719 54.2841L46.3719 58.7161C46.3719 58.7161 48.6799 56.1361 49.1919 54.4841C49.7359 52.7641 49.6479 50.3321 48.1519 50.0721Z" fill="#263238"/>
<path d="M46.5599 75.8159L43.8919 75.8479L43.1159 73.412L46.2879 73.2L46.5599 75.8159Z" fill="#FFB573"/>
<path d="M152.048 18.668C153.062 18.669 154.066 18.8699 155.003 19.2591C155.939 19.6483 156.79 20.2182 157.506 20.9362C158.222 21.6542 158.79 22.5063 159.177 23.4438C159.563 24.3813 159.762 25.3858 159.76 26.4V85.136C159.758 87.1807 158.945 89.141 157.499 90.5869C156.053 92.0327 154.093 92.8459 152.048 92.848H132.488C130.897 92.848 129.371 93.4801 128.245 94.6053C127.12 95.7306 126.488 97.2567 126.488 98.848V104.536L114.524 94.288C113.436 93.3577 112.051 92.8469 110.62 92.848H47.952C45.9073 92.8459 43.9469 92.0327 42.5011 90.5869C41.0553 89.141 40.2421 87.1807 40.24 85.136V26.4C40.2421 24.3553 41.0553 22.3949 42.5011 20.9491C43.9469 19.5033 45.9073 18.6901 47.952 18.688H152.048V18.668ZM152.048 12.688H47.952C44.3186 12.6985 40.837 14.1466 38.2678 16.7158C35.6986 19.285 34.2505 22.7666 34.24 26.4V85.136C34.2505 88.7694 35.6986 92.251 38.2678 94.8202C40.837 97.3894 44.3186 98.8374 47.952 98.848H110.62L132.488 117.576V98.848H152.048C155.681 98.8374 159.163 97.3894 161.732 94.8202C164.301 92.251 165.749 88.7694 165.76 85.136V26.4C165.749 22.7666 164.301 19.285 161.732 16.7158C159.163 14.1466 155.681 12.6985 152.048 12.688V12.688Z" fill="#764AF1"/>
<path d="M95.544 141.736C95.912 141.736 96.26 141.688 96.372 141.524C96.4026 141.481 96.4191 141.429 96.4191 141.376C96.4191 141.323 96.4026 141.271 96.372 141.228C96.3475 141.189 96.3155 141.154 96.2777 141.128C96.2399 141.101 96.1972 141.082 96.152 141.072C95.676 140.944 94.704 141.508 94.66 141.532C94.6481 141.539 94.6389 141.55 94.6339 141.563C94.6288 141.576 94.6281 141.59 94.632 141.604C94.6345 141.617 94.6413 141.63 94.6513 141.639C94.6614 141.648 94.6743 141.654 94.688 141.656C94.9702 141.709 95.2568 141.736 95.544 141.736V141.736ZM95.976 141.188C96.0199 141.184 96.0641 141.184 96.108 141.188C96.1626 141.202 96.2099 141.236 96.24 141.284C96.292 141.368 96.276 141.408 96.26 141.432C96.136 141.616 95.416 141.62 94.884 141.548C95.2217 141.362 95.5927 141.243 95.976 141.2V141.188Z" fill="#764AF1"/>
<path d="M94.6839 141.66H94.7119C95.0479 141.508 95.7039 140.892 95.6399 140.572C95.6399 140.496 95.5679 140.4 95.3839 140.384C95.3176 140.376 95.2502 140.382 95.1862 140.401C95.1222 140.42 95.0628 140.453 95.0119 140.496C94.6639 140.796 94.6119 141.56 94.6119 141.592C94.6122 141.604 94.6153 141.616 94.6208 141.627C94.6263 141.639 94.6342 141.648 94.6439 141.656C94.6566 141.661 94.6705 141.663 94.6839 141.66V141.66ZM95.3319 140.508H95.3759C95.4959 140.508 95.5039 140.568 95.5079 140.584C95.5479 140.776 95.1079 141.26 94.7599 141.472C94.7777 141.151 94.8983 140.843 95.1039 140.596C95.166 140.539 95.2475 140.507 95.3319 140.508V140.508Z" fill="#764AF1"/>
<path d="M91.5519 141.592H94.3959L94.4319 135.008H91.5879L91.5519 141.592Z" fill="#CE7A63"/>
<path d="M94.368 141.264H91.26C91.2048 141.263 91.1511 141.282 91.1086 141.317C91.0661 141.352 91.0375 141.402 91.028 141.456L90.56 144C90.5488 144.062 90.5515 144.126 90.5679 144.188C90.5843 144.249 90.614 144.306 90.6549 144.354C90.6957 144.403 90.7467 144.442 90.8043 144.468C90.8619 144.495 90.9246 144.508 90.988 144.508C92.108 144.488 93.724 144.42 95.132 144.42C96.776 144.42 96.98 144.512 98.912 144.512C100.08 144.512 100.356 143.332 99.864 143.224C97.624 142.736 97.028 142.684 95.064 141.5C94.8577 141.359 94.6171 141.278 94.368 141.264Z" fill="#263238"/>
<path opacity="0.2" d="M94.4319 135.008L94.4159 138.404H91.5679L91.5879 135.008H94.4319Z" fill="black"/>
<path d="M72.728 140.756C72.7497 140.454 72.6568 140.156 72.468 139.92C72.4249 139.889 72.3731 139.872 72.32 139.872C72.2668 139.872 72.215 139.889 72.172 139.92C72.134 139.943 72.1014 139.973 72.0765 140.01C72.0517 140.047 72.0351 140.088 72.028 140.132C71.924 140.604 72.544 141.6 72.572 141.644C72.5796 141.656 72.5904 141.665 72.6032 141.671C72.616 141.676 72.6302 141.678 72.644 141.676C72.6572 141.674 72.6695 141.668 72.6789 141.659C72.6883 141.649 72.6943 141.637 72.696 141.624C72.7297 141.336 72.7405 141.046 72.728 140.756V140.756ZM72.152 140.3C72.1459 140.257 72.1459 140.214 72.152 140.172C72.1554 140.145 72.1647 140.119 72.1793 140.096C72.1938 140.074 72.2131 140.054 72.236 140.04C72.32 139.992 72.36 140.012 72.384 140.04C72.576 140.172 72.62 140.892 72.576 141.42C72.3641 141.077 72.2202 140.697 72.152 140.3V140.3Z" fill="#764AF1"/>
<path d="M72.696 141.6C72.6984 141.591 72.6984 141.581 72.696 141.572C72.524 141.228 71.872 140.544 71.552 140.592C71.476 140.592 71.384 140.656 71.376 140.844C71.3718 140.981 71.4205 141.114 71.512 141.216C71.8319 141.474 72.2221 141.63 72.632 141.664C72.6436 141.666 72.6555 141.664 72.6662 141.659C72.6769 141.654 72.6858 141.646 72.692 141.636C72.6973 141.625 72.6987 141.612 72.696 141.6V141.6ZM71.496 140.896V140.856C71.496 140.736 71.548 140.728 71.564 140.728C71.756 140.696 72.264 141.16 72.496 141.528C72.1647 141.494 71.8511 141.362 71.596 141.148C71.5406 141.081 71.5083 140.998 71.504 140.912L71.496 140.896Z" fill="#764AF1"/>
<path d="M72.652 141.632L75.44 141.828L76.588 135.192L73.804 134.996L72.652 141.632Z" fill="#CE7A63"/>
<path d="M72.624 140.996L75.7 140.724C75.7574 140.719 75.8149 140.733 75.8634 140.764C75.9119 140.795 75.9487 140.842 75.968 140.896L76.904 143.364C76.9257 143.421 76.9341 143.482 76.9286 143.543C76.9231 143.603 76.9038 143.662 76.8721 143.714C76.8405 143.766 76.7973 143.81 76.746 143.843C76.6947 143.876 76.6365 143.897 76.576 143.904C75.464 143.984 73.848 144.06 72.452 144.184C70.824 144.328 71.884 144.324 69.972 144.496C68.816 144.6 68.32 143.452 68.772 143.296C70.9 142.616 71.264 142.148 71.972 141.272C72.0566 141.185 72.158 141.115 72.27 141.068C72.382 141.02 72.5023 140.996 72.624 140.996V140.996Z" fill="#263238"/>
<path opacity="0.2" d="M76.5879 135.196L75.9959 138.616L73.2079 138.42L73.7999 134.996L76.5879 135.196Z" fill="black"/>
<path d="M95.456 69.2599C95.456 69.2599 90.256 91.1039 88.288 99.2119C86.116 108.088 77.6 137.544 77.6 137.544L72.52 136.444C72.52 136.444 78.04 111.136 80.212 98.7519C81.88 89.2439 85.648 69.2599 85.648 69.2599H95.456Z" fill="#263238"/>
<path d="M78.4 136L78.0239 137.956L71.956 137.308L71.8719 135.516L78.4 136Z" fill="#764AF1"/>
<path opacity="0.3" d="M92.46 79.3839C88.86 79.8599 88.208 92.4759 88.124 99.8759L88.288 99.2078C89.368 94.7838 91.404 86.2518 93.036 79.4238C92.8494 79.3678 92.6526 79.3541 92.46 79.3839V79.3839Z" fill="black"/>
<path d="M100.852 69.2599C100.852 69.2599 99.464 90.5319 98.852 99.1919C98.208 108.2 95.652 137.744 95.652 137.744H90.7999C90.7999 137.744 90.292 108.74 90.152 99.8799C89.996 90.2239 90.8479 69.2599 90.8479 69.2599H100.852Z" fill="#263238"/>
<path d="M96.304 135.828C96.324 135.828 96.108 137.828 96.108 137.828H90.248L90.02 136.04L96.304 135.828Z" fill="#764AF1"/>
<path d="M87.4 48.7998C86.624 50.3718 85.836 52.0238 85.108 53.6478C84.38 55.2718 83.664 56.9158 83.108 58.5558L82.892 59.1678L82.7 59.7758L82.612 60.0518C82.619 59.9867 82.619 59.921 82.612 59.8558C82.5849 59.5865 82.4562 59.3376 82.252 59.1598C82.096 59.0558 82.092 59.0998 82.152 59.1318C82.2633 59.1833 82.38 59.2222 82.5 59.2478C82.8586 59.3233 83.2222 59.3727 83.588 59.3958C85.3389 59.4497 87.0914 59.3976 88.836 59.2398H88.884C89.1422 59.2203 89.3988 59.2946 89.6066 59.449C89.8145 59.6034 89.9597 59.8276 90.0156 60.0804C90.0715 60.3333 90.0344 60.5978 89.911 60.8254C89.7877 61.0531 89.5863 61.2286 89.344 61.3198C87.5278 62.0523 85.6237 62.5445 83.68 62.7838C83.1217 62.8411 82.5593 62.8464 82 62.7998C81.6619 62.7724 81.3271 62.7135 81 62.6238C80.5194 62.4989 80.0735 62.2664 79.696 61.9438C79.4229 61.7099 79.1986 61.4245 79.036 61.1038C78.8724 60.771 78.7746 60.4097 78.748 60.0398C78.7314 59.7448 78.7542 59.4488 78.816 59.1598L78.904 58.7598L79.072 58.0358L79.264 57.3278C79.7895 55.4878 80.424 53.6806 81.164 51.9158C81.9 50.1638 82.68 48.4798 83.588 46.7758C83.8546 46.2772 84.3065 45.9033 84.8462 45.7347C85.3859 45.5661 85.9702 45.6162 86.4733 45.8743C86.9764 46.1324 87.358 46.5778 87.5358 47.1146C87.7136 47.6513 87.6734 48.2364 87.424 48.7438L87.4 48.7998Z" fill="#CF7A64"/>
<path d="M88.916 59.3479L90.684 58.6519L90.596 61.9399C89.8824 61.8899 89.1936 61.6571 88.596 61.2639C88.4495 61.1577 88.3391 61.009 88.2797 60.8381C88.2203 60.6671 88.2149 60.482 88.264 60.3079L88.364 59.9479C88.4017 59.8112 88.4715 59.6854 88.5675 59.5811C88.6635 59.4768 88.783 59.3968 88.916 59.3479V59.3479Z" fill="#CE7A63"/>
<path d="M93.5959 58.2799L92.9599 61.1279L90.5959 61.9359L90.6839 58.6519L93.5959 58.2799Z" fill="#CE7A63"/>
<path d="M96.8879 34.0879C96.9359 34.3119 97.0919 34.4679 97.2359 34.4399C97.3799 34.4119 97.4679 34.2039 97.4199 33.9799C97.3719 33.7559 97.2199 33.5799 97.0719 33.6239C96.9239 33.6679 96.8439 33.8599 96.8879 34.0879Z" fill="#263238"/>
<path d="M97.068 34.4719C97.4758 35.1053 97.9699 35.6788 98.536 36.1759C98.4042 36.317 98.2433 36.4277 98.0643 36.5002C97.8854 36.5727 97.6928 36.6054 97.5 36.5959L97.068 34.4719Z" fill="#BA4D3C"/>
<path d="M95.812 33.0039C95.778 33.0035 95.7453 32.9907 95.72 32.9679C95.7075 32.9557 95.6976 32.941 95.6909 32.9249C95.6841 32.9087 95.6807 32.8914 95.6807 32.8739C95.6807 32.8564 95.6841 32.8391 95.6909 32.823C95.6976 32.8068 95.7075 32.7922 95.72 32.7799C95.8617 32.6191 96.0399 32.4945 96.2396 32.4166C96.4393 32.3387 96.6548 32.3096 96.868 32.3319C96.9028 32.3387 96.9335 32.3589 96.9537 32.388C96.9739 32.4171 96.9819 32.453 96.976 32.4879C96.9736 32.5054 96.9677 32.5221 96.9587 32.5372C96.9497 32.5523 96.9377 32.5655 96.9236 32.5759C96.9094 32.5864 96.8933 32.5939 96.8762 32.598C96.8591 32.6021 96.8414 32.6028 96.824 32.5999V32.5999C96.6552 32.5835 96.4849 32.6081 96.3275 32.6714C96.1701 32.7348 96.0304 32.8351 95.92 32.9639C95.9059 32.9779 95.8889 32.9887 95.8703 32.9956C95.8517 33.0024 95.8318 33.0053 95.812 33.0039V33.0039Z" fill="#263238"/>
<path d="M90.648 38.1759C91.048 40.2559 91.3 43.1399 89.848 44.5279C89.848 44.5279 90.42 46.6359 94.284 46.6359C98.532 46.6359 96.328 44.7839 96.328 44.7839C94.56 44.2359 94.576 42.2239 94.98 40.6079L90.648 38.1759Z" fill="#CE7A63"/>
<path d="M84.756 44.5359C82.088 45.1479 80.332 52.34 80.332 52.34L84.8 55.684C86.4538 54.4967 87.6262 52.755 88.104 50.776C89 47.2 87.48 43.9119 84.756 44.5359Z" fill="#764AF1"/>
<path opacity="0.2" d="M87.0399 49.5399C85.5172 51.1611 84.6308 53.2774 84.5439 55.4999L84.7799 55.6839C86.4325 54.4954 87.6046 52.7542 88.0839 50.7759C88.1359 50.5639 88.1839 50.3479 88.2239 50.1399L87.0399 49.5399Z" fill="black"/>
<path d="M101.6 47.3879C102.176 50.4319 103.044 57.6559 101.42 69.9359C101.405 70.0366 101.358 70.1298 101.286 70.2018C101.214 70.2738 101.121 70.3208 101.02 70.3359C99.6262 70.5005 98.2169 70.4817 96.828 70.2799C94.028 69.8799 91.704 70.0519 88.988 70.2799C87.7903 70.373 86.5879 70.3903 85.388 70.3319C85.3235 70.3286 85.2605 70.312 85.2027 70.2831C85.145 70.2542 85.0939 70.2137 85.0525 70.1641C85.0112 70.1146 84.9806 70.057 84.9626 69.995C84.9446 69.933 84.9396 69.8679 84.948 69.8039C85.368 66.6439 86.892 54.8959 84.776 44.5479C86.4565 44.2258 88.156 44.012 89.864 43.9079C92.0182 43.7818 94.1778 43.7818 96.332 43.9079C97.044 43.9719 97.744 44.0759 98.368 44.1839C99.1667 44.3304 99.9026 44.7147 100.479 45.2863C101.056 45.858 101.447 46.5905 101.6 47.3879V47.3879Z" fill="#764AF1"/>
<path d="M89.296 35.1319C90.024 37.8599 90.316 39.4919 91.996 40.6239C94.528 42.3319 97.676 40.3719 97.776 37.4839C97.864 34.8839 96.656 30.8639 93.732 30.3119C93.0874 30.1871 92.4216 30.2292 91.7979 30.4343C91.1742 30.6395 90.6134 31.0008 90.1688 31.4839C89.7241 31.967 89.4105 32.5558 89.2578 33.1944C89.105 33.8329 89.1182 34.4999 89.296 35.1319Z" fill="#CE7A63"/>
<path d="M95.6759 35.9679C96.5279 37.8479 96.2599 39.5679 95.1999 40.3679C93.9999 41.2799 90.6359 41.4199 89.3599 40.1279C89.8439 39.6439 90.1119 39.0399 89.4919 38.1799C88.8719 37.3199 86.5959 35.9839 86.5519 34.1479C86.5079 32.3119 87.7239 32.1039 87.6519 32.1039C86.5759 31.6239 86.6439 29.8959 87.8279 28.9439C89.0839 27.9319 91.1239 27.6519 93.5519 28.1439C95.0839 28.4479 96.5879 28.4199 96.3239 27.4519C98.1279 28.4879 97.2319 32.3239 95.4879 32.8279C95.7639 33.5199 96.9719 34.6199 96.9719 34.6199C96.9719 34.6199 96.6759 35.7639 95.6759 35.9679Z" fill="#263238"/>
<path d="M87.8279 31.7319C87.8279 31.7319 87.1719 32.1319 85.4479 31.6279C85.9119 32.4879 87.6359 32.5199 88.0519 32.3239C88.4679 32.1279 87.8279 31.7319 87.8279 31.7319Z" fill="#263238"/>
<path d="M94.58 35.2799C94.7368 35.9228 95.1026 36.4954 95.62 36.9079C96.304 37.4479 96.82 36.9519 96.82 36.1599C96.792 35.4479 96.42 34.3119 95.644 34.0799C94.868 33.8479 94.4 34.5039 94.58 35.2799Z" fill="#CE7A63"/>
<path d="M101.708 46.9719C102.064 47.7999 102.4 48.6359 102.744 49.4679C103.088 50.2999 103.424 51.1359 103.756 51.9719L105.732 56.9679C106.064 57.7919 106.396 58.6119 106.732 59.3999L106.988 59.9679L107.052 60.1079V60.1399C107.052 60.1399 107.052 60.1399 107.028 60.0999C106.971 59.9998 106.905 59.9048 106.832 59.8159C106.683 59.6519 106.505 59.5163 106.308 59.4159C106.163 59.3349 106.007 59.2768 105.844 59.2439C105.744 59.2215 105.642 59.2082 105.54 59.2039C105.477 59.1998 105.415 59.1998 105.352 59.2039C105.29 59.208 105.228 59.2187 105.168 59.2359C105.134 59.2423 105.102 59.2545 105.072 59.2719C105.192 59.2491 105.308 59.2087 105.416 59.1519C105.576 59.0799 105.756 58.9919 105.932 58.8959C106.66 58.4959 107.428 58.0599 108.192 57.6159C108.956 57.1719 109.748 56.7239 110.54 56.2999H110.564C110.786 56.1802 111.043 56.1416 111.29 56.1909C111.538 56.2402 111.76 56.3742 111.919 56.5699C112.079 56.7656 112.165 57.0107 112.162 57.263C112.16 57.5152 112.07 57.7589 111.908 57.9519C110.712 59.4034 109.371 60.7301 107.908 61.9119C107.712 62.0639 107.508 62.2159 107.28 62.3719C107.009 62.5623 106.719 62.7258 106.416 62.8599C106.286 62.9153 106.153 62.9607 106.016 62.9959C105.902 63.0258 105.785 63.0459 105.668 63.0559C105.576 63.0619 105.484 63.0619 105.392 63.0559C105.257 63.0536 105.123 63.0375 104.992 63.0079C104.804 62.966 104.622 62.8987 104.452 62.8079C104.227 62.6881 104.028 62.5265 103.864 62.3319C103.781 62.2328 103.706 62.1271 103.64 62.0159L103.604 61.9479L103.58 61.9079L103.492 61.7439C103.368 61.5239 103.264 61.3159 103.148 61.0999C102.712 60.2599 102.316 59.4319 101.948 58.5999C101.176 56.9399 100.452 55.2839 99.744 53.6199C99.392 52.7879 99.0453 51.9532 98.704 51.1159C98.364 50.2799 98.024 49.4439 97.7 48.6039C97.4841 48.0735 97.4877 47.479 97.7102 46.9513C97.9326 46.4236 98.3555 46.0058 98.886 45.7899C99.4164 45.574 100.011 45.5777 100.539 45.8001C101.066 46.0225 101.484 46.4455 101.7 46.9759L101.708 46.9719Z" fill="#CF7A64"/>
<path d="M112.148 54.6439C111.637 54.9365 111.189 55.3271 110.829 55.7931C110.47 56.2592 110.206 56.7916 110.052 57.3599L111.04 58.6279L113.2 57.9599C113.371 57.9059 113.519 57.796 113.62 57.6479L114.728 56.0119C114.814 55.8526 114.853 55.6721 114.841 55.4914C114.828 55.3107 114.764 55.1375 114.656 54.9919L113.484 53.4159L112.148 54.6439Z" fill="#CE7A63"/>
<path d="M95.8359 48.9679C96.0839 52.1399 99.576 56.2839 99.576 56.2839L104.5 52.5919C104.5 52.5919 103.752 48.1319 101.2 45.7119C98.044 42.7239 95.5999 45.9999 95.8359 48.9679Z" fill="#764AF1"/>
<path d="M97.032 43.8959C96.576 42.5599 91.332 42.3279 88.172 42.6479C85.012 42.9679 86.604 45.4279 87.136 45.7719C85.704 46.3039 86.468 48.8319 89.136 50.0719C91.804 51.3119 97.6 45.5079 97.032 43.8959Z" fill="#263238"/>
</svg>
